{
.appVersion = "983";
copyright = "Copyright © 1990, 2001 Adobe Systems Incorporated.  All Rights Reserved.";
customParameters = (
{
name = licenseURL;
value = "http://www.adobe.com/type/legal.html";
},
{
name = vendorID;
value = ADBE;
},
{
name = panose;
value = (
0,
0,
5,
0,
0,
0,
0,
0,
0,
0
);
},
{
name = unicodeRanges;
value = (
0,
1,
2,
3,
5,
7,
31,
33,
35,
38,
45,
62
);
},
{
name = codePageRanges;
value = (
1252
);
},
{
name = "Family Alignment Zones";
value = (
"{688, 12}",
"{470, 12}",
"{404, 0}",
"{273, -7}",
"{0, -12}",
"{-182, -20}"
);
},
{
name = glyphOrder;
value = (
.notdef,
space,
exclam,
quotedbl,
numbersign,
dollar,
percent,
ampersand,
quoteright,
parenleft,
parenright,
asterisk,
plus,
comma,
hyphen,
period,
slash,
zero,
one,
two,
three,
four,
five,
six,
seven,
eight,
nine,
colon,
semicolon,
less,
equal,
greater,
question,
at,
A,
B,
C,
D,
E,
F,
G,
H,
I,
J,
K,
L,
M,
N,
O,
P,
Q,
R,
S,
T,
U,
V,
W,
X,
Y,
Z,
bracketleft,
backslash,
bracketright,
asciicircum,
underscore,
quoteleft,
a,
b,
c,
d,
e,
f,
g,
h,
i,
j,
k,
l,
m,
n,
o,
p,
q,
r,
s,
t,
u,
v,
w,
x,
y,
z,
braceleft,
bar,
braceright,
asciitilde,
exclamdown,
cent,
sterling,
fraction,
yen,
florin,
section,
currency,
quotesingle,
quotedblleft,
guillemotleft,
guilsinglleft,
guilsinglright,
fi,
fl,
endash,
dagger,
daggerdbl,
periodcentered,
paragraph,
bullet,
quotesinglbase,
quotedblbase,
quotedblright,
guillemotright,
ellipsis,
perthousand,
questiondown,
grave,
acute,
circumflex,
tilde,
macron,
breve,
dotaccent,
dieresis,
ring,
cedilla,
hungarumlaut,
ogonek,
caron,
emdash,
AE,
ordfeminine,
Lslash,
Oslash,
OE,
ordmasculine,
ae,
dotlessi,
lslash,
oslash,
oe,
germandbls,
onesuperior,
logicalnot,
mu,
trademark,
Eth,
onehalf,
plusminus,
Thorn,
onequarter,
divide,
brokenbar,
degree,
thorn,
threequarters,
twosuperior,
registered,
minus,
eth,
multiply,
threesuperior,
copyright,
Aacute,
Acircumflex,
Adieresis,
Agrave,
Aring,
Atilde,
Ccedilla,
Eacute,
Ecircumflex,
Edieresis,
Egrave,
Iacute,
Icircumflex,
Idieresis,

glyphs = (
{
glyphname = .notdef;
lastChange = "2017-06-09 11:42:18 +0000";
layers = (
{
layerId = "167B0F81-32A7-4481-94FC-A22177A24047";
paths = (
{
closed = 1;
nodes = (
"0 0 LINE",
"500 0 LINE",
"500 700 LINE",
"0 700 LINE"
);
},
{
closed = 1;
nodes = (
"250 395 LINE",
"80 650 LINE",
"420 650 LINE"
);
},
{
closed = 1;
nodes = (
"280 350 LINE",
"450 605 LINE",
"450 95 LINE"
);
},
{
closed = 1;
nodes = (
"80 50 LINE",
"250 305 LINE",
"420 50 LINE"
);
},
{
closed = 1;
nodes = (
"50 605 LINE",
"220 350 LINE",
"50 95 LINE"
);
}
);
width = 500;
}
);
note = .notdef;
},
{
glyphname = exclam;
lastChange = "2017-06-09 11:42:18 +0000";
layers = (
{
layerId = "167B0F81-32A7-4481-94FC-A22177A24047";
paths = (
{
closed = 1;
nodes = (
"107 110 OFFCURVE",
"81 88 OFFCURVE",
"81 52 CURVE SMOOTH",
"81 16 OFFCURVE",
"107 -6 OFFCURVE",
"139 -6 CURVE SMOOTH",
"171 -6 OFFCURVE",
"197 16 OFFCURVE",
"197 52 CURVE SMOOTH",
"197 88 OFFCURVE",
"171 110 OFFCURVE",
"139 110 CURVE SMOOTH"
);
},
{
closed = 1;
nodes = (
"186 530 LINE SMOOTH",
"189 558 OFFCURVE",
"197 591 OFFCURVE",
"197 620 CURVE SMOOTH",
"197 662 OFFCURVE",
"182 688 OFFCURVE",
"139 688 CURVE SMOOTH",
"96 688 OFFCURVE",
"81 662 OFFCURVE",
"81 620 CURVE SMOOTH",
"81 591 OFFCURVE",
"89 558 OFFCURVE",
"92 530 CURVE SMOOTH",
"124 222 LINE",
"154 222 LINE"
);
}
);
width = 278;
}
);
note = exclam;
unicode = 0021;
},
{
glyphname = quotedbl;
lastChange = "2017-06-09 11:42:18 +0000";
layers = (
{
layerId = "167B0F81-32A7-4481-94FC-A22177A24047";
paths = (
{
closed = 1;
nodes = (
"272 612 OFFCURVE",
"273 632 OFFCURVE",
"273 646 CURVE SMOOTH",
"273 672 OFFCURVE",
"266 700 OFFCURVE",
"238 700 CURVE SMOOTH",
"210 700 OFFCURVE",
"203 672 OFFCURVE",
"203 646 CURVE SMOOTH",
"203 632 OFFCURVE",
"204 612 OFFCURVE",
"206 591 CURVE SMOOTH",
"221 415 LINE SMOOTH",
"223 395 OFFCURVE",
"227 384 OFFCURVE",
"238 384 CURVE SMOOTH",
"249 384 OFFCURVE",
"253 395 OFFCURVE",
"255 415 CURVE SMOOTH",
"270 591 LINE SMOOTH"
);
},
{
closed = 1;
nodes = (
"129 612 OFFCURVE",
"130 632 OFFCURVE",
"130 646 CURVE SMOOTH",
"130 672 OFFCURVE",
"123 700 OFFCURVE",
"95 700 CURVE SMOOTH",
"67 700 OFFCURVE",
"60 672 OFFCURVE",
"60 646 CURVE SMOOTH",
"60 632 OFFCURVE",
"61 612 OFFCURVE",
"63 591 CURVE SMOOTH",
"78 415 LINE SMOOTH",
"80 395 OFFCURVE",
"84 384 OFFCURVE",
"95 384 CURVE SMOOTH",
"106 384 OFFCURVE",
"110 395 OFFCURVE",
"112 415 CURVE SMOOTH",
"127 591 LINE SMOOTH"
);
}
);
width = 333;
}
);
note = quotedbl;
unicode = 0022;
},
{
glyphname = numbersign;
lastChange = "2017-06-09 11:42:18 +0000";
layers = (
{
layerId = "167B0F81-32A7-4481-94FC-A22177A24047";
paths = (
{
closed = 1;
nodes = (
"366 274 LINE",
"387 426 LINE",
"496 426 LINE",
"496 476 LINE",
"394 476 LINE",
"426 700 LINE",
"370 700 LINE",
"339 476 LINE",
"204 476 LINE",
"236 700 LINE",
"180 700 LINE",
"149 476 LINE",
"32 476 LINE",
"32 426 LINE",
"142 426 LINE",
"121 274 LINE",
"4 274 LINE",
"4 224 LINE",
"114 224 LINE",
"82 0 LINE",
"138 0 LINE",
"169 224 LINE",
"304 224 LINE",
"272 0 LINE",
"328 0 LINE",
"359 224 LINE",
"468 224 LINE",
"468 274 LINE"
);
},
{
closed = 1;
nodes = (
"311 274 LINE",
"176 274 LINE",
"197 426 LINE",
"332 426 LINE"
);
}
);
width = 500;
}
);
note = numbersign;
unicode = 0023;
},
{
glyphname = dollar;
lastChange = "2017-06-09 11:42:18 +0000";
layers = (
{
layerId = "167B0F81-32A7-4481-94FC-A22177A24047";
paths = (
{
closed = 1;
nodes = (
"178 430 OFFCURVE",
"134 453 OFFCURVE",
"134 517 CURVE SMOOTH",
"134 584 OFFCURVE",
"177 626 OFFCURVE",
"234 638 CURVE",
"234 412 LINE"
);
},
{
closed = 1;
nodes = (
"345 293 OFFCURVE",
"388 269 OFFCURVE",
"388 197 CURVE SMOOTH",
"388 126 OFFCURVE",
"340 74 OFFCURVE",
"276 61 CURVE",
"276 313 LINE"
);
},
{
closed = 1;
nodes = (
"155 234 OFFCURVE",
"133 255 OFFCURVE",
"98 255 CURVE SMOOTH",
"58 255 OFFCURVE",
"39 218 OFFCURVE",
"39 190 CURVE SMOOTH",
"39 85 OFFCURVE",
"131 22 OFFCURVE",
"234 22 CURVE",
"234 -72 LINE",
"276 -72 LINE",
"276 28 LINE",
"393 53 OFFCURVE",
"462 139 OFFCURVE",
"462 229 CURVE SMOOTH",
"462 342 OFFCURVE",
"382 372 OFFCURVE",
"276 401 CURVE",
"276 640 LINE",
"324 639 OFFCURVE",
"368 626 OFFCURVE",
"381 591 CURVE",
"378 591 OFFCURVE",
"374 592 OFFCURVE",
"370 592 CURVE SMOOTH",
"344 592 OFFCURVE",
"319 576 OFFCURVE",
"319 540 CURVE SMOOTH",
"319 513 OFFCURVE",
"338 488 OFFCURVE",
"371 488 CURVE SMOOTH",
"401 488 OFFCURVE",
"427 504 OFFCURVE",
"427 552 CURVE SMOOTH",
"427 634 OFFCURVE",
"349 674 OFFCURVE",
"276 674 CURVE",
"276 760 LINE",
"234 760 LINE",
"234 673 LINE",
"144 659 OFFCURVE",
"68 580 OFFCURVE",
"68 487 CURVE SMOOTH",
"68 394 OFFCURVE",
"141 349 OFFCURVE",
"234 326 CURVE",
"234 56 LINE",
"162 56 OFFCURVE",
"98 81 OFFCURVE",
"84 149 CURVE",
"89 148 OFFCURVE",
"94 147 OFFCURVE",
"101 147 CURVE SMOOTH",
"133 147 OFFCURVE",
"155 169 OFFCURVE",
"155 199 CURVE SMOOTH"
);
}
);
width = 500;
}
);
note = dollar;
unicode = 0024;
},
{
glyphname = percent;
lastChange = "2017-06-09 11:42:18 +0000";
layers = (
{
layerId = "167B0F81-32A7-4481-94FC-A22177A24047";
paths = (
{
closed = 1;
nodes = (
"66 676 OFFCURVE",
"-2 600 OFFCURVE",
"-2 479 CURVE SMOOTH",
"-2 358 OFFCURVE",
"66 282 OFFCURVE",
"142 282 CURVE SMOOTH",
"218 282 OFFCURVE",
"286 358 OFFCURVE",
"286 479 CURVE SMOOTH",
"286 600 OFFCURVE",
"218 676 OFFCURVE",
"142 676 CURVE SMOOTH"
);
},
{
closed = 1;
nodes = (
"184 648 OFFCURVE",
"216 604 OFFCURVE",
"216 479 CURVE SMOOTH",
"216 354 OFFCURVE",
"184 310 OFFCURVE",
"142 310 CURVE SMOOTH",
"100 310 OFFCURVE",
"68 354 OFFCURVE",
"68 479 CURVE SMOOTH",
"68 604 OFFCURVE",
"100 648 OFFCURVE",
"142 648 CURVE SMOOTH"
);
},
{
closed = 1;
nodes = (
"458 394 OFFCURVE",
"390 318 OFFCURVE",
"390 197 CURVE SMOOTH",
"390 76 OFFCURVE",
"458 0 OFFCURVE",
"534 0 CURVE SMOOTH",
"610 0 OFFCURVE",
"678 76 OFFCURVE",
"678 197 CURVE SMOOTH",
"678 318 OFFCURVE",
"610 394 OFFCURVE",
"534 394 CURVE SMOOTH"
);
},
{
closed = 1;
nodes = (
"576 366 OFFCURVE",
"608 322 OFFCURVE",
"608 197 CURVE SMOOTH",
"608 72 OFFCURVE",
"576 28 OFFCURVE",
"534 28 CURVE SMOOTH",
"492 28 OFFCURVE",
"460 72 OFFCURVE",
"460 197 CURVE SMOOTH",
"460 322 OFFCURVE",
"492 366 OFFCURVE",
"534 366 CURVE SMOOTH"
);
},
{
closed = 1;
nodes = (
"592 700 LINE",
"540 700 LINE",
"91 -12 LINE",
"143 -12 LINE"
);
}
);
width = 667;
}
);
note = percent;
unicode = 0025;
},
{
glyphname = ampersand;
lastChange = "2017-06-09 11:42:18 +0000";
layers = (
{
layerId = "167B0F81-32A7-4481-94FC-A22177A24047";
paths = (
{
closed = 1;
nodes = (
"499 340 OFFCURVE",
"536 330 OFFCURVE",
"536 263 CURVE SMOOTH",
"536 216 OFFCURVE",
"522 167 OFFCURVE",
"492 131 CURVE",
"429 191 OFFCURVE",
"354 320 OFFCURVE",
"320 379 CURVE",
"395 413 OFFCURVE",
"504 460 OFFCURVE",
"504 556 CURVE SMOOTH",
"504 637 OFFCURVE",
"433 688 OFFCURVE",
"355 688 CURVE SMOOTH",
"253 688 OFFCURVE",
"170 613 OFFCURVE",
"170 513 CURVE SMOOTH",
"170 461 OFFCURVE",
"187 409 OFFCURVE",
"214 365 CURVE",
"120 331 OFFCURVE",
"26 283 OFFCURVE",
"26 169 CURVE SMOOTH",
"26 48 OFFCURVE",
"158 -12 OFFCURVE",
"264 -12 CURVE SMOOTH",
"333 -12 OFFCURVE",
"386 1 OFFCURVE",
"446 42 CURVE",
"483 9 OFFCURVE",
"516 -12 OFFCURVE",
"560 -12 CURVE SMOOTH",
"653 -12 OFFCURVE",
"710 51 OFFCURVE",
"710 141 CURVE",
"682 141 LINE",
"676 93 OFFCURVE",
"657 52 OFFCURVE",
"600 52 CURVE SMOOTH",
"564 52 OFFCURVE",
"538 85 OFFCURVE",
"515 107 CURVE",
"556 156 OFFCURVE",
"572 213 OFFCURVE",
"582 248 CURVE SMOOTH",
"601 318 OFFCURVE",
"616 340 OFFCURVE",
"696 340 CURVE",
"696 374 LINE",
"436 374 LINE",
"436 340 LINE"
);
},
{
closed = 1;
nodes = (
"128 259 OFFCURVE",
"170 310 OFFCURVE",
"227 338 CURVE",
"271 263 OFFCURVE",
"363 124 OFFCURVE",
"422 66 CURVE",
"384 39 OFFCURVE",
"338 22 OFFCURVE",
"291 22 CURVE SMOOTH",
"190 22 OFFCURVE",
"128 101 OFFCURVE",
"128 195 CURVE SMOOTH"
);
},
{
closed = 1;
nodes = (
"279 446 OFFCURVE",
"252 505 OFFCURVE",
"252 555 CURVE SMOOTH",
"252 604 OFFCURVE",
"276 654 OFFCURVE",
"334 654 CURVE SMOOTH",
"395 654 OFFCURVE",
"430 603 OFFCURVE",
"430 549 CURVE SMOOTH",
"430 472 OFFCURVE",
"374 433 OFFCURVE",
"307 404 CURVE"
);
}
);
width = 722;
}
);
note = ampersand;
unicode = 0026;
},
{
glyphname = quoteright;
lastChange = "2017-06-09 11:42:18 +0000";
layers = (
{
layerId = "167B0F81-32A7-4481-94FC-A22177A24047";
paths = (
{
closed = 1;
nodes = (
"131 493 OFFCURVE",
"176 561 OFFCURVE",
"176 633 CURVE SMOOTH",
"176 684 OFFCURVE",
"138 716 OFFCURVE",
"104 716 CURVE SMOOTH",
"72 716 OFFCURVE",
"46 690 OFFCURVE",
"46 658 CURVE SMOOTH",
"46 616 OFFCURVE",
"77 596 OFFCURVE",
"120 596 CURVE",
"120 550 OFFCURVE",
"108 522 OFFCURVE",
"58 470 CURVE",
"82 446 LINE"
);
}
);
width = 222;
}
);
leftKerningGroup = quoteright;
note = quoteright;
rightKerningGroup = quoteright;
unicode = 2019;
},
{
glyphname = parenleft;
lastChange = "2017-06-09 11:42:18 +0000";
layers = (
{
layerId = "167B0F81-32A7-4481-94FC-A22177A24047";
paths = (
{
closed = 1;
nodes = (
"182 684 OFFCURVE",
"57 474 OFFCURVE",
"57 249 CURVE SMOOTH",
"57 24 OFFCURVE",
"182 -186 OFFCURVE",
"373 -202 CURVE",
"373 -168 LINE",
"232 -164 OFFCURVE",
"139 8 OFFCURVE",
"139 249 CURVE SMOOTH",
"139 490 OFFCURVE",
"232 662 OFFCURVE",
"373 666 CURVE",
"373 700 LINE"
);
}
);
width = 389;
}
);
note = parenleft;
unicode = 0028;
},
{
glyphname = parenright;
lastChange = "2017-06-09 11:42:18 +0000";
layers = (
{
layerId = "167B0F81-32A7-4481-94FC-A22177A24047";
paths = (
{
closed = 1;
nodes = (
"207 -186 OFFCURVE",
"332 24 OFFCURVE",
"332 249 CURVE SMOOTH",
"332 474 OFFCURVE",
"207 684 OFFCURVE",
"16 700 CURVE",
"16 666 LINE",
"157 662 OFFCURVE",
"250 490 OFFCURVE",
"250 249 CURVE SMOOTH",
"250 8 OFFCURVE",
"157 -164 OFFCURVE",
"16 -168 CURVE",
"16 -202 LINE"
);
}
);
width = 389;
}
);
note = parenright;
unicode = 0029;
},
{
glyphname = asterisk;
lastChange = "2017-06-09 11:42:18 +0000";
layers = (
{
layerId = "167B0F81-32A7-4481-94FC-A22177A24047";
paths = (
{
closed = 1;
nodes = (
"201 700 OFFCURVE",
"181 682 OFFCURVE",
"181 658 CURVE SMOOTH",
"181 620 OFFCURVE",
"211 598 OFFCURVE",
"211 508 CURVE",
"204 503 LINE",
"111 557 OFFCURVE",
"113 612 OFFCURVE",
"69 612 CURVE SMOOTH",
"45 612 OFFCURVE",
"27 594 OFFCURVE",
"27 570 CURVE SMOOTH",
"27 548 OFFCURVE",
"45 530 OFFCURVE",
"67 530 CURVE SMOOTH",
"93 530 OFFCURVE",
"135 524 OFFCURVE",
"196 490 CURVE",
"196 480 LINE",
"153 446 OFFCURVE",
"103 438 OFFCURVE",
"72 438 CURVE SMOOTH",
"52 438 OFFCURVE",
"27 427 OFFCURVE",
"27 402 CURVE SMOOTH",
"27 374 OFFCURVE",
"39 358 OFFCURVE",
"67 358 CURVE SMOOTH",
"107 358 OFFCURVE",
"127 422 OFFCURVE",
"203 468 CURVE",
"211 460 LINE",
"211 370 OFFCURVE",
"181 348 OFFCURVE",
"181 310 CURVE SMOOTH",
"181 286 OFFCURVE",
"201 268 OFFCURVE",
"222 268 CURVE SMOOTH",
"243 268 OFFCURVE",
"263 286 OFFCURVE",
"263 310 CURVE SMOOTH",
"263 348 OFFCURVE",
"233 370 OFFCURVE",
"233 460 CURVE",
"241 468 LINE",
"317 422 OFFCURVE",
"337 358 OFFCURVE",
"377 358 CURVE SMOOTH",
"405 358 OFFCURVE",
"417 374 OFFCURVE",
"417 402 CURVE SMOOTH",
"417 427 OFFCURVE",
"392 438 OFFCURVE",
"372 438 CURVE SMOOTH",
"341 438 OFFCURVE",
"291 446 OFFCURVE",
"248 480 CURVE",
"248 490 LINE",
"309 524 OFFCURVE",
"351 530 OFFCURVE",
"377 530 CURVE SMOOTH",
"399 530 OFFCURVE",
"417 548 OFFCURVE",
"417 570 CURVE SMOOTH",
"417 594 OFFCURVE",
"399 612 OFFCURVE",
"375 612 CURVE SMOOTH",
"331 612 OFFCURVE",
"333 557 OFFCURVE",
"240 503 CURVE",
"233 508 LINE",
"233 598 OFFCURVE",
"263 620 OFFCURVE",
"263 658 CURVE SMOOTH",
"263 682 OFFCURVE",
"243 700 OFFCURVE",
"222 700 CURVE SMOOTH"
);
}
);
width = 444;
}
);
note = asterisk;
unicode = 002A;
},
{
glyphname = plus;
lastChange = "2017-06-09 11:42:18 +0000";
layers = (
{
layerId = "167B0F81-32A7-4481-94FC-A22177A24047";
paths = (
{
closed = 1;
nodes = (
"65 263 LINE",
"65 207 LINE",
"272 207 LINE",
"272 0 LINE",
"328 0 LINE",
"328 207 LINE",
"535 207 LINE",
"535 263 LINE",
"328 263 LINE",
"328 470 LINE",
"272 470 LINE",
"272 263 LINE"
);
}
);
width = 600;
}
);
note = plus;
unicode = 002B;
},
{
glyphname = comma;
lastChange = "2017-06-09 11:42:18 +0000";
layers = (
{
layerId = "167B0F81-32A7-4481-94FC-A22177A24047";
paths = (
{
closed = 1;
nodes = (
"127 -140 OFFCURVE",
"178 -64 OFFCURVE",
"178 21 CURVE SMOOTH",
"178 64 OFFCURVE",
"159 110 OFFCURVE",
"109 110 CURVE SMOOTH",
"81 110 OFFCURVE",
"54 88 OFFCURVE",
"54 59 CURVE SMOOTH",
"54 14 OFFCURVE",
"85 -3 OFFCURVE",
"126 -6 CURVE",
"126 -72 OFFCURVE",
"90 -128 OFFCURVE",
"44 -168 CURVE",
"64 -192 LINE"
);
}
);
width = 250;
}
);
leftKerningGroup = comma;
note = comma;
unicode = 002C;
},
{
glyphname = hyphen;
lastChange = "2017-06-09 11:42:18 +0000";
layers = (
{
layerId = "167B0F81-32A7-4481-94FC-A22177A24047";
paths = (
{
closed = 1;
nodes = (
"263 268 LINE",
"15 268 LINE",
"15 202 LINE",
"263 202 LINE"
);
}
);
width = 278;
}
);
leftKerningGroup = hyphen;
note = hyphen;
unicode = 002D;
},
{
glyphname = period;
lastChange = "2017-06-09 11:42:18 +0000";
layers = (
{
layerId = "167B0F81-32A7-4481-94FC-A22177A24047";
paths = (
{
closed = 1;
nodes = (
"80 110 OFFCURVE",
"54 88 OFFCURVE",
"54 52 CURVE SMOOTH",
"54 16 OFFCURVE",
"80 -6 OFFCURVE",
"112 -6 CURVE SMOOTH",
"144 -6 OFFCURVE",
"170 16 OFFCURVE",
"170 52 CURVE SMOOTH",
"170 88 OFFCURVE",
"144 110 OFFCURVE",
"112 110 CURVE SMOOTH"
);
}
);
width = 250;
}
);
leftKerningGroup = period;
note = period;
unicode = 002E;
},
{
glyphname = slash;
lastChange = "2017-06-09 11:42:18 +0000";
layers = (
{
layerId = "167B0F81-32A7-4481-94FC-A22177A24047";
paths = (
{
closed = 1;
nodes = (
"306 700 LINE",
"247 700 LINE",
"-28 -12 LINE",
"31 -12 LINE"
);
}
);
width = 278;
}
);
note = slash;
unicode = 002F;
},
{
glyphname = zero;
lastChange = "2017-06-09 11:42:18 +0000";
layers = (
{
layerId = "167B0F81-32A7-4481-94FC-A22177A24047";
paths = (
{
closed = 1;
nodes = (
"172 22 OFFCURVE",
"132 101 OFFCURVE",
"132 344 CURVE SMOOTH",
"132 587 OFFCURVE",
"172 666 OFFCURVE",
"250 666 CURVE SMOOTH",
"328 666 OFFCURVE",
"368 587 OFFCURVE",
"368 344 CURVE SMOOTH",
"368 101 OFFCURVE",
"328 22 OFFCURVE",
"250 22 CURVE SMOOTH"
);
},
{
closed = 1;
nodes = (
"130 700 OFFCURVE",
"30 560 OFFCURVE",
"30 344 CURVE SMOOTH",
"30 128 OFFCURVE",
"130 -12 OFFCURVE",
"250 -12 CURVE SMOOTH",
"370 -12 OFFCURVE",
"470 128 OFFCURVE",
"470 344 CURVE SMOOTH",
"470 560 OFFCURVE",
"370 700 OFFCURVE",
"250 700 CURVE SMOOTH"
);
}
);
width = 500;
}
);
note = zero;
unicode = 0030;
},
{
glyphname = one;
lastChange = "2017-06-09 11:42:18 +0000";
layers = (
{
layerId = "167B0F81-32A7-4481-94FC-A22177A24047";
paths = (
{
closed = 1;
nodes = (
"194 600 OFFCURVE",
"214 586 OFFCURVE",
"214 556 CURVE SMOOTH",
"214 112 LINE SMOOTH",
"214 56 OFFCURVE",
"190 34 OFFCURVE",
"94 34 CURVE",
"94 0 LINE",
"428 0 LINE",
"428 34 LINE",
"332 34 OFFCURVE",
"308 56 OFFCURVE",
"308 112 CURVE SMOOTH",
"308 694 LINE",
"281 694 LINE",
"252 662 OFFCURVE",
"190 634 OFFCURVE",
"112 634 CURVE",
"112 600 LINE"
);
}
);
width = 500;
}
);
note = one;
unicode = 0031;
},
{
glyphname = two;
lastChange = "2017-06-09 11:42:18 +0000";
layers = (
{
layerId = "167B0F81-32A7-4481-94FC-A22177A24047";
paths = (
{
closed = 1;
nodes = (
"450 210 LINE",
"424 210 LINE",
"412 114 OFFCURVE",
"378 82 OFFCURVE",
"290 82 CURVE SMOOTH",
"80 82 LINE",
"151 261 OFFCURVE",
"448 309 OFFCURVE",
"448 520 CURVE SMOOTH",
"448 638 OFFCURVE",
"345 700 OFFCURVE",
"236 700 CURVE SMOOTH",
"131 700 OFFCURVE",
"36 632 OFFCURVE",
"36 521 CURVE SMOOTH",
"36 464 OFFCURVE",
"58 434 OFFCURVE",
"99 434 CURVE SMOOTH",
"137 434 OFFCURVE",
"158 463 OFFCURVE",
"158 492 CURVE SMOOTH",
"158 534 OFFCURVE",
"133 550 OFFCURVE",
"106 550 CURVE SMOOTH",
"90 550 OFFCURVE",
"80 544 OFFCURVE",
"70 539 CURVE",
"78 617 OFFCURVE",
"135 666 OFFCURVE",
"213 666 CURVE SMOOTH",
"304 666 OFFCURVE",
"354 606 OFFCURVE",
"354 514 CURVE SMOOTH",
"354 312 OFFCURVE",
"24 219 OFFCURVE",
"24 0 CURVE",
"442 0 LINE"
);
}
);
width = 500;
}
);
note = two;
unicode = 0032;
},
{
glyphname = three;
lastChange = "2017-06-09 11:42:18 +0000";
layers = (
{
layerId = "167B0F81-32A7-4481-94FC-A22177A24047";
paths = (
{
closed = 1;
nodes = (
"468 300 OFFCURVE",
"390 358 OFFCURVE",
"301 367 CURVE",
"301 369 LINE",
"376 388 OFFCURVE",
"448 441 OFFCURVE",
"448 525 CURVE SMOOTH",
"448 647 OFFCURVE",
"333 700 OFFCURVE",
"226 700 CURVE SMOOTH",
"123 700 OFFCURVE",
"41 628 OFFCURVE",
"41 538 CURVE SMOOTH",
"41 492 OFFCURVE",
"67 460 OFFCURVE",
"99 460 CURVE SMOOTH",
"133 460 OFFCURVE",
"158 482 OFFCURVE",
"158 519 CURVE SMOOTH",
"158 551 OFFCURVE",
"138 572 OFFCURVE",
"109 572 CURVE SMOOTH",
"98 572 OFFCURVE",
"87 569 OFFCURVE",
"79 564 CURVE",
"86 637 OFFCURVE",
"154 666 OFFCURVE",
"219 666 CURVE SMOOTH",
"311 666 OFFCURVE",
"354 606 OFFCURVE",
"354 520 CURVE SMOOTH",
"354 455 OFFCURVE",
"317 374 OFFCURVE",
"243 374 CURVE SMOOTH",
"228 374 OFFCURVE",
"216 378 OFFCURVE",
"200 378 CURVE SMOOTH",
"183 378 OFFCURVE",
"168 372 OFFCURVE",
"168 358 CURVE SMOOTH",
"168 343 OFFCURVE",
"182 340 OFFCURVE",
"193 340 CURVE SMOOTH",
"213 340 OFFCURVE",
"235 346 OFFCURVE",
"256 346 CURVE SMOOTH",
"339 346 OFFCURVE",
"366 264 OFFCURVE",
"366 197 CURVE SMOOTH",
"366 91 OFFCURVE",
"312 22 OFFCURVE",
"202 22 CURVE SMOOTH",
"133 22 OFFCURVE",
"60 52 OFFCURVE",
"58 131 CURVE",
"68 126 OFFCURVE",
"81 122 OFFCURVE",
"95 122 CURVE SMOOTH",
"123 122 OFFCURVE",
"149 147 OFFCURVE",
"149 178 CURVE SMOOTH",
"149 208 OFFCURVE",
"125 234 OFFCURVE",
"91 234 CURVE SMOOTH",
"45 234 OFFCURVE",
"20 197 OFFCURVE",
"20 145 CURVE SMOOTH",
"20 38 OFFCURVE",
"111 -12 OFFCURVE",
"203 -12 CURVE SMOOTH",
"340 -12 OFFCURVE",
"468 69 OFFCURVE",
"468 204 CURVE SMOOTH"
);
}
);
width = 500;
}
);
note = three;
unicode = 0033;
},
{
glyphname = four;
lastChange = "2017-06-09 11:42:18 +0000";
layers = (
{
layerId = "167B0F81-32A7-4481-94FC-A22177A24047";
paths = (
{
closed = 1;
nodes = (
"317 694 LINE",
"14 222 LINE",
"14 178 LINE",
"280 178 LINE",
"280 112 LINE SMOOTH",
"280 56 OFFCURVE",
"256 34 OFFCURVE",
"178 34 CURVE",
"178 0 LINE",
"458 0 LINE",
"458 34 LINE",
"398 34 OFFCURVE",
"374 56 OFFCURVE",
"374 112 CURVE SMOOTH",
"374 178 LINE",
"479 178 LINE",
"479 222 LINE",
"374 222 LINE",
"374 694 LINE"
);
},
{
closed = 1;
nodes = (
"278 574 LINE",
"280 574 LINE",
"280 222 LINE",
"54 222 LINE"
);
}
);
width = 500;
}
);
note = four;
unicode = 0034;
},
{
glyphname = five;
lastChange = "2017-06-09 11:42:18 +0000";
layers = (
{
layerId = "167B0F81-32A7-4481-94FC-A22177A24047";
paths = (
{
closed = 1;
nodes = (
"156 586 OFFCURVE",
"192 578 OFFCURVE",
"231 578 CURVE SMOOTH",
"296 578 OFFCURVE",
"416 602 OFFCURVE",
"434 694 CURVE",
"380 679 OFFCURVE",
"341 672 OFFCURVE",
"285 672 CURVE SMOOTH",
"208 672 OFFCURVE",
"152 684 OFFCURVE",
"98 694 CURVE",
"67 354 LINE SMOOTH",
"65 336 OFFCURVE",
"60 318 OFFCURVE",
"60 301 CURVE SMOOTH",
"60 291 OFFCURVE",
"64 284 OFFCURVE",
"76 284 CURVE SMOOTH",
"88 284 OFFCURVE",
"94 290 OFFCURVE",
"96 306 CURVE SMOOTH",
"104 373 OFFCURVE",
"149 410 OFFCURVE",
"222 410 CURVE SMOOTH",
"334 410 OFFCURVE",
"376 310 OFFCURVE",
"376 215 CURVE SMOOTH",
"376 104 OFFCURVE",
"323 22 OFFCURVE",
"207 22 CURVE SMOOTH",
"140 22 OFFCURVE",
"76 53 OFFCURVE",
"76 128 CURVE",
"84 124 OFFCURVE",
"94 120 OFFCURVE",
"107 120 CURVE SMOOTH",
"135 120 OFFCURVE",
"163 136 OFFCURVE",
"163 178 CURVE SMOOTH",
"163 209 OFFCURVE",
"140 232 OFFCURVE",
"108 232 CURVE SMOOTH",
"66 232 OFFCURVE",
"40 201 OFFCURVE",
"40 146 CURVE SMOOTH",
"40 49 OFFCURVE",
"117 -12 OFFCURVE",
"210 -12 CURVE SMOOTH",
"341 -12 OFFCURVE",
"470 94 OFFCURVE",
"470 226 CURVE SMOOTH",
"470 356 OFFCURVE",
"366 444 OFFCURVE",
"246 444 CURVE SMOOTH",
"186 444 OFFCURVE",
"138 424 OFFCURVE",
"107 389 CURVE",
"105 391 LINE",
"125 594 LINE"
);
}
);
width = 500;
}
);
note = five;
unicode = 0035;
},
{
glyphname = six;
lastChange = "2017-06-09 11:42:18 +0000";
layers = (
{
layerId = "167B0F81-32A7-4481-94FC-A22177A24047";
paths = (
{
closed = 1;
nodes = (
"476 335 OFFCURVE",
"397 440 OFFCURVE",
"288 440 CURVE SMOOTH",
"212 440 OFFCURVE",
"168 402 OFFCURVE",
"138 337 CURVE",
"136 337 LINE",
"136 401 OFFCURVE",
"145 486 OFFCURVE",
"150 516 CURVE SMOOTH",
"162 590 OFFCURVE",
"212 666 OFFCURVE",
"294 666 CURVE SMOOTH",
"324 666 OFFCURVE",
"365 660 OFFCURVE",
"384 634 CURVE",
"378 635 OFFCURVE",
"373 635 OFFCURVE",
"367 635 CURVE SMOOTH",
"340 635 OFFCURVE",
"321 614 OFFCURVE",
"321 583 CURVE SMOOTH",
"321 550 OFFCURVE",
"343 527 OFFCURVE",
"377 527 CURVE SMOOTH",
"413 527 OFFCURVE",
"437 556 OFFCURVE",
"437 591 CURVE SMOOTH",
"437 661 OFFCURVE",
"362 700 OFFCURVE",
"301 700 CURVE SMOOTH",
"156 700 OFFCURVE",
"34 538 OFFCURVE",
"34 301 CURVE SMOOTH",
"34 163 OFFCURVE",
"97 -12 OFFCURVE",
"260 -12 CURVE SMOOTH",
"397 -12 OFFCURVE",
"476 105 OFFCURVE",
"476 233 CURVE SMOOTH"
);
},
{
closed = 1;
nodes = (
"326 406 OFFCURVE",
"382 374 OFFCURVE",
"382 211 CURVE SMOOTH",
"382 55 OFFCURVE",
"326 22 OFFCURVE",
"259 22 CURVE SMOOTH",
"192 22 OFFCURVE",
"136 81 OFFCURVE",
"136 211 CURVE SMOOTH",
"136 344 OFFCURVE",
"192 406 OFFCURVE",
"259 406 CURVE SMOOTH"
);
}
);
width = 500;
}
);
note = six;
unicode = 0036;
},
{
glyphname = seven;
lastChange = "2017-06-09 11:42:18 +0000";
layers = (
{
layerId = "167B0F81-32A7-4481-94FC-A22177A24047";
paths = (
{
closed = 1;
nodes = (
"98 576 OFFCURVE",
"147 606 OFFCURVE",
"249 606 CURVE SMOOTH",
"424 606 LINE",
"328 462 OFFCURVE",
"182 251 OFFCURVE",
"182 70 CURVE SMOOTH",
"182 14 OFFCURVE",
"198 -12 OFFCURVE",
"238 -12 CURVE SMOOTH",
"266 -12 OFFCURVE",
"286 10 OFFCURVE",
"286 53 CURVE SMOOTH",
"286 80 OFFCURVE",
"284 110 OFFCURVE",
"284 138 CURVE SMOOTH",
"284 318 OFFCURVE",
"362 465 OFFCURVE",
"484 644 CURVE",
"484 688 LINE",
"64 688 LINE",
"54 466 LINE",
"87 466 LINE"
);
}
);
width = 500;
}
);
note = seven;
unicode = 0037;
},
{
glyphname = eight;
lastChange = "2017-06-09 11:42:18 +0000";
layers = (
{
layerId = "167B0F81-32A7-4481-94FC-A22177A24047";
paths = (
{
closed = 1;
nodes = (
"393 412 OFFCURVE",
"447 464 OFFCURVE",
"447 542 CURVE SMOOTH",
"447 645 OFFCURVE",
"349 700 OFFCURVE",
"257 700 CURVE SMOOTH",
"149 700 OFFCURVE",
"48 626 OFFCURVE",
"48 510 CURVE SMOOTH",
"48 429 OFFCURVE",
"106 369 OFFCURVE",
"175 339 CURVE",
"104 308 OFFCURVE",
"24 249 OFFCURVE",
"24 163 CURVE SMOOTH",
"24 48 OFFCURVE",
"132 -12 OFFCURVE",
"236 -12 CURVE SMOOTH",
"358 -12 OFFCURVE",
"476 58 OFFCURVE",
"476 191 CURVE SMOOTH",
"476 289 OFFCURVE",
"411 341 OFFCURVE",
"328 378 CURVE"
);
},
{
closed = 1;
nodes = (
"96 246 OFFCURVE",
"145 298 OFFCURVE",
"208 324 CURVE",
"292 295 OFFCURVE",
"394 262 OFFCURVE",
"394 158 CURVE SMOOTH",
"394 71 OFFCURVE",
"322 22 OFFCURVE",
"240 22 CURVE SMOOTH",
"146 22 OFFCURVE",
"96 90 OFFCURVE",
"96 176 CURVE SMOOTH"
);
},
{
closed = 1;
nodes = (
"120 606 OFFCURVE",
"174 666 OFFCURVE",
"250 666 CURVE SMOOTH",
"334 666 OFFCURVE",
"381 603 OFFCURVE",
"381 525 CURVE SMOOTH",
"381 466 OFFCURVE",
"353 415 OFFCURVE",
"297 393 CURVE",
"231 418 OFFCURVE",
"120 447 OFFCURVE",
"120 534 CURVE SMOOTH"
);
}
);
width = 500;
}
);
note = eight;
unicode = 0038;
},
{
glyphname = nine;
lastChange = "2017-06-09 11:42:18 +0000";
layers = (
{
layerId = "167B0F81-32A7-4481-94FC-A22177A24047";
paths = (
{
closed = 1;
nodes = (
"24 353 OFFCURVE",
"103 244 OFFCURVE",
"221 244 CURVE SMOOTH",
"285 244 OFFCURVE",
"336 268 OFFCURVE",
"361 323 CURVE",
"363 323 LINE",
"363 306 OFFCURVE",
"364 287 OFFCURVE",
"364 269 CURVE SMOOTH",
"364 164 OFFCURVE",
"331 22 OFFCURVE",
"201 22 CURVE SMOOTH",
"161 22 OFFCURVE",
"99 42 OFFCURVE",
"82 82 CURVE",
"90 79 OFFCURVE",
"98 78 OFFCURVE",
"108 78 CURVE SMOOTH",
"133 78 OFFCURVE",
"155 98 OFFCURVE",
"155 132 CURVE SMOOTH",
"155 167 OFFCURVE",
"133 190 OFFCURVE",
"99 190 CURVE SMOOTH",
"63 190 OFFCURVE",
"39 165 OFFCURVE",
"39 117 CURVE SMOOTH",
"39 39 OFFCURVE",
"106 -12 OFFCURVE",
"199 -12 CURVE SMOOTH",
"344 -12 OFFCURVE",
"466 150 OFFCURVE",
"466 387 CURVE SMOOTH",
"466 525 OFFCURVE",
"403 700 OFFCURVE",
"240 700 CURVE SMOOTH",
"103 700 OFFCURVE",
"24 583 OFFCURVE",
"24 455 CURVE SMOOTH"
);
},
{
closed = 1;
nodes = (
"174 278 OFFCURVE",
"118 314 OFFCURVE",
"118 475 CURVE SMOOTH",
"118 633 OFFCURVE",
"174 666 OFFCURVE",
"241 666 CURVE SMOOTH",
"308 666 OFFCURVE",
"364 633 OFFCURVE",
"364 475 CURVE SMOOTH",
"364 314 OFFCURVE",
"308 278 OFFCURVE",
"241 278 CURVE SMOOTH"
);
}
);
width = 500;
}
);
note = nine;
unicode = 0039;
},
{
glyphname = colon;
lastChange = "2017-06-09 11:42:18 +0000";
layers = (
{
layerId = "167B0F81-32A7-4481-94FC-A22177A24047";
paths = (
{
closed = 1;
nodes = (
"80 110 OFFCURVE",
"54 88 OFFCURVE",
"54 52 CURVE SMOOTH",
"54 16 OFFCURVE",
"80 -6 OFFCURVE",
"112 -6 CURVE SMOOTH",
"144 -6 OFFCURVE",
"170 16 OFFCURVE",
"170 52 CURVE SMOOTH",
"170 88 OFFCURVE",
"144 110 OFFCURVE",
"112 110 CURVE SMOOTH"
);
},
{
closed = 1;
nodes = (
"80 450 OFFCURVE",
"54 428 OFFCURVE",
"54 392 CURVE SMOOTH",
"54 356 OFFCURVE",
"80 334 OFFCURVE",
"112 334 CURVE SMOOTH",
"144 334 OFFCURVE",
"170 356 OFFCURVE",
"170 392 CURVE SMOOTH",
"170 428 OFFCURVE",
"144 450 OFFCURVE",
"112 450 CURVE SMOOTH"
);
}
);
width = 250;
}
);
leftKerningGroup = colon;
note = colon;
unicode = 003A;
},
{
glyphname = semicolon;
lastChange = "2017-06-09 11:42:18 +0000";
layers = (
{
layerId = "167B0F81-32A7-4481-94FC-A22177A24047";
paths = (
{
closed = 1;
nodes = (
"127 -140 OFFCURVE",
"178 -64 OFFCURVE",
"178 21 CURVE SMOOTH",
"178 64 OFFCURVE",
"159 110 OFFCURVE",
"109 110 CURVE SMOOTH",
"81 110 OFFCURVE",
"54 88 OFFCURVE",
"54 59 CURVE SMOOTH",
"54 14 OFFCURVE",
"85 -3 OFFCURVE",
"126 -6 CURVE",
"126 -72 OFFCURVE",
"90 -128 OFFCURVE",
"44 -168 CURVE",
"64 -192 LINE"
);
},
{
closed = 1;
nodes = (
"80 450 OFFCURVE",
"54 428 OFFCURVE",
"54 392 CURVE SMOOTH",
"54 356 OFFCURVE",
"80 334 OFFCURVE",
"112 334 CURVE SMOOTH",
"144 334 OFFCURVE",
"170 356 OFFCURVE",
"170 392 CURVE SMOOTH",
"170 428 OFFCURVE",
"144 450 OFFCURVE",
"112 450 CURVE SMOOTH"
);
}
);
width = 250;
}
);
leftKerningGroup = semicolon;
note = semicolon;
unicode = 003B;
},
{
glyphname = less;
lastChange = "2017-06-09 11:42:18 +0000";
layers = (
{
layerId = "167B0F81-32A7-4481-94FC-A22177A24047";
paths = (
{
closed = 1;
nodes = (
"130 235 LINE",
"535 415 LINE",
"535 470 LINE",
"65 263 LINE",
"65 207 LINE",
"535 0 LINE",
"535 55 LINE"
);
}
);
width = 600;
}
);
note = less;
unicode = 003C;
},
{
glyphname = equal;
lastChange = "2017-06-09 11:42:18 +0000";
layers = (
{
layerId = "167B0F81-32A7-4481-94FC-A22177A24047";
paths = (
{
closed = 1;
nodes = (
"65 355 LINE",
"65 299 LINE",
"535 299 LINE",
"535 355 LINE"
);
},
{
closed = 1;
nodes = (
"65 171 LINE",
"65 115 LINE",
"535 115 LINE",
"535 171 LINE"
);
}
);
width = 600;
}
);
note = equal;
unicode = 003D;
},
{
glyphname = greater;
lastChange = "2017-06-09 11:42:18 +0000";
layers = (
{
layerId = "167B0F81-32A7-4481-94FC-A22177A24047";
paths = (
{
closed = 1;
nodes = (
"535 207 LINE",
"535 263 LINE",
"65 470 LINE",
"65 415 LINE",
"470 235 LINE",
"65 55 LINE",
"65 0 LINE"
);
}
);
width = 600;
}
);
note = greater;
unicode = 003E;
},
{
glyphname = question;
lastChange = "2017-06-09 11:42:18 +0000";
layers = (
{
layerId = "167B0F81-32A7-4481-94FC-A22177A24047";
paths = (
{
closed = 1;
nodes = (
"222 261 OFFCURVE",
"229 303 OFFCURVE",
"247 321 CURVE SMOOTH",
"303 377 OFFCURVE",
"416 446 OFFCURVE",
"416 532 CURVE SMOOTH",
"416 642 OFFCURVE",
"311 688 OFFCURVE",
"216 688 CURVE SMOOTH",
"136 688 OFFCURVE",
"38 631 OFFCURVE",
"38 543 CURVE SMOOTH",
"38 497 OFFCURVE",
"57 460 OFFCURVE",
"106 460 CURVE SMOOTH",
"135 460 OFFCURVE",
"160 485 OFFCURVE",
"160 515 CURVE SMOOTH",
"160 545 OFFCURVE",
"140 566 OFFCURVE",
"108 566 CURVE SMOOTH",
"96 566 OFFCURVE",
"88 564 OFFCURVE",
"80 562 CURVE",
"80 621 OFFCURVE",
"144 654 OFFCURVE",
"197 654 CURVE SMOOTH",
"273 654 OFFCURVE",
"322 596 OFFCURVE",
"322 523 CURVE SMOOTH",
"322 394 OFFCURVE",
"190 388 OFFCURVE",
"190 268 CURVE SMOOTH",
"190 204 LINE",
"222 204 LINE"
);
},
{
closed = 1;
nodes = (
"180 110 OFFCURVE",
"154 88 OFFCURVE",
"154 52 CURVE SMOOTH",
"154 16 OFFCURVE",
"180 -6 OFFCURVE",
"212 -6 CURVE SMOOTH",
"244 -6 OFFCURVE",
"270 16 OFFCURVE",
"270 52 CURVE SMOOTH",
"270 88 OFFCURVE",
"244 110 OFFCURVE",
"212 110 CURVE SMOOTH"
);
}
);
width = 444;
}
);
note = question;
unicode = 003F;
},
{
glyphname = at;
lastChange = "2017-06-09 11:42:18 +0000";
layers = (
{
layerId = "167B0F81-32A7-4481-94FC-A22177A24047";
paths = (
{
closed = 1;
nodes = (
"514 300 OFFCURVE",
"440 194 OFFCURVE",
"381 194 CURVE SMOOTH",
"348 194 OFFCURVE",
"323 226 OFFCURVE",
"323 274 CURVE SMOOTH",
"323 393 OFFCURVE",
"407 484 OFFCURVE",
"462 484 CURVE SMOOTH",
"500 484 OFFCURVE",
"514 460 OFFCURVE",
"514 422 CURVE SMOOTH"
);
},
{
closed = 1;
nodes = (
"517 497 OFFCURVE",
"500 526 OFFCURVE",
"454 526 CURVE SMOOTH",
"330 526 OFFCURVE",
"253 367 OFFCURVE",
"253 271 CURVE SMOOTH",
"253 198 OFFCURVE",
"298 150 OFFCURVE",
"345 150 CURVE SMOOTH",
"412 150 OFFCURVE",
"443 189 OFFCURVE",
"471 223 CURVE",
"473 223 LINE",
"480 192 OFFCURVE",
"506 150 OFFCURVE",
"566 150 CURVE SMOOTH",
"689 150 OFFCURVE",
"757 291 OFFCURVE",
"757 396 CURVE SMOOTH",
"757 570 OFFCURVE",
"609 700 OFFCURVE",
"418 700 CURVE SMOOTH",
"215 700 OFFCURVE",
"42 551 OFFCURVE",
"42 328 CURVE SMOOTH",
"42 190 OFFCURVE",
"160 -12 OFFCURVE",
"429 -12 CURVE SMOOTH",
"510 -12 OFFCURVE",
"579 17 OFFCURVE",
"646 46 CURVE",
"633 73 LINE",
"574 46 OFFCURVE",
"519 22 OFFCURVE",
"428 22 CURVE SMOOTH",
"240 22 OFFCURVE",
"122 170 OFFCURVE",
"122 317 CURVE SMOOTH",
"122 544 OFFCURVE",
"253 666 OFFCURVE",
"418 666 CURVE SMOOTH",
"612 666 OFFCURVE",
"723 511 OFFCURVE",
"723 395 CURVE SMOOTH",
"723 305 OFFCURVE",
"672 184 OFFCURVE",
"581 184 CURVE SMOOTH",
"551 184 OFFCURVE",
"539 202 OFFCURVE",
"539 220 CURVE SMOOTH",
"539 231 OFFCURVE",
"541 242 OFFCURVE",
"543 251 CURVE",
"611 512 LINE",
"541 512 LINE",
"530 472 LINE"
);
}
);
width = 800;
}
);
note = at;
unicode = 0040;
},
{
glyphname = A;
lastChange = "2017-06-09 11:42:18 +0000";
layers = (
{
layerId = "167B0F81-32A7-4481-94FC-A22177A24047";
paths = (
{
closed = 1;
nodes = (
"249 34 LINE",
"163 34 OFFCURVE",
"143 48 OFFCURVE",
"143 86 CURVE SMOOTH",
"143 114 OFFCURVE",
"172 174 OFFCURVE",
"189 230 CURVE",
"425 230 LINE",
"452 172 OFFCURVE",
"481 92 OFFCURVE",
"481 71 CURVE SMOOTH",
"481 42 OFFCURVE",
"477 34 OFFCURVE",
"402 34 CURVE",
"402 0 LINE",
"680 0 LINE",
"680 34 LINE",
"622 34 OFFCURVE",
"599 52 OFFCURVE",
"569 129 CURVE SMOOTH",
"350 692 LINE",
"314 692 LINE",
"112 140 LINE SMOOTH",
"90 79 OFFCURVE",
"69 34 OFFCURVE",
"-12 34 CURVE",
"-12 0 LINE",
"249 0 LINE"
);
},
{
closed = 1;
nodes = (
"303 535 LINE",
"409 272 LINE",
"203 272 LINE"
);
}
);
width = 667;
}
);
leftKerningGroup = A;
note = A;
rightKerningGroup = A;
unicode = 0041;
},
{
glyphname = B;
lastChange = "2017-06-09 11:42:18 +0000";
layers = (
{
layerId = "167B0F81-32A7-4481-94FC-A22177A24047";
paths = (
{
closed = 1;
nodes = (
"117 52 OFFCURVE",
"100 34 OFFCURVE",
"25 34 CURVE",
"25 0 LINE",
"406 0 LINE SMOOTH",
"575 0 OFFCURVE",
"634 124 OFFCURVE",
"634 188 CURVE SMOOTH",
"634 294 OFFCURVE",
"552 360 OFFCURVE",
"404 365 CURVE",
"404 367 LINE",
"510 367 OFFCURVE",
"600 430 OFFCURVE",
"600 518 CURVE SMOOTH",
"600 600 OFFCURVE",
"538 688 OFFCURVE",
"348 688 CURVE SMOOTH",
"25 688 LINE",
"25 654 LINE",
"100 654 OFFCURVE",
"117 636 OFFCURVE",
"117 588 CURVE SMOOTH",
"117 100 LINE SMOOTH"
);
},
{
closed = 1;
nodes = (
"476 344 OFFCURVE",
"518 282 OFFCURVE",
"518 188 CURVE SMOOTH",
"518 89 OFFCURVE",
"474 34 OFFCURVE",
"322 34 CURVE SMOOTH",
"238 34 OFFCURVE",
"219 51 OFFCURVE",
"219 103 CURVE SMOOTH",
"219 344 LINE",
"378 344 LINE SMOOTH"
);
},
{
closed = 1;
nodes = (
"219 604 LINE SMOOTH",
"219 632 OFFCURVE",
"228 654 OFFCURVE",
"310 654 CURVE SMOOTH",
"432 654 OFFCURVE",
"484 614 OFFCURVE",
"484 510 CURVE SMOOTH",
"484 432 OFFCURVE",
"452 378 OFFCURVE",
"318 378 CURVE SMOOTH",
"219 378 LINE"
);
}
);
width = 667;
}
);
note = B;
unicode = 0042;
},
{
glyphname = C;
lastChange = "2017-06-09 11:42:18 +0000";
layers = (
{
layerId = "167B0F81-32A7-4481-94FC-A22177A24047";
paths = (
{
closed = 1;
nodes = (
"572 664 OFFCURVE",
"555 644 OFFCURVE",
"537 644 CURVE SMOOTH",
"520 644 OFFCURVE",
"448 700 OFFCURVE",
"359 700 CURVE SMOOTH",
"177 700 OFFCURVE",
"43 529 OFFCURVE",
"43 344 CURVE SMOOTH",
"43 159 OFFCURVE",
"177 -12 OFFCURVE",
"348 -12 CURVE SMOOTH",
"536 -12 OFFCURVE",
"614 96 OFFCURVE",
"623 260 CURVE",
"595 260 LINE",
"583 127 OFFCURVE",
"525 22 OFFCURVE",
"366 22 CURVE SMOOTH",
"279 22 OFFCURVE",
"159 104 OFFCURVE",
"159 344 CURVE SMOOTH",
"159 561 OFFCURVE",
"225 666 OFFCURVE",
"369 666 CURVE SMOOTH",
"497 666 OFFCURVE",
"544 557 OFFCURVE",
"575 446 CURVE",
"602 446 LINE",
"602 682 LINE",
"578 682 LINE"
);
}
);
width = 667;
}
);
note = C;
unicode = 0043;
},
{
glyphname = D;
lastChange = "2017-06-09 11:42:18 +0000";
layers = (
{
layerId = "167B0F81-32A7-4481-94FC-A22177A24047";
paths = (
{
closed = 1;
nodes = (
"226 640 OFFCURVE",
"241 654 OFFCURVE",
"330 654 CURVE SMOOTH",
"486 654 OFFCURVE",
"564 584 OFFCURVE",
"564 343 CURVE SMOOTH",
"564 156 OFFCURVE",
"528 34 OFFCURVE",
"330 34 CURVE SMOOTH",
"241 34 OFFCURVE",
"226 48 OFFCURVE",
"226 106 CURVE SMOOTH",
"226 582 LINE SMOOTH"
);
},
{
closed = 1;
nodes = (
"107 654 OFFCURVE",
"124 636 OFFCURVE",
"124 588 CURVE SMOOTH",
"124 100 LINE SMOOTH",
"124 52 OFFCURVE",
"107 34 OFFCURVE",
"30 34 CURVE",
"30 0 LINE",
"362 0 LINE SMOOTH",
"504 0 OFFCURVE",
"680 110 OFFCURVE",
"680 344 CURVE SMOOTH",
"680 578 OFFCURVE",
"502 688 OFFCURVE",
"354 688 CURVE SMOOTH",
"30 688 LINE",
"30 654 LINE"
);
}
);
width = 722;
}
);
note = D;
unicode = 0044;
},
{
glyphname = E;
lastChange = "2017-06-09 11:42:18 +0000";
layers = (
{
layerId = "167B0F81-32A7-4481-94FC-A22177A24047";
paths = (
{
closed = 1;
nodes = (
"588 257 LINE",
"544 64 OFFCURVE",
"440 34 OFFCURVE",
"306 34 CURVE SMOOTH",
"245 34 OFFCURVE",
"224 46 OFFCURVE",
"224 78 CURVE SMOOTH",
"224 342 LINE",
"329 340 OFFCURVE",
"374 330 OFFCURVE",
"390 222 CURVE",
"418 222 LINE",
"418 498 LINE",
"390 497 LINE",
"374 388 OFFCURVE",
"329 378 OFFCURVE",
"224 376 CURVE",
"224 588 LINE SMOOTH",
"224 638 OFFCURVE",
"274 654 OFFCURVE",
"333 654 CURVE SMOOTH",
"466 654 OFFCURVE",
"522 594 OFFCURVE",
"570 442 CURVE",
"601 442 LINE",
"595 688 LINE",
"29 688 LINE",
"29 654 LINE",
"105 654 OFFCURVE",
"122 636 OFFCURVE",
"122 588 CURVE SMOOTH",
"122 100 LINE SMOOTH",
"122 52 OFFCURVE",
"105 34 OFFCURVE",
"29 34 CURVE",
"29 0 LINE",
"613 0 LINE",
"619 257 LINE"
);
}
);
width = 667;
}
);
note = E;
unicode = 0045;
},
{
glyphname = F;
lastChange = "2017-06-09 11:42:18 +0000";
layers = (
{
layerId = "167B0F81-32A7-4481-94FC-A22177A24047";
paths = (
{
closed = 1;
nodes = (
"604 688 LINE",
"28 688 LINE",
"28 654 LINE",
"103 654 OFFCURVE",
"120 636 OFFCURVE",
"120 588 CURVE SMOOTH",
"120 100 LINE SMOOTH",
"120 52 OFFCURVE",
"103 34 OFFCURVE",
"28 34 CURVE",
"28 0 LINE",
"332 0 LINE",
"332 34 LINE",
"241 34 OFFCURVE",
"222 52 OFFCURVE",
"222 100 CURVE SMOOTH",
"222 344 LINE",
"330 342 OFFCURVE",
"369 332 OFFCURVE",
"403 215 CURVE",
"431 215 LINE",
"431 506 LINE",
"403 506 LINE",
"369 390 OFFCURVE",
"330 380 OFFCURVE",
"222 378 CURVE",
"222 588 LINE SMOOTH",
"222 636 OFFCURVE",
"242 654 OFFCURVE",
"340 654 CURVE SMOOTH",
"488 654 OFFCURVE",
"550 586 OFFCURVE",
"579 446 CURVE",
"610 446 LINE"
);
}
);
width = 611;
}
);
note = F;
rightKerningGroup = F;
unicode = 0046;
},
{
glyphname = G;
lastChange = "2017-06-09 11:42:18 +0000";
layers = (
{
layerId = "167B0F81-32A7-4481-94FC-A22177A24047";
paths = (
{
closed = 1;
nodes = (
"391 290 LINE",
"481 290 OFFCURVE",
"508 268 OFFCURVE",
"508 189 CURVE SMOOTH",
"508 82 OFFCURVE",
"474 22 OFFCURVE",
"360 22 CURVE SMOOTH",
"252 22 OFFCURVE",
"158 107 OFFCURVE",
"158 326 CURVE SMOOTH",
"158 509 OFFCURVE",
"194 666 OFFCURVE",
"362 666 CURVE SMOOTH",
"488 666 OFFCURVE",
"551 559 OFFCURVE",
"569 446 CURVE",
"597 446 LINE",
"597 678 LINE",
"565 678 LINE",
"558 664 OFFCURVE",
"550 650 OFFCURVE",
"534 650 CURVE SMOOTH",
"496 650 OFFCURVE",
"474 700 OFFCURVE",
"356 700 CURVE SMOOTH",
"186 700 OFFCURVE",
"42 542 OFFCURVE",
"42 328 CURVE SMOOTH",
"42 169 OFFCURVE",
"171 -12 OFFCURVE",
"357 -12 CURVE SMOOTH",
"468 -12 OFFCURVE",
"516 48 OFFCURVE",
"536 48 CURVE SMOOTH",
"548 48 OFFCURVE",
"558 23 OFFCURVE",
"572 0 CURVE",
"606 0 LINE",
"606 226 LINE SMOOTH",
"606 273 OFFCURVE",
"623 290 OFFCURVE",
"699 290 CURVE",
"699 324 LINE",
"391 324 LINE"
);
}
);
width = 722;
}
);
note = G;
unicode = 0047;
},
{
glyphname = H;
lastChange = "2017-06-09 11:42:18 +0000";
layers = (
{
layerId = "167B0F81-32A7-4481-94FC-A22177A24047";
paths = (
{
closed = 1;
nodes = (
"312 34 LINE",
"229 34 OFFCURVE",
"212 52 OFFCURVE",
"212 100 CURVE SMOOTH",
"212 344 LINE",
"508 344 LINE",
"508 100 LINE SMOOTH",
"508 52 OFFCURVE",
"491 34 OFFCURVE",
"416 34 CURVE",
"416 0 LINE",
"704 0 LINE",
"704 34 LINE",
"627 34 OFFCURVE",
"610 52 OFFCURVE",
"610 100 CURVE SMOOTH",
"610 588 LINE SMOOTH",
"610 636 OFFCURVE",
"627 654 OFFCURVE",
"700 654 CURVE",
"700 688 LINE",
"414 688 LINE",
"414 654 LINE",
"491 654 OFFCURVE",
"508 636 OFFCURVE",
"508 588 CURVE SMOOTH",
"508 378 LINE",
"212 378 LINE",
"212 588 LINE SMOOTH",
"212 636 OFFCURVE",
"229 654 OFFCURVE",
"310 654 CURVE",
"310 688 LINE",
"18 688 LINE",
"18 654 LINE",
"93 654 OFFCURVE",
"110 636 OFFCURVE",
"110 588 CURVE SMOOTH",
"110 100 LINE SMOOTH",
"110 52 OFFCURVE",
"93 34 OFFCURVE",
"18 34 CURVE",
"18 0 LINE",
"312 0 LINE"
);
}
);
width = 722;
}
);
note = H;
unicode = 0048;
},
{
glyphname = I;
lastChange = "2017-06-09 11:42:18 +0000";
layers = (
{
layerId = "167B0F81-32A7-4481-94FC-A22177A24047";
paths = (
{
closed = 1;
nodes = (
"19 654 LINE",
"98 654 OFFCURVE",
"115 636 OFFCURVE",
"115 588 CURVE SMOOTH",
"115 100 LINE SMOOTH",
"115 52 OFFCURVE",
"98 34 OFFCURVE",
"19 34 CURVE",
"19 0 LINE",
"313 0 LINE",
"313 34 LINE",
"234 34 OFFCURVE",
"217 52 OFFCURVE",
"217 100 CURVE SMOOTH",
"217 588 LINE SMOOTH",
"217 636 OFFCURVE",
"234 654 OFFCURVE",
"313 654 CURVE",
"313 688 LINE",
"19 688 LINE"
);
}
);
width = 333;
}
);
note = I;
unicode = 0049;
},
{
glyphname = J;
lastChange = "2017-06-09 11:42:18 +0000";
layers = (
{
layerId = "167B0F81-32A7-4481-94FC-A22177A24047";
paths = (
{
closed = 1;
nodes = (
"142 654 LINE",
"223 654 OFFCURVE",
"240 636 OFFCURVE",
"240 588 CURVE SMOOTH",
"240 137 LINE SMOOTH",
"240 63 OFFCURVE",
"202 22 OFFCURVE",
"127 22 CURVE SMOOTH",
"89 22 OFFCURVE",
"30 51 OFFCURVE",
"26 94 CURVE",
"35 90 OFFCURVE",
"49 88 OFFCURVE",
"65 88 CURVE SMOOTH",
"93 88 OFFCURVE",
"119 112 OFFCURVE",
"119 147 CURVE SMOOTH",
"119 190 OFFCURVE",
"96 206 OFFCURVE",
"51 206 CURVE SMOOTH",
"9 206 OFFCURVE",
"-16 164 OFFCURVE",
"-16 123 CURVE SMOOTH",
"-16 52 OFFCURVE",
"38 -12 OFFCURVE",
"137 -12 CURVE SMOOTH",
"274 -12 OFFCURVE",
"342 48 OFFCURVE",
"342 153 CURVE SMOOTH",
"342 588 LINE SMOOTH",
"342 636 OFFCURVE",
"359 654 OFFCURVE",
"440 654 CURVE",
"440 688 LINE",
"142 688 LINE"
);
}
);
width = 444;
}
);
note = J;
unicode = 004A;
},
{
glyphname = K;
lastChange = "2017-06-09 11:42:18 +0000";
layers = (
{
layerId = "167B0F81-32A7-4481-94FC-A22177A24047";
paths = (
{
closed = 1;
nodes = (
"134 52 OFFCURVE",
"117 34 OFFCURVE",
"38 34 CURVE",
"38 0 LINE",
"322 0 LINE",
"322 34 LINE",
"253 34 OFFCURVE",
"236 52 OFFCURVE",
"236 100 CURVE SMOOTH",
"236 253 LINE",
"311 336 LINE",
"431 139 LINE SMOOTH",
"450 107 OFFCURVE",
"472 85 OFFCURVE",
"472 56 CURVE SMOOTH",
"472 38 OFFCURVE",
"444 34 OFFCURVE",
"405 34 CURVE",
"405 0 LINE",
"680 0 LINE",
"680 34 LINE",
"615 34 OFFCURVE",
"597 55 OFFCURVE",
"569 101 CURVE SMOOTH",
"376 414 LINE",
"534 584 LINE SMOOTH",
"567 620 OFFCURVE",
"601 654 OFFCURVE",
"666 654 CURVE",
"666 688 LINE",
"414 688 LINE",
"414 654 LINE",
"469 654 OFFCURVE",
"496 648 OFFCURVE",
"496 629 CURVE SMOOTH",
"496 602 OFFCURVE",
"481 584 OFFCURVE",
"452 552 CURVE SMOOTH",
"236 308 LINE",
"236 588 LINE SMOOTH",
"236 636 OFFCURVE",
"253 654 OFFCURVE",
"322 654 CURVE",
"322 688 LINE",
"38 688 LINE",
"38 654 LINE",
"117 654 OFFCURVE",
"134 636 OFFCURVE",
"134 588 CURVE SMOOTH",
"134 100 LINE SMOOTH"
);
}
);
width = 667;
}
);
note = K;
unicode = 004B;
},
{
glyphname = L;
lastChange = "2017-06-09 11:42:18 +0000";
layers = (
{
layerId = "167B0F81-32A7-4481-94FC-A22177A24047";
paths = (
{
closed = 1;
nodes = (
"516 257 LINE",
"472 64 OFFCURVE",
"368 34 OFFCURVE",
"282 34 CURVE SMOOTH",
"231 34 OFFCURVE",
"209 52 OFFCURVE",
"209 100 CURVE SMOOTH",
"209 588 LINE SMOOTH",
"209 636 OFFCURVE",
"226 654 OFFCURVE",
"305 654 CURVE",
"305 688 LINE",
"19 688 LINE",
"19 654 LINE",
"90 654 OFFCURVE",
"107 636 OFFCURVE",
"107 588 CURVE SMOOTH",
"107 100 LINE SMOOTH",
"107 52 OFFCURVE",
"90 34 OFFCURVE",
"17 34 CURVE",
"17 0 LINE",
"541 0 LINE",
"547 257 LINE"
);
}
);
width = 556;
}
);
note = L;
rightKerningGroup = L;
unicode = 004C;
},
{
glyphname = M;
lastChange = "2017-06-09 11:42:18 +0000";
layers = (
{
layerId = "167B0F81-32A7-4481-94FC-A22177A24047";
paths = (
{
closed = 1;
nodes = (
"418 176 LINE",
"416 176 LINE",
"253 688 LINE",
"18 688 LINE",
"18 654 LINE",
"99 654 OFFCURVE",
"116 636 OFFCURVE",
"116 588 CURVE SMOOTH",
"116 150 LINE SMOOTH",
"116 64 OFFCURVE",
"99 34 OFFCURVE",
"18 34 CURVE",
"18 0 LINE",
"258 0 LINE",
"258 34 LINE",
"175 34 OFFCURVE",
"158 64 OFFCURVE",
"158 150 CURVE SMOOTH",
"158 646 LINE",
"160 646 LINE",
"365 0 LINE",
"400 0 LINE",
"613 650 LINE",
"615 650 LINE",
"615 100 LINE SMOOTH",
"615 52 OFFCURVE",
"598 34 OFFCURVE",
"525 34 CURVE",
"525 0 LINE",
"815 0 LINE",
"815 34 LINE",
"734 34 OFFCURVE",
"717 52 OFFCURVE",
"717 100 CURVE SMOOTH",
"717 588 LINE SMOOTH",
"717 636 OFFCURVE",
"734 654 OFFCURVE",
"806 654 CURVE",
"806 688 LINE",
"585 688 LINE"
);
}
);
width = 833;
}
);
note = M;
unicode = 004D;
},
{
glyphname = N;
lastChange = "2017-06-09 11:42:18 +0000";
layers = (
{
layerId = "167B0F81-32A7-4481-94FC-A22177A24047";
paths = (
{
closed = 1;
nodes = (
"29 654 LINE",
"80 654 OFFCURVE",
"98 650 OFFCURVE",
"130 613 CURVE",
"130 100 LINE SMOOTH",
"130 52 OFFCURVE",
"113 34 OFFCURVE",
"31 34 CURVE",
"31 0 LINE",
"277 0 LINE",
"277 34 LINE",
"189 34 OFFCURVE",
"172 52 OFFCURVE",
"172 100 CURVE SMOOTH",
"172 550 LINE",
"174 550 LINE",
"567 -6 LINE",
"606 -6 LINE",
"606 588 LINE SMOOTH",
"606 636 OFFCURVE",
"623 654 OFFCURVE",
"693 654 CURVE",
"693 688 LINE",
"465 688 LINE",
"465 654 LINE",
"547 654 OFFCURVE",
"564 636 OFFCURVE",
"564 588 CURVE SMOOTH",
"564 173 LINE",
"562 173 LINE",
"202 688 LINE",
"29 688 LINE"
);
}
);
width = 722;
}
);
note = N;
unicode = 004E;
},
{
glyphname = O;
lastChange = "2017-06-09 11:42:18 +0000";
layers = (
{
layerId = "167B0F81-32A7-4481-94FC-A22177A24047";
paths = (
{
closed = 1;
nodes = (
"169 700 OFFCURVE",
"35 529 OFFCURVE",
"35 344 CURVE SMOOTH",
"35 159 OFFCURVE",
"169 -12 OFFCURVE",
"361 -12 CURVE SMOOTH",
"553 -12 OFFCURVE",
"687 159 OFFCURVE",
"687 344 CURVE SMOOTH",
"687 529 OFFCURVE",
"553 700 OFFCURVE",
"361 700 CURVE SMOOTH"
);
},
{
closed = 1;
nodes = (
"505 666 OFFCURVE",
"571 561 OFFCURVE",
"571 344 CURVE SMOOTH",
"571 127 OFFCURVE",
"505 22 OFFCURVE",
"361 22 CURVE SMOOTH",
"217 22 OFFCURVE",
"151 127 OFFCURVE",
"151 344 CURVE SMOOTH",
"151 561 OFFCURVE",
"217 666 OFFCURVE",
"361 666 CURVE SMOOTH"
);
}
);
width = 722;
}
);
note = O;
unicode = 004F;
},
{
glyphname = P;
lastChange = "2017-06-09 11:42:18 +0000";
layers = (
{
layerId = "167B0F81-32A7-4481-94FC-A22177A24047";
paths = (
{
closed = 1;
nodes = (
"223 582 LINE SMOOTH",
"223 634 OFFCURVE",
"250 654 OFFCURVE",
"334 654 CURVE SMOOTH",
"436 654 OFFCURVE",
"482 596 OFFCURVE",
"482 497 CURVE SMOOTH",
"482 390 OFFCURVE",
"436 350 OFFCURVE",
"344 350 CURVE SMOOTH",
"223 350 LINE"
);
},
{
closed = 1;
nodes = (
"319 0 LINE",
"319 34 LINE",
"240 34 OFFCURVE",
"223 52 OFFCURVE",
"223 100 CURVE SMOOTH",
"223 316 LINE",
"374 316 LINE SMOOTH",
"511 316 OFFCURVE",
"598 390 OFFCURVE",
"598 506 CURVE SMOOTH",
"598 584 OFFCURVE",
"541 688 OFFCURVE",
"364 688 CURVE SMOOTH",
"31 688 LINE",
"31 654 LINE",
"104 654 OFFCURVE",
"121 636 OFFCURVE",
"121 588 CURVE SMOOTH",
"121 100 LINE SMOOTH",
"121 52 OFFCURVE",
"104 34 OFFCURVE",
"25 34 CURVE",
"25 0 LINE"
);
}
);
width = 611;
}
);
note = P;
rightKerningGroup = P;
unicode = 0050;
},
{
glyphname = Q;
lastChange = "2017-06-09 11:42:18 +0000";
layers = (
{
layerId = "167B0F81-32A7-4481-94FC-A22177A24047";
paths = (
{
closed = 1;
nodes = (
"399 178 OFFCURVE",
"431 144 OFFCURVE",
"431 100 CURVE SMOOTH",
"431 76 OFFCURVE",
"427 54 OFFCURVE",
"419 31 CURVE",
"404 25 OFFCURVE",
"388 22 OFFCURVE",
"372 22 CURVE SMOOTH",
"325 22 OFFCURVE",
"282 56 OFFCURVE",
"282 105 CURVE SMOOTH",
"282 145 OFFCURVE",
"306 178 OFFCURVE",
"351 178 CURVE SMOOTH"
);
},
{
closed = 1;
nodes = (
"651 -17 OFFCURVE",
"630 -72 OFFCURVE",
"579 -72 CURVE SMOOTH",
"526 -72 OFFCURVE",
"513 -16 OFFCURVE",
"506 26 CURVE",
"617 84 OFFCURVE",
"687 210 OFFCURVE",
"687 344 CURVE SMOOTH",
"687 529 OFFCURVE",
"553 700 OFFCURVE",
"361 700 CURVE SMOOTH",
"169 700 OFFCURVE",
"35 529 OFFCURVE",
"35 344 CURVE SMOOTH",
"35 159 OFFCURVE",
"169 -12 OFFCURVE",
"361 -12 CURVE SMOOTH",
"372 -12 OFFCURVE",
"379 -11 OFFCURVE",
"387 -11 CURVE",
"395 -10 OFFCURVE",
"404 -8 OFFCURVE",
"416 -7 CURVE",
"415 -14 OFFCURVE",
"414 -20 OFFCURVE",
"414 -28 CURVE SMOOTH",
"414 -97 OFFCURVE",
"467 -142 OFFCURVE",
"534 -142 CURVE SMOOTH",
"637 -142 OFFCURVE",
"685 -72 OFFCURVE",
"685 26 CURVE",
"657 26 LINE"
);
},
{
closed = 1;
nodes = (
"505 666 OFFCURVE",
"571 561 OFFCURVE",
"571 344 CURVE SMOOTH",
"571 207 OFFCURVE",
"545 113 OFFCURVE",
"494 67 CURVE",
"471 157 OFFCURVE",
"437 212 OFFCURVE",
"354 212 CURVE SMOOTH",
"297 212 OFFCURVE",
"244 178 OFFCURVE",
"244 116 CURVE SMOOTH",
"244 72 OFFCURVE",
"265 47 OFFCURVE",
"280 34 CURVE",
"278 32 LINE",
"191 69 OFFCURVE",
"151 173 OFFCURVE",
"151 344 CURVE SMOOTH",
"151 561 OFFCURVE",
"217 666 OFFCURVE",
"361 666 CURVE SMOOTH"
);
}
);
width = 722;
}
);
note = Q;
unicode = 0051;
},
{
glyphname = R;
lastChange = "2017-06-09 11:42:18 +0000";
layers = (
{
layerId = "167B0F81-32A7-4481-94FC-A22177A24047";
paths = (
{
closed = 1;
nodes = (
"622 111 OFFCURVE",
"612 64 OFFCURVE",
"585 64 CURVE SMOOTH",
"500 64 OFFCURVE",
"561 308 OFFCURVE",
"368 339 CURVE",
"368 341 LINE",
"485 341 OFFCURVE",
"607 390 OFFCURVE",
"607 516 CURVE SMOOTH",
"607 584 OFFCURVE",
"556 688 OFFCURVE",
"391 688 CURVE SMOOTH",
"30 688 LINE",
"30 654 LINE",
"106 654 OFFCURVE",
"123 636 OFFCURVE",
"123 588 CURVE SMOOTH",
"123 100 LINE SMOOTH",
"123 52 OFFCURVE",
"106 34 OFFCURVE",
"30 34 CURVE",
"30 0 LINE",
"324 0 LINE",
"324 34 LINE",
"242 34 OFFCURVE",
"225 52 OFFCURVE",
"225 100 CURVE SMOOTH",
"225 334 LINE",
"264 334 LINE SMOOTH",
"370 334 OFFCURVE",
"418 312 OFFCURVE",
"418 152 CURVE SMOOTH",
"418 60 OFFCURVE",
"456 -6 OFFCURVE",
"531 -6 CURVE SMOOTH",
"623 -6 OFFCURVE",
"650 62 OFFCURVE",
"650 144 CURVE",
"622 144 LINE"
);
},
{
closed = 1;
nodes = (
"225 637 OFFCURVE",
"252 654 OFFCURVE",
"338 654 CURVE SMOOTH",
"456 654 OFFCURVE",
"499 593 OFFCURVE",
"499 502 CURVE SMOOTH",
"499 397 OFFCURVE",
"430 368 OFFCURVE",
"340 368 CURVE SMOOTH",
"294 368 OFFCURVE",
"254 369 OFFCURVE",
"225 370 CURVE",
"225 596 LINE SMOOTH"
);
}
);
width = 667;
}
);
note = R;
rightKerningGroup = R;
unicode = 0052;
},
{
glyphname = S;
lastChange = "2017-06-09 11:42:18 +0000";
layers = (
{
layerId = "167B0F81-32A7-4481-94FC-A22177A24047";
paths = (
{
closed = 1;
nodes = (
"73 -6 LINE",
"85 19 OFFCURVE",
"94 40 OFFCURVE",
"120 40 CURVE SMOOTH",
"158 40 OFFCURVE",
"194 -12 OFFCURVE",
"288 -12 CURVE SMOOTH",
"421 -12 OFFCURVE",
"528 72 OFFCURVE",
"528 211 CURVE SMOOTH",
"528 457 OFFCURVE",
"128 354 OFFCURVE",
"128 545 CURVE SMOOTH",
"128 625 OFFCURVE",
"185 666 OFFCURVE",
"261 666 CURVE SMOOTH",
"377 666 OFFCURVE",
"434 555 OFFCURVE",
"460 456 CURVE",
"488 456 LINE",
"488 688 LINE",
"454 688 LINE",
"451 678 OFFCURVE",
"438 642 OFFCURVE",
"423 642 CURVE SMOOTH",
"399 642 OFFCURVE",
"351 700 OFFCURVE",
"260 700 CURVE SMOOTH",
"153 700 OFFCURVE",
"46 630 OFFCURVE",
"46 510 CURVE SMOOTH",
"46 244 OFFCURVE",
"446 377 OFFCURVE",
"446 152 CURVE SMOOTH",
"446 71 OFFCURVE",
"372 22 OFFCURVE",
"297 22 CURVE SMOOTH",
"172 22 OFFCURVE",
"92 142 OFFCURVE",
"73 254 CURVE",
"45 254 LINE",
"45 -6 LINE"
);
}
);
width = 556;
}
);
note = S;
unicode = 0053;
},
{
glyphname = T;
lastChange = "2017-06-09 11:42:18 +0000";
layers = (
{
layerId = "167B0F81-32A7-4481-94FC-A22177A24047";
paths = (
{
closed = 1;
nodes = (
"589 688 LINE",
"305 688 LINE",
"21 688 LINE",
"15 452 LINE",
"46 452 LINE",
"67 578 OFFCURVE",
"113 654 OFFCURVE",
"254 654 CURVE",
"254 100 LINE SMOOTH",
"254 52 OFFCURVE",
"237 34 OFFCURVE",
"158 34 CURVE",
"158 0 LINE",
"452 0 LINE",
"452 34 LINE",
"373 34 OFFCURVE",
"356 52 OFFCURVE",
"356 100 CURVE SMOOTH",
"356 654 LINE",
"497 654 OFFCURVE",
"543 578 OFFCURVE",
"564 452 CURVE",
"595 452 LINE"
);
}
);
width = 611;
}
);
leftKerningGroup = T;
note = T;
rightKerningGroup = T;
unicode = 0054;
},
{
glyphname = U;
lastChange = "2017-06-09 11:42:18 +0000";
layers = (
{
layerId = "167B0F81-32A7-4481-94FC-A22177A24047";
paths = (
{
closed = 1;
nodes = (
"13 688 LINE",
"13 654 LINE",
"92 654 OFFCURVE",
"109 636 OFFCURVE",
"109 588 CURVE SMOOTH",
"109 190 LINE SMOOTH",
"109 50 OFFCURVE",
"208 -12 OFFCURVE",
"362 -12 CURVE SMOOTH",
"506 -12 OFFCURVE",
"611 68 OFFCURVE",
"611 212 CURVE SMOOTH",
"611 558 LINE SMOOTH",
"611 612 OFFCURVE",
"621 654 OFFCURVE",
"709 654 CURVE",
"709 688 LINE",
"468 688 LINE",
"468 654 LINE",
"565 654 OFFCURVE",
"575 612 OFFCURVE",
"575 558 CURVE SMOOTH",
"575 220 LINE SMOOTH",
"575 108 OFFCURVE",
"520 22 OFFCURVE",
"374 22 CURVE SMOOTH",
"264 22 OFFCURVE",
"211 80 OFFCURVE",
"211 187 CURVE SMOOTH",
"211 588 LINE SMOOTH",
"211 636 OFFCURVE",
"228 654 OFFCURVE",
"307 654 CURVE",
"307 688 LINE"
);
}
);
width = 722;
}
);
note = U;
unicode = 0055;
},
{
glyphname = V;
lastChange = "2017-06-09 11:42:18 +0000";
layers = (
{
layerId = "167B0F81-32A7-4481-94FC-A22177A24047";
paths = (
{
closed = 1;
nodes = (
"44 654 OFFCURVE",
"68 645 OFFCURVE",
"90 580 CURVE SMOOTH",
"286 0 LINE",
"328 0 LINE",
"534 590 LINE SMOOTH",
"549 633 OFFCURVE",
"573 654 OFFCURVE",
"620 654 CURVE",
"620 688 LINE",
"408 688 LINE",
"408 654 LINE",
"459 654 OFFCURVE",
"488 649 OFFCURVE",
"488 609 CURVE SMOOTH",
"488 588 OFFCURVE",
"485 567 OFFCURVE",
"478 548 CURVE SMOOTH",
"342 148 LINE",
"340 148 LINE",
"204 535 LINE SMOOTH",
"193 566 OFFCURVE",
"182 592 OFFCURVE",
"182 614 CURVE SMOOTH",
"182 638 OFFCURVE",
"207 654 OFFCURVE",
"271 654 CURVE",
"271 688 LINE",
"-8 688 LINE",
"-8 654 LINE"
);
}
);
width = 611;
}
);
leftKerningGroup = V;
note = V;
rightKerningGroup = V;
unicode = 0056;
},
{
glyphname = W;
lastChange = "2017-06-09 11:42:18 +0000";
layers = (
{
layerId = "167B0F81-32A7-4481-94FC-A22177A24047";
paths = (
{
closed = 1;
nodes = (
"70 654 OFFCURVE",
"80 643 OFFCURVE",
"94 598 CURVE SMOOTH",
"275 0 LINE",
"309 0 LINE",
"449 450 LINE",
"451 450 LINE",
"585 0 LINE",
"619 0 LINE",
"791 551 LINE SMOOTH",
"815 627 OFFCURVE",
"831 654 OFFCURVE",
"892 654 CURVE",
"892 688 LINE",
"671 688 LINE",
"671 654 LINE",
"742 654 OFFCURVE",
"756 644 OFFCURVE",
"756 610 CURVE SMOOTH",
"756 581 OFFCURVE",
"748 553 OFFCURVE",
"742 534 CURVE SMOOTH",
"635 176 LINE",
"633 176 LINE",
"527 530 LINE SMOOTH",
"518 561 OFFCURVE",
"504 592 OFFCURVE",
"504 614 CURVE SMOOTH",
"504 644 OFFCURVE",
"526 654 OFFCURVE",
"581 654 CURVE",
"581 688 LINE",
"326 688 LINE",
"326 654 LINE",
"382 654 OFFCURVE",
"392 644 OFFCURVE",
"402 610 CURVE SMOOTH",
"429 519 LINE",
"326 185 LINE",
"324 185 LINE",
"214 555 LINE SMOOTH",
"208 576 OFFCURVE",
"200 600 OFFCURVE",
"200 616 CURVE SMOOTH",
"200 644 OFFCURVE",
"218 654 OFFCURVE",
"273 654 CURVE",
"273 688 LINE",
"22 688 LINE",
"22 654 LINE"
);
}
);
width = 889;
}
);
leftKerningGroup = W;
note = W;
rightKerningGroup = W;
unicode = 0057;
},
{
glyphname = X;
lastChange = "2017-06-09 11:42:18 +0000";
layers = (
{
layerId = "167B0F81-32A7-4481-94FC-A22177A24047";
paths = (
{
closed = 1;
nodes = (
"204 34 OFFCURVE",
"180 48 OFFCURVE",
"180 72 CURVE SMOOTH",
"180 112 OFFCURVE",
"297 264 OFFCURVE",
"322 306 CURVE",
"343 264 OFFCURVE",
"448 106 OFFCURVE",
"448 71 CURVE SMOOTH",
"448 44 OFFCURVE",
"414 34 OFFCURVE",
"363 34 CURVE",
"363 0 LINE",
"670 0 LINE",
"670 34 LINE",
"620 34 OFFCURVE",
"588 50 OFFCURVE",
"567 85 CURVE SMOOTH",
"383 392 LINE",
"494 555 LINE SMOOTH",
"531 609 OFFCURVE",
"558 654 OFFCURVE",
"643 654 CURVE",
"643 688 LINE",
"403 688 LINE",
"403 654 LINE",
"461 654 OFFCURVE",
"477 646 OFFCURVE",
"477 626 CURVE SMOOTH",
"477 590 OFFCURVE",
"380 462 OFFCURVE",
"361 431 CURVE",
"351 462 OFFCURVE",
"253 590 OFFCURVE",
"253 626 CURVE SMOOTH",
"253 648 OFFCURVE",
"271 654 OFFCURVE",
"326 654 CURVE",
"326 688 LINE",
"23 688 LINE",
"23 654 LINE",
"86 654 OFFCURVE",
"115 647 OFFCURVE",
"138 609 CURVE SMOOTH",
"300 341 LINE",
"139 102 LINE SMOOTH",
"108 56 OFFCURVE",
"75 34 OFFCURVE",
"8 34 CURVE",
"8 0 LINE",
"269 0 LINE",
"269 34 LINE"
);
}
);
width = 667;
}
);
note = X;
unicode = 0058;
},
{
glyphname = Y;
lastChange = "2017-06-09 11:42:18 +0000";
layers = (
{
layerId = "167B0F81-32A7-4481-94FC-A22177A24047";
paths = (
{
closed = 1;
nodes = (
"56 654 OFFCURVE",
"75 646 OFFCURVE",
"102 593 CURVE SMOOTH",
"255 292 LINE",
"255 100 LINE SMOOTH",
"255 52 OFFCURVE",
"238 34 OFFCURVE",
"151 34 CURVE",
"151 0 LINE",
"465 0 LINE",
"465 34 LINE",
"374 34 OFFCURVE",
"357 52 OFFCURVE",
"357 100 CURVE SMOOTH",
"357 292 LINE",
"498 559 LINE SMOOTH",
"535 629 OFFCURVE",
"548 654 OFFCURVE",
"620 654 CURVE",
"620 688 LINE",
"391 688 LINE",
"391 654 LINE",
"454 654 OFFCURVE",
"476 642 OFFCURVE",
"476 621 CURVE SMOOTH",
"476 570 OFFCURVE",
"357 384 OFFCURVE",
"338 342 CURVE",
"321 387 OFFCURVE",
"204 586 OFFCURVE",
"204 620 CURVE SMOOTH",
"204 644 OFFCURVE",
"228 654 OFFCURVE",
"288 654 CURVE",
"288 688 LINE",
"4 688 LINE",
"4 654 LINE"
);
}
);
width = 611;
}
);
leftKerningGroup = Y;
note = Y;
rightKerningGroup = Y;
unicode = 0059;
},
{
glyphname = Z;
lastChange = "2017-06-09 11:42:18 +0000";
layers = (
{
layerId = "167B0F81-32A7-4481-94FC-A22177A24047";
paths = (
{
closed = 1;
nodes = (
"494 257 LINE",
"450 64 OFFCURVE",
"346 34 OFFCURVE",
"219 34 CURVE SMOOTH",
"146 34 LINE",
"514 650 LINE",
"514 688 LINE",
"45 688 LINE",
"39 458 LINE",
"70 458 LINE",
"79 615 OFFCURVE",
"190 654 OFFCURVE",
"331 654 CURVE SMOOTH",
"402 654 LINE",
"22 18 LINE",
"22 0 LINE",
"519 0 LINE",
"525 257 LINE"
);
}
);
width = 556;
}
);
note = Z;
unicode = 005A;
},
{
glyphname = bracketleft;
lastChange = "2017-06-09 11:42:18 +0000";
layers = (
{
layerId = "167B0F81-32A7-4481-94FC-A22177A24047";
paths = (
{
closed = 1;
nodes = (
"276 -186 LINE",
"276 -152 LINE",
"200 -152 OFFCURVE",
"174 -134 OFFCURVE",
"174 -78 CURVE SMOOTH",
"174 576 LINE SMOOTH",
"174 632 OFFCURVE",
"200 650 OFFCURVE",
"276 650 CURVE",
"276 684 LINE",
"100 684 LINE",
"100 -186 LINE"
);
}
);
width = 333;
}
);
note = bracketleft;
unicode = 005B;
},
{
glyphname = backslash;
lastChange = "2017-06-09 11:42:18 +0000";
layers = (
{
layerId = "167B0F81-32A7-4481-94FC-A22177A24047";
paths = (
{
closed = 1;
nodes = (
"31 700 LINE",
"-28 700 LINE",
"247 -12 LINE",
"306 -12 LINE"
);
}
);
width = 278;
}
);
note = backslash;
unicode = 005C;
},
{
glyphname = bracketright;
lastChange = "2017-06-09 11:42:18 +0000";
layers = (
{
layerId = "167B0F81-32A7-4481-94FC-A22177A24047";
paths = (
{
closed = 1;
nodes = (
"57 684 LINE",
"57 650 LINE",
"133 650 OFFCURVE",
"159 632 OFFCURVE",
"159 576 CURVE SMOOTH",
"159 -78 LINE SMOOTH",
"159 -134 OFFCURVE",
"133 -152 OFFCURVE",
"57 -152 CURVE",
"57 -186 LINE",
"233 -186 LINE",
"233 684 LINE"
);
}
);
width = 333;
}
);
note = bracketright;
unicode = 005D;
},
{
glyphname = asciicircum;
lastChange = "2017-06-09 11:42:18 +0000";
layers = (
{
layerId = "167B0F81-32A7-4481-94FC-A22177A24047";
paths = (
{
closed = 1;
nodes = (
"300 630 LINE",
"447 335 LINE",
"509 335 LINE",
"326 700 LINE",
"274 700 LINE",
"91 335 LINE",
"153 335 LINE"
);
}
);
width = 600;
}
);
note = asciicircum;
unicode = 005E;
},
{
glyphname = underscore;
lastChange = "2017-06-09 11:42:18 +0000";
layers = (
{
layerId = "167B0F81-32A7-4481-94FC-A22177A24047";
paths = (
{
closed = 1;
nodes = (
"500 -75 LINE",
"0 -75 LINE",
"0 -125 LINE",
"500 -125 LINE"
);
}
);
width = 500;
}
);
note = underscore;
unicode = 005F;
},
{
glyphname = quoteleft;
lastChange = "2017-06-09 11:42:18 +0000";
layers = (
{
layerId = "167B0F81-32A7-4481-94FC-A22177A24047";
paths = (
{
closed = 1;
nodes = (
"91 669 OFFCURVE",
"46 601 OFFCURVE",
"46 529 CURVE SMOOTH",
"46 478 OFFCURVE",
"84 446 OFFCURVE",
"118 446 CURVE SMOOTH",
"150 446 OFFCURVE",
"176 472 OFFCURVE",
"176 504 CURVE SMOOTH",
"176 546 OFFCURVE",
"145 566 OFFCURVE",
"102 566 CURVE",
"102 612 OFFCURVE",
"114 640 OFFCURVE",
"164 692 CURVE",
"140 716 LINE"
);
}
);
width = 222;
}
);
note = quoteleft;
unicode = 2018;
},
{
glyphname = a;
lastChange = "2017-06-09 11:42:18 +0000";
layers = (
{
layerId = "167B0F81-32A7-4481-94FC-A22177A24047";
paths = (
{
closed = 1;
nodes = (
"486 92 OFFCURVE",
"479 46 OFFCURVE",
"447 46 CURVE SMOOTH",
"428 46 OFFCURVE",
"416 52 OFFCURVE",
"416 102 CURVE SMOOTH",
"416 344 LINE SMOOTH",
"416 450 OFFCURVE",
"352 482 OFFCURVE",
"222 482 CURVE SMOOTH",
"131 482 OFFCURVE",
"52 431 OFFCURVE",
"52 370 CURVE SMOOTH",
"52 340 OFFCURVE",
"76 312 OFFCURVE",
"110 312 CURVE SMOOTH",
"144 312 OFFCURVE",
"168 340 OFFCURVE",
"168 370 CURVE SMOOTH",
"168 398 OFFCURVE",
"152 418 OFFCURVE",
"125 423 CURVE",
"155 442 OFFCURVE",
"184 448 OFFCURVE",
"219 448 CURVE SMOOTH",
"257 448 OFFCURVE",
"322 436 OFFCURVE",
"322 386 CURVE SMOOTH",
"322 293 LINE",
"237 264 OFFCURVE",
"26 218 OFFCURVE",
"26 103 CURVE SMOOTH",
"26 25 OFFCURVE",
"96 -12 OFFCURVE",
"167 -12 CURVE SMOOTH",
"241 -12 OFFCURVE",
"300 10 OFFCURVE",
"328 84 CURVE",
"330 84 LINE",
"338 32 OFFCURVE",
"352 -6 OFFCURVE",
"411 -6 CURVE SMOOTH",
"482 -6 OFFCURVE",
"514 51 OFFCURVE",
"514 116 CURVE",
"486 116 LINE"
);
},
{
closed = 1;
nodes = (
"322 89 OFFCURVE",
"267 30 OFFCURVE",
"204 30 CURVE SMOOTH",
"157 30 OFFCURVE",
"134 62 OFFCURVE",
"134 107 CURVE SMOOTH",
"134 194 OFFCURVE",
"252 244 OFFCURVE",
"322 261 CURVE",
"322 174 LINE SMOOTH"
);
}
);
width = 500;
}
);
leftKerningGroup = a;
note = a;
unicode = 0061;
},
{
glyphname = b;
lastChange = "2017-06-09 11:42:18 +0000";
layers = (
{
layerId = "167B0F81-32A7-4481-94FC-A22177A24047";
paths = (
{
closed = 1;
nodes = (
"412 115 OFFCURVE",
"376 22 OFFCURVE",
"282 22 CURVE SMOOTH",
"201 22 OFFCURVE",
"168 72 OFFCURVE",
"168 186 CURVE SMOOTH",
"168 232 LINE SMOOTH",
"168 358 OFFCURVE",
"214 448 OFFCURVE",
"290 448 CURVE SMOOTH",
"376 448 OFFCURVE",
"412 358 OFFCURVE",
"412 232 CURVE SMOOTH"
);
},
{
closed = 1;
nodes = (
"242 482 OFFCURVE",
"200 452 OFFCURVE",
"170 398 CURVE",
"168 398 LINE",
"168 688 LINE",
"4 682 LINE",
"4 648 LINE",
"56 648 OFFCURVE",
"74 638 OFFCURVE",
"74 606 CURVE SMOOTH",
"74 106 LINE SMOOTH",
"74 68 OFFCURVE",
"68 30 OFFCURVE",
"61 -2 CURVE",
"95 2 LINE",
"102 16 OFFCURVE",
"110 42 OFFCURVE",
"131 42 CURVE SMOOTH",
"155 42 OFFCURVE",
"196 -12 OFFCURVE",
"278 -12 CURVE SMOOTH",
"402 -12 OFFCURVE",
"514 102 OFFCURVE",
"514 241 CURVE SMOOTH",
"514 376 OFFCURVE",
"425 482 OFFCURVE",
"298 482 CURVE SMOOTH"
);
}
);
width = 556;
}
);
note = b;
unicode = 0062;
},
{
glyphname = c;
lastChange = "2017-06-09 11:42:18 +0000";
layers = (
{
layerId = "167B0F81-32A7-4481-94FC-A22177A24047";
paths = (
{
closed = 1;
nodes = (
"413 62 OFFCURVE",
"368 22 OFFCURVE",
"296 22 CURVE SMOOTH",
"189 22 OFFCURVE",
"143 121 OFFCURVE",
"143 246 CURVE SMOOTH",
"143 379 OFFCURVE",
"203 448 OFFCURVE",
"300 448 CURVE SMOOTH",
"355 448 OFFCURVE",
"395 435 OFFCURVE",
"410 406 CURVE",
"403 407 OFFCURVE",
"396 408 OFFCURVE",
"389 408 CURVE SMOOTH",
"356 408 OFFCURVE",
"338 390 OFFCURVE",
"338 360 CURVE SMOOTH",
"338 330 OFFCURVE",
"361 306 OFFCURVE",
"400 306 CURVE SMOOTH",
"438 306 OFFCURVE",
"462 336 OFFCURVE",
"462 370 CURVE SMOOTH",
"462 442 OFFCURVE",
"378 482 OFFCURVE",
"296 482 CURVE SMOOTH",
"162 482 OFFCURVE",
"35 378 OFFCURVE",
"35 235 CURVE SMOOTH",
"35 92 OFFCURVE",
"140 -12 OFFCURVE",
"277 -12 CURVE SMOOTH",
"370 -12 OFFCURVE",
"432 32 OFFCURVE",
"473 102 CURVE",
"448 114 LINE"
);
}
);
width = 500;
}
);
leftKerningGroup = c;
note = c;
unicode = 0063;
},
{
glyphname = d;
lastChange = "2017-06-09 11:42:18 +0000";
layers = (
{
layerId = "167B0F81-32A7-4481-94FC-A22177A24047";
paths = (
{
closed = 1;
nodes = (
"381 405 LINE",
"350 461 OFFCURVE",
"312 482 OFFCURVE",
"257 482 CURVE SMOOTH",
"131 482 OFFCURVE",
"35 368 OFFCURVE",
"35 235 CURVE SMOOTH",
"35 102 OFFCURVE",
"131 -12 OFFCURVE",
"233 -12 CURVE SMOOTH",
"308 -12 OFFCURVE",
"360 26 OFFCURVE",
"387 88 CURVE",
"389 88 LINE",
"389 -6 LINE",
"545 0 LINE",
"545 28 LINE",
"495 28 OFFCURVE",
"477 38 OFFCURVE",
"477 70 CURVE SMOOTH",
"477 688 LINE",
"307 682 LINE",
"307 648 LINE",
"365 648 OFFCURVE",
"383 638 OFFCURVE",
"383 606 CURVE SMOOTH",
"383 405 LINE"
);
},
{
closed = 1;
nodes = (
"187 22 OFFCURVE",
"143 89 OFFCURVE",
"143 238 CURVE SMOOTH",
"143 361 OFFCURVE",
"179 448 OFFCURVE",
"265 448 CURVE SMOOTH",
"341 448 OFFCURVE",
"387 376 OFFCURVE",
"387 238 CURVE SMOOTH",
"387 103 OFFCURVE",
"336 22 OFFCURVE",
"258 22 CURVE SMOOTH"
);
}
);
width = 556;
}
);
note = d;
unicode = 0064;
},
{
glyphname = e;
lastChange = "2017-06-09 11:42:18 +0000";
layers = (
{
layerId = "167B0F81-32A7-4481-94FC-A22177A24047";
paths = (
{
closed = 1;
nodes = (
"466 400 OFFCURVE",
"371 482 OFFCURVE",
"254 482 CURVE SMOOTH",
"130 482 OFFCURVE",
"34 368 OFFCURVE",
"34 235 CURVE SMOOTH",
"34 102 OFFCURVE",
"130 -12 OFFCURVE",
"254 -12 CURVE SMOOTH",
"361 -12 OFFCURVE",
"416 32 OFFCURVE",
"461 98 CURVE",
"437 114 LINE",
"399 63 OFFCURVE",
"354 22 OFFCURVE",
"287 22 CURVE SMOOTH",
"201 22 OFFCURVE",
"142 100 OFFCURVE",
"142 238 CURVE",
"466 238 LINE"
);
},
{
closed = 1;
nodes = (
"142 344 OFFCURVE",
"156 448 OFFCURVE",
"252 448 CURVE SMOOTH",
"350 448 OFFCURVE",
"364 344 OFFCURVE",
"364 272 CURVE",
"142 272 LINE"
);
}
);
width = 500;
}
);
leftKerningGroup = e;
note = e;
unicode = 0065;
},
{
glyphname = f;
lastChange = "2017-06-09 11:42:18 +0000";
layers = (
{
layerId = "167B0F81-32A7-4481-94FC-A22177A24047";
paths = (
{
closed = 1;
nodes = (
"196 470 LINE",
"196 579 LINE SMOOTH",
"196 617 OFFCURVE",
"218 654 OFFCURVE",
"274 654 CURVE SMOOTH",
"284 654 OFFCURVE",
"292 653 OFFCURVE",
"300 650 CURVE",
"288 640 OFFCURVE",
"280 622 OFFCURVE",
"280 605 CURVE SMOOTH",
"280 575 OFFCURVE",
"303 558 OFFCURVE",
"331 558 CURVE SMOOTH",
"364 558 OFFCURVE",
"388 580 OFFCURVE",
"388 615 CURVE SMOOTH",
"388 656 OFFCURVE",
"355 688 OFFCURVE",
"278 688 CURVE SMOOTH",
"181 688 OFFCURVE",
"102 626 OFFCURVE",
"102 524 CURVE SMOOTH",
"102 470 LINE",
"13 470 LINE",
"13 436 LINE",
"102 436 LINE",
"102 76 LINE SMOOTH",
"102 44 OFFCURVE",
"84 34 OFFCURVE",
"12 34 CURVE",
"12 0 LINE",
"296 0 LINE",
"296 34 LINE",
"214 34 OFFCURVE",
"196 44 OFFCURVE",
"196 76 CURVE SMOOTH",
"196 436 LINE",
"314 436 LINE",
"314 470 LINE"
);
}
);
width = 333;
}
);
note = f;
rightKerningGroup = f;
unicode = 0066;
},
{
glyphname = g;
lastChange = "2017-06-09 11:42:18 +0000";
layers = (
{
layerId = "167B0F81-32A7-4481-94FC-A22177A24047";
paths = (
{
closed = 1;
nodes = (
"98 29 OFFCURVE",
"22 -13 OFFCURVE",
"22 -74 CURVE SMOOTH",
"22 -146 OFFCURVE",
"118 -202 OFFCURVE",
"238 -202 CURVE SMOOTH",
"342 -202 OFFCURVE",
"482 -151 OFFCURVE",
"482 -32 CURVE SMOOTH",
"482 152 OFFCURVE",
"132 64 OFFCURVE",
"132 132 CURVE SMOOTH",
"132 159 OFFCURVE",
"166 170 OFFCURVE",
"280 178 CURVE SMOOTH",
"379 185 OFFCURVE",
"436 268 OFFCURVE",
"436 332 CURVE SMOOTH",
"436 358 OFFCURVE",
"430 379 OFFCURVE",
"419 397 CURVE SMOOTH",
"408 415 OFFCURVE",
"393 432 OFFCURVE",
"372 447 CURVE",
"372 460 LINE SMOOTH",
"372 485 OFFCURVE",
"388 498 OFFCURVE",
"398 498 CURVE SMOOTH",
"400 498 OFFCURVE",
"403 498 OFFCURVE",
"406 497 CURVE",
"405 492 OFFCURVE",
"403 483 OFFCURVE",
"403 473 CURVE SMOOTH",
"403 453 OFFCURVE",
"420 440 OFFCURVE",
"443 440 CURVE SMOOTH",
"466 440 OFFCURVE",
"483 458 OFFCURVE",
"483 480 CURVE SMOOTH",
"483 526 OFFCURVE",
"452 536 OFFCURVE",
"422 536 CURVE SMOOTH",
"374 536 OFFCURVE",
"346 508 OFFCURVE",
"346 460 CURVE",
"320 474 OFFCURVE",
"292 482 OFFCURVE",
"235 482 CURVE SMOOTH",
"124 482 OFFCURVE",
"52 404 OFFCURVE",
"52 330 CURVE SMOOTH",
"52 257 OFFCURVE",
"107 209 OFFCURVE",
"171 187 CURVE",
"171 185 LINE",
"135 178 OFFCURVE",
"58 148 OFFCURVE",
"58 104 CURVE SMOOTH",
"58 51 OFFCURVE",
"113 36 OFFCURVE",
"156 35 CURVE",
"156 33 LINE"
);
},
{
closed = 1;
nodes = (
"94 -24 OFFCURVE",
"134 16 OFFCURVE",
"227 16 CURVE SMOOTH",
"352 16 OFFCURVE",
"410 -16 OFFCURVE",
"410 -65 CURVE SMOOTH",
"410 -119 OFFCURVE",
"348 -168 OFFCURVE",
"238 -168 CURVE SMOOTH",
"160 -168 OFFCURVE",
"94 -119 OFFCURVE",
"94 -63 CURVE SMOOTH"
);
},
{
closed = 1;
nodes = (
"298 448 OFFCURVE",
"334 409 OFFCURVE",
"334 327 CURVE SMOOTH",
"334 245 OFFCURVE",
"298 206 OFFCURVE",
"244 206 CURVE SMOOTH",
"190 206 OFFCURVE",
"154 245 OFFCURVE",
"154 327 CURVE SMOOTH",
"154 409 OFFCURVE",
"190 448 OFFCURVE",
"244 448 CURVE SMOOTH"
);
}
);
width = 500;
}
);
note = g;
unicode = 0067;
},
{
glyphname = h;
lastChange = "2017-06-09 11:42:18 +0000";
layers = (
{
layerId = "167B0F81-32A7-4481-94FC-A22177A24047";
paths = (
{
closed = 1;
nodes = (
"473 445 OFFCURVE",
"395 482 OFFCURVE",
"324 482 CURVE SMOOTH",
"254 482 OFFCURVE",
"206 443 OFFCURVE",
"179 382 CURVE",
"177 382 LINE",
"177 688 LINE",
"12 682 LINE",
"12 648 LINE",
"65 648 OFFCURVE",
"83 638 OFFCURVE",
"83 606 CURVE SMOOTH",
"83 76 LINE SMOOTH",
"83 44 OFFCURVE",
"65 34 OFFCURVE",
"12 34 CURVE",
"12 0 LINE",
"255 0 LINE",
"255 34 LINE",
"195 34 OFFCURVE",
"177 44 OFFCURVE",
"177 76 CURVE SMOOTH",
"177 273 LINE SMOOTH",
"177 349 OFFCURVE",
"225 442 OFFCURVE",
"299 442 CURVE SMOOTH",
"336 442 OFFCURVE",
"379 421 OFFCURVE",
"379 334 CURVE SMOOTH",
"379 0 LINE",
"544 0 LINE",
"544 34 LINE",
"491 34 OFFCURVE",
"473 44 OFFCURVE",
"473 76 CURVE SMOOTH",
"473 299 LINE SMOOTH"
);
}
);
width = 556;
}
);
note = h;
unicode = 0068;
},
{
glyphname = i;
lastChange = "2017-06-09 11:42:18 +0000";
layers = (
{
layerId = "167B0F81-32A7-4481-94FC-A22177A24047";
paths = (
{
closed = 1;
nodes = (
"262 34 LINE",
"204 34 OFFCURVE",
"186 44 OFFCURVE",
"186 76 CURVE SMOOTH",
"186 476 LINE",
"16 470 LINE",
"16 436 LINE",
"74 436 OFFCURVE",
"92 426 OFFCURVE",
"92 394 CURVE SMOOTH",
"92 76 LINE SMOOTH",
"92 44 OFFCURVE",
"74 34 OFFCURVE",
"16 34 CURVE",
"16 0 LINE",
"262 0 LINE"
);
},
{
closed = 1;
nodes = (
"98 682 OFFCURVE",
"72 658 OFFCURVE",
"72 626 CURVE SMOOTH",
"72 594 OFFCURVE",
"98 570 OFFCURVE",
"128 570 CURVE SMOOTH",
"158 570 OFFCURVE",
"184 594 OFFCURVE",
"184 626 CURVE SMOOTH",
"184 658 OFFCURVE",
"158 682 OFFCURVE",
"128 682 CURVE SMOOTH"
);
}
);
width = 278;
}
);
leftKerningGroup = i;
note = i;
unicode = 0069;
},
{
glyphname = j;
lastChange = "2017-06-09 11:42:18 +0000";
layers = (
{
layerId = "167B0F81-32A7-4481-94FC-A22177A24047";
paths = (
{
closed = 1;
nodes = (
"46 470 LINE",
"46 436 LINE",
"92 436 OFFCURVE",
"110 426 OFFCURVE",
"110 394 CURVE SMOOTH",
"110 -65 LINE SMOOTH",
"110 -131 OFFCURVE",
"72 -148 OFFCURVE",
"38 -148 CURVE SMOOTH",
"14 -148 OFFCURVE",
"-6 -143 OFFCURVE",
"-15 -128 CURVE",
"10 -119 OFFCURVE",
"25 -102 OFFCURVE",
"25 -74 CURVE SMOOTH",
"25 -43 OFFCURVE",
"2 -25 OFFCURVE",
"-28 -25 CURVE SMOOTH",
"-64 -25 OFFCURVE",
"-83 -47 OFFCURVE",
"-83 -88 CURVE SMOOTH",
"-83 -139 OFFCURVE",
"-25 -182 OFFCURVE",
"34 -182 CURVE SMOOTH",
"109 -182 OFFCURVE",
"204 -150 OFFCURVE",
"204 -19 CURVE SMOOTH",
"204 476 LINE"
);
},
{
closed = 1;
nodes = (
"116 682 OFFCURVE",
"90 658 OFFCURVE",
"90 626 CURVE SMOOTH",
"90 594 OFFCURVE",
"116 570 OFFCURVE",
"146 570 CURVE SMOOTH",
"176 570 OFFCURVE",
"202 594 OFFCURVE",
"202 626 CURVE SMOOTH",
"202 658 OFFCURVE",
"176 682 OFFCURVE",
"146 682 CURVE SMOOTH"
);
}
);
width = 278;
}
);
note = j;
unicode = 006A;
},
{
glyphname = k;
lastChange = "2017-06-09 11:42:18 +0000";
layers = (
{
layerId = "167B0F81-32A7-4481-94FC-A22177A24047";
paths = (
{
closed = 1;
nodes = (
"324 436 LINE",
"376 436 OFFCURVE",
"394 431 OFFCURVE",
"394 413 CURVE SMOOTH",
"394 400 OFFCURVE",
"375 385 OFFCURVE",
"366 377 CURVE SMOOTH",
"200 228 LINE",
"200 688 LINE",
"34 682 LINE",
"34 648 LINE",
"88 648 OFFCURVE",
"106 638 OFFCURVE",
"106 606 CURVE SMOOTH",
"106 76 LINE SMOOTH",
"106 44 OFFCURVE",
"88 34 OFFCURVE",
"30 34 CURVE",
"30 0 LINE",
"274 0 LINE",
"274 34 LINE",
"218 34 OFFCURVE",
"200 44 OFFCURVE",
"200 76 CURVE SMOOTH",
"200 186 LINE",
"254 232 LINE",
"408 0 LINE",
"549 0 LINE",
"549 34 LINE",
"502 34 OFFCURVE",
"493 39 OFFCURVE",
"467 78 CURVE SMOOTH",
"330 284 LINE",
"459 402 LINE SMOOTH",
"488 429 OFFCURVE",
"505 436 OFFCURVE",
"548 436 CURVE",
"548 470 LINE",
"324 470 LINE"
);
}
);
width = 556;
}
);
note = k;
unicode = 006B;
},
{
glyphname = l;
lastChange = "2017-06-09 11:42:18 +0000";
layers = (
{
layerId = "167B0F81-32A7-4481-94FC-A22177A24047";
paths = (
{
closed = 1;
nodes = (
"262 34 LINE",
"204 34 OFFCURVE",
"186 44 OFFCURVE",
"186 76 CURVE SMOOTH",
"186 688 LINE",
"16 682 LINE",
"16 648 LINE",
"74 648 OFFCURVE",
"92 638 OFFCURVE",
"92 606 CURVE SMOOTH",
"92 76 LINE SMOOTH",
"92 44 OFFCURVE",
"74 34 OFFCURVE",
"16 34 CURVE",
"16 0 LINE",
"262 0 LINE"
);
}
);
width = 278;
}
);
note = l;
unicode = 006C;
},
{
glyphname = m;
lastChange = "2017-06-09 11:42:18 +0000";
layers = (
{
layerId = "167B0F81-32A7-4481-94FC-A22177A24047";
paths = (
{
closed = 1;
nodes = (
"819 34 LINE",
"764 34 OFFCURVE",
"746 44 OFFCURVE",
"746 76 CURVE SMOOTH",
"746 327 LINE SMOOTH",
"746 455 OFFCURVE",
"662 482 OFFCURVE",
"599 482 CURVE SMOOTH",
"537 482 OFFCURVE",
"485 449 OFFCURVE",
"452 375 CURVE",
"429 450 OFFCURVE",
"380 482 OFFCURVE",
"306 482 CURVE SMOOTH",
"243 482 OFFCURVE",
"200 444 OFFCURVE",
"178 386 CURVE",
"176 386 LINE",
"176 476 LINE",
"14 470 LINE",
"14 436 LINE",
"70 436 OFFCURVE",
"88 426 OFFCURVE",
"88 394 CURVE SMOOTH",
"88 76 LINE SMOOTH",
"88 44 OFFCURVE",
"70 34 OFFCURVE",
"14 34 CURVE",
"14 0 LINE",
"260 0 LINE",
"260 34 LINE",
"200 34 OFFCURVE",
"182 44 OFFCURVE",
"182 76 CURVE SMOOTH",
"182 279 LINE SMOOTH",
"182 405 OFFCURVE",
"238 442 OFFCURVE",
"285 442 CURVE SMOOTH",
"348 442 OFFCURVE",
"370 405 OFFCURVE",
"370 335 CURVE SMOOTH",
"370 0 LINE",
"535 0 LINE",
"535 34 LINE",
"482 34 OFFCURVE",
"464 44 OFFCURVE",
"464 76 CURVE SMOOTH",
"464 279 LINE SMOOTH",
"464 405 OFFCURVE",
"520 442 OFFCURVE",
"567 442 CURVE SMOOTH",
"630 442 OFFCURVE",
"652 405 OFFCURVE",
"652 335 CURVE SMOOTH",
"652 0 LINE",
"819 0 LINE"
);
}
);
width = 833;
}
);
note = m;
unicode = 006D;
},
{
glyphname = n;
lastChange = "2017-06-09 11:42:18 +0000";
layers = (
{
layerId = "167B0F81-32A7-4481-94FC-A22177A24047";
paths = (
{
closed = 1;
nodes = (
"12 436 LINE",
"65 436 OFFCURVE",
"83 426 OFFCURVE",
"83 394 CURVE SMOOTH",
"83 76 LINE SMOOTH",
"83 44 OFFCURVE",
"65 34 OFFCURVE",
"12 34 CURVE",
"12 0 LINE",
"255 0 LINE",
"255 34 LINE",
"195 34 OFFCURVE",
"177 44 OFFCURVE",
"177 76 CURVE SMOOTH",
"177 273 LINE SMOOTH",
"177 349 OFFCURVE",
"225 442 OFFCURVE",
"299 442 CURVE SMOOTH",
"336 442 OFFCURVE",
"379 421 OFFCURVE",
"379 334 CURVE SMOOTH",
"379 0 LINE",
"544 0 LINE",
"544 34 LINE",
"491 34 OFFCURVE",
"473 44 OFFCURVE",
"473 76 CURVE SMOOTH",
"473 299 LINE SMOOTH",
"473 445 OFFCURVE",
"395 482 OFFCURVE",
"324 482 CURVE SMOOTH",
"255 482 OFFCURVE",
"207 444 OFFCURVE",
"171 382 CURVE",
"169 382 LINE",
"169 476 LINE",
"12 470 LINE"
);
}
);
width = 556;
}
);
note = n;
unicode = 006E;
},
{
glyphname = o;
lastChange = "2017-06-09 11:42:18 +0000";
layers = (
{
layerId = "167B0F81-32A7-4481-94FC-A22177A24047";
paths = (
{
closed = 1;
nodes = (
"197 22 OFFCURVE",
"143 71 OFFCURVE",
"143 235 CURVE SMOOTH",
"143 399 OFFCURVE",
"197 448 OFFCURVE",
"278 448 CURVE SMOOTH",
"359 448 OFFCURVE",
"413 399 OFFCURVE",
"413 235 CURVE SMOOTH",
"413 71 OFFCURVE",
"359 22 OFFCURVE",
"278 22 CURVE SMOOTH"
);
},
{
closed = 1;
nodes = (
"143 482 OFFCURVE",
"35 380 OFFCURVE",
"35 235 CURVE SMOOTH",
"35 90 OFFCURVE",
"143 -12 OFFCURVE",
"278 -12 CURVE SMOOTH",
"413 -12 OFFCURVE",
"521 90 OFFCURVE",
"521 235 CURVE SMOOTH",
"521 380 OFFCURVE",
"413 482 OFFCURVE",
"278 482 CURVE SMOOTH"
);
}
);
width = 556;
}
);
leftKerningGroup = o;
note = o;
unicode = 006F;
},
{
glyphname = p;
lastChange = "2017-06-09 11:42:18 +0000";
layers = (
{
layerId = "167B0F81-32A7-4481-94FC-A22177A24047";
paths = (
{
closed = 1;
nodes = (
"-2 464 LINE",
"-2 430 LINE",
"56 430 OFFCURVE",
"74 420 OFFCURVE",
"74 388 CURVE SMOOTH",
"74 -106 LINE SMOOTH",
"74 -138 OFFCURVE",
"56 -148 OFFCURVE",
"-6 -148 CURVE",
"-6 -182 LINE",
"258 -182 LINE",
"258 -148 LINE",
"186 -148 OFFCURVE",
"168 -138 OFFCURVE",
"168 -106 CURVE SMOOTH",
"168 69 LINE",
"170 69 LINE",
"200 12 OFFCURVE",
"233 -12 OFFCURVE",
"304 -12 CURVE SMOOTH",
"424 -12 OFFCURVE",
"514 108 OFFCURVE",
"514 240 CURVE SMOOTH",
"514 365 OFFCURVE",
"420 482 OFFCURVE",
"303 482 CURVE SMOOTH",
"223 482 OFFCURVE",
"187 434 OFFCURVE",
"162 378 CURVE",
"160 378 LINE",
"160 470 LINE"
);
},
{
closed = 1;
nodes = (
"376 448 OFFCURVE",
"412 358 OFFCURVE",
"412 232 CURVE SMOOTH",
"412 84 OFFCURVE",
"376 22 OFFCURVE",
"282 22 CURVE SMOOTH",
"249 22 OFFCURVE",
"168 53 OFFCURVE",
"168 205 CURVE SMOOTH",
"168 232 LINE SMOOTH",
"168 358 OFFCURVE",
"214 448 OFFCURVE",
"290 448 CURVE SMOOTH"
);
}
);
width = 556;
}
);
leftKerningGroup = p;
note = p;
unicode = 0070;
},
{
glyphname = q;
lastChange = "2017-06-09 11:42:18 +0000";
layers = (
{
layerId = "167B0F81-32A7-4481-94FC-A22177A24047";
paths = (
{
closed = 1;
nodes = (
"524 -148 LINE",
"464 -148 OFFCURVE",
"446 -138 OFFCURVE",
"446 -106 CURVE SMOOTH",
"446 470 LINE",
"417 470 LINE",
"411 455 OFFCURVE",
"390 426 OFFCURVE",
"374 426 CURVE SMOOTH",
"354 426 OFFCURVE",
"318 482 OFFCURVE",
"242 482 CURVE SMOOTH",
"138 482 OFFCURVE",
"20 374 OFFCURVE",
"20 236 CURVE SMOOTH",
"20 102 OFFCURVE",
"90 -12 OFFCURVE",
"232 -12 CURVE SMOOTH",
"289 -12 OFFCURVE",
"317 5 OFFCURVE",
"349 52 CURVE",
"352 52 LINE",
"352 -106 LINE SMOOTH",
"352 -138 OFFCURVE",
"333 -148 OFFCURVE",
"275 -148 CURVE",
"275 -182 LINE",
"524 -182 LINE"
);
},
{
closed = 1;
nodes = (
"166 22 OFFCURVE",
"128 84 OFFCURVE",
"128 238 CURVE SMOOTH",
"128 389 OFFCURVE",
"166 448 OFFCURVE",
"240 448 CURVE SMOOTH",
"314 448 OFFCURVE",
"352 389 OFFCURVE",
"352 238 CURVE SMOOTH",
"352 84 OFFCURVE",
"314 22 OFFCURVE",
"240 22 CURVE SMOOTH"
);
}
);
width = 500;
}
);
leftKerningGroup = q;
note = q;
unicode = 0071;
},
{
glyphname = r;
lastChange = "2017-06-09 11:42:18 +0000";
layers = (
{
layerId = "167B0F81-32A7-4481-94FC-A22177A24047";
paths = (
{
closed = 1;
nodes = (
"190 34 OFFCURVE",
"184 52 OFFCURVE",
"184 135 CURVE SMOOTH",
"184 325 OFFCURVE",
"234 448 OFFCURVE",
"301 448 CURVE SMOOTH",
"307 448 OFFCURVE",
"310 447 OFFCURVE",
"314 446 CURVE",
"300 437 OFFCURVE",
"293 423 OFFCURVE",
"293 407 CURVE SMOOTH",
"293 379 OFFCURVE",
"310 360 OFFCURVE",
"342 360 CURVE SMOOTH",
"373 360 OFFCURVE",
"395 386 OFFCURVE",
"395 413 CURVE SMOOTH",
"395 443 OFFCURVE",
"371 482 OFFCURVE",
"316 482 CURVE SMOOTH",
"233 482 OFFCURVE",
"200 420 OFFCURVE",
"179 340 CURVE",
"177 340 LINE",
"177 476 LINE",
"18 470 LINE",
"18 436 LINE",
"72 436 OFFCURVE",
"90 426 OFFCURVE",
"90 394 CURVE SMOOTH",
"90 76 LINE SMOOTH",
"90 44 OFFCURVE",
"72 34 OFFCURVE",
"14 34 CURVE",
"14 0 LINE",
"278 0 LINE",
"278 34 LINE"
);
}
);
width = 389;
}
);
leftKerningGroup = r;
note = r;
rightKerningGroup = r;
unicode = 0072;
},
{
glyphname = s;
lastChange = "2017-06-09 11:42:18 +0000";
layers = (
{
layerId = "167B0F81-32A7-4481-94FC-A22177A24047";
paths = (
{
closed = 1;
nodes = (
"59 6 OFFCURVE",
"64 26 OFFCURVE",
"82 26 CURVE SMOOTH",
"113 26 OFFCURVE",
"140 -12 OFFCURVE",
"231 -12 CURVE SMOOTH",
"329 -12 OFFCURVE",
"417 43 OFFCURVE",
"417 150 CURVE SMOOTH",
"417 335 OFFCURVE",
"110 258 OFFCURVE",
"110 380 CURVE SMOOTH",
"110 430 OFFCURVE",
"157 448 OFFCURVE",
"201 448 CURVE SMOOTH",
"287 448 OFFCURVE",
"323 403 OFFCURVE",
"353 328 CURVE",
"387 328 LINE",
"387 474 LINE",
"353 474 LINE",
"351 464 OFFCURVE",
"346 448 OFFCURVE",
"330 448 CURVE SMOOTH",
"313 448 OFFCURVE",
"285 482 OFFCURVE",
"200 482 CURVE SMOOTH",
"109 482 OFFCURVE",
"30 431 OFFCURVE",
"30 343 CURVE SMOOTH",
"30 164 OFFCURVE",
"337 244 OFFCURVE",
"337 105 CURVE SMOOTH",
"337 51 OFFCURVE",
"277 22 OFFCURVE",
"230 22 CURVE SMOOTH",
"141 22 OFFCURVE",
"76 81 OFFCURVE",
"55 166 CURVE",
"27 166 LINE",
"27 -6 LINE",
"55 -6 LINE"
);
}
);
width = 444;
}
);
leftKerningGroup = s;
note = s;
unicode = 0073;
},
{
glyphname = t;
lastChange = "2017-06-09 11:42:18 +0000";
layers = (
{
layerId = "167B0F81-32A7-4481-94FC-A22177A24047";
paths = (
{
closed = 1;
nodes = (
"107 504 OFFCURVE",
"95 478 OFFCURVE",
"2 470 CURVE",
"2 436 LINE",
"75 436 LINE",
"75 110 LINE SMOOTH",
"75 11 OFFCURVE",
"129 -12 OFFCURVE",
"199 -12 CURVE SMOOTH",
"298 -12 OFFCURVE",
"325 44 OFFCURVE",
"325 134 CURVE SMOOTH",
"325 151 LINE",
"297 151 LINE",
"297 130 LINE SMOOTH",
"297 50 OFFCURVE",
"263 22 OFFCURVE",
"224 22 CURVE SMOOTH",
"195 22 OFFCURVE",
"169 32 OFFCURVE",
"169 74 CURVE SMOOTH",
"169 436 LINE",
"308 436 LINE",
"308 470 LINE",
"169 470 LINE",
"169 626 LINE",
"133 626 LINE"
);
}
);
width = 333;
}
);
leftKerningGroup = t;
note = t;
unicode = 0074;
},
{
glyphname = u;
lastChange = "2017-06-09 11:42:18 +0000";
layers = (
{
layerId = "167B0F81-32A7-4481-94FC-A22177A24047";
paths = (
{
closed = 1;
nodes = (
"543 34 LINE",
"491 34 OFFCURVE",
"473 44 OFFCURVE",
"473 76 CURVE SMOOTH",
"473 470 LINE",
"301 470 LINE",
"301 436 LINE",
"361 436 OFFCURVE",
"379 426 OFFCURVE",
"379 394 CURVE SMOOTH",
"379 170 LINE",
"370 104 OFFCURVE",
"334 28 OFFCURVE",
"252 28 CURVE SMOOTH",
"199 28 OFFCURVE",
"177 68 OFFCURVE",
"177 124 CURVE SMOOTH",
"177 470 LINE",
"12 470 LINE",
"12 436 LINE",
"65 436 OFFCURVE",
"83 426 OFFCURVE",
"83 394 CURVE SMOOTH",
"83 168 LINE SMOOTH",
"83 50 OFFCURVE",
"142 -12 OFFCURVE",
"232 -12 CURVE SMOOTH",
"301 -12 OFFCURVE",
"349 26 OFFCURVE",
"385 88 CURVE",
"387 88 LINE",
"387 -6 LINE",
"543 0 LINE"
);
}
);
width = 556;
}
);
leftKerningGroup = u;
note = u;
unicode = 0075;
},
{
glyphname = v;
lastChange = "2017-06-09 11:42:18 +0000";
layers = (
{
layerId = "167B0F81-32A7-4481-94FC-A22177A24047";
paths = (
{
closed = 1;
nodes = (
"33 436 OFFCURVE",
"45 425 OFFCURVE",
"61 386 CURVE SMOOTH",
"223 0 LINE",
"268 0 LINE",
"430 386 LINE SMOOTH",
"444 420 OFFCURVE",
"469 436 OFFCURVE",
"514 436 CURVE",
"514 470 LINE",
"324 470 LINE",
"324 436 LINE",
"380 436 OFFCURVE",
"392 430 OFFCURVE",
"392 398 CURVE SMOOTH",
"392 371 OFFCURVE",
"370 336 OFFCURVE",
"273 104 CURVE",
"271 104 LINE",
"171 351 OFFCURVE",
"152 388 OFFCURVE",
"152 407 CURVE SMOOTH",
"152 432 OFFCURVE",
"165 436 OFFCURVE",
"223 436 CURVE",
"223 470 LINE",
"-14 470 LINE",
"-14 436 LINE"
);
}
);
width = 500;
}
);
leftKerningGroup = v;
note = v;
rightKerningGroup = v;
unicode = 0076;
},
{
glyphname = w;
lastChange = "2017-06-09 11:42:18 +0000";
layers = (
{
layerId = "167B0F81-32A7-4481-94FC-A22177A24047";
paths = (
{
closed = 1;
nodes = (
"40 436 OFFCURVE",
"70 434 OFFCURVE",
"78 413 CURVE SMOOTH",
"226 0 LINE",
"266 0 LINE",
"389 326 LINE",
"505 0 LINE",
"544 0 LINE",
"686 382 LINE SMOOTH",
"703 427 OFFCURVE",
"727 436 OFFCURVE",
"771 436 CURVE",
"771 470 LINE",
"580 470 LINE",
"580 436 LINE",
"631 436 OFFCURVE",
"650 432 OFFCURVE",
"650 403 CURVE SMOOTH",
"650 379 OFFCURVE",
"638 358 OFFCURVE",
"554 134 CURVE",
"552 134 LINE",
"467 377 OFFCURVE",
"454 393 OFFCURVE",
"454 416 CURVE SMOOTH",
"454 434 OFFCURVE",
"463 436 OFFCURVE",
"518 436 CURVE",
"518 470 LINE",
"290 470 LINE",
"290 436 LINE",
"340 436 OFFCURVE",
"351 436 OFFCURVE",
"358 416 CURVE SMOOTH",
"368 389 LINE",
"274 132 LINE",
"272 132 LINE",
"188 378 OFFCURVE",
"178 395 OFFCURVE",
"178 410 CURVE SMOOTH",
"178 433 OFFCURVE",
"186 436 OFFCURVE",
"235 436 CURVE",
"235 470 LINE",
"7 470 LINE",
"7 436 LINE"
);
}
);
width = 778;
}
);
leftKerningGroup = w;
note = w;
rightKerningGroup = w;
unicode = 0077;
},
{
glyphname = x;
lastChange = "2017-06-09 11:42:18 +0000";
layers = (
{
layerId = "167B0F81-32A7-4481-94FC-A22177A24047";
paths = (
{
closed = 1;
nodes = (
"225 34 LINE",
"183 34 OFFCURVE",
"165 38 OFFCURVE",
"165 60 CURVE SMOOTH",
"165 81 OFFCURVE",
"180 90 OFFCURVE",
"256 189 CURVE",
"340 80 OFFCURVE",
"353 70 OFFCURVE",
"353 50 CURVE SMOOTH",
"353 36 OFFCURVE",
"335 34 OFFCURVE",
"297 34 CURVE",
"297 0 LINE",
"549 0 LINE",
"549 34 LINE",
"509 34 OFFCURVE",
"482 39 OFFCURVE",
"468 57 CURVE SMOOTH",
"312 254 LINE",
"412 376 LINE SMOOTH",
"456 429 OFFCURVE",
"473 436 OFFCURVE",
"534 436 CURVE",
"534 470 LINE",
"320 470 LINE",
"320 436 LINE",
"371 436 OFFCURVE",
"381 428 OFFCURVE",
"381 410 CURVE SMOOTH",
"381 391 OFFCURVE",
"368 381 OFFCURVE",
"290 283 CURVE",
"207 387 OFFCURVE",
"193 403 OFFCURVE",
"193 418 CURVE SMOOTH",
"193 432 OFFCURVE",
"204 436 OFFCURVE",
"255 436 CURVE",
"255 470 LINE",
"13 470 LINE",
"13 436 LINE",
"63 436 OFFCURVE",
"67 429 OFFCURVE",
"82 410 CURVE SMOOTH",
"234 218 LINE",
"126 86 LINE SMOOTH",
"91 43 OFFCURVE",
"60 34 OFFCURVE",
"7 34 CURVE",
"7 0 LINE",
"225 0 LINE"
);
}
);
width = 556;
}
);
note = x;
unicode = 0078;
},
{
glyphname = y;
lastChange = "2017-06-09 11:42:18 +0000";
layers = (
{
layerId = "167B0F81-32A7-4481-94FC-A22177A24047";
paths = (
{
closed = 1;
nodes = (
"45 436 OFFCURVE",
"52 430 OFFCURVE",
"67 394 CURVE SMOOTH",
"232 -5 LINE",
"215 -60 OFFCURVE",
"176 -148 OFFCURVE",
"114 -148 CURVE SMOOTH",
"101 -148 OFFCURVE",
"91 -143 OFFCURVE",
"82 -136 CURVE",
"105 -128 OFFCURVE",
"121 -108 OFFCURVE",
"121 -81 CURVE SMOOTH",
"121 -58 OFFCURVE",
"105 -31 OFFCURVE",
"65 -31 CURVE SMOOTH",
"25 -31 OFFCURVE",
"5 -60 OFFCURVE",
"5 -94 CURVE SMOOTH",
"5 -149 OFFCURVE",
"45 -182 OFFCURVE",
"105 -182 CURVE SMOOTH",
"210 -182 OFFCURVE",
"248 -93 OFFCURVE",
"326 113 CURVE SMOOTH",
"432 393 LINE SMOOTH",
"446 431 OFFCURVE",
"458 436 OFFCURVE",
"501 436 CURVE",
"501 470 LINE",
"317 470 LINE",
"317 436 LINE",
"374 436 OFFCURVE",
"386 429 OFFCURVE",
"386 403 CURVE SMOOTH",
"386 375 OFFCURVE",
"369 350 OFFCURVE",
"278 112 CURVE",
"276 112 LINE",
"178 355 OFFCURVE",
"161 395 OFFCURVE",
"161 415 CURVE SMOOTH",
"161 433 OFFCURVE",
"169 436 OFFCURVE",
"227 436 CURVE",
"227 470 LINE",
"-1 470 LINE",
"-1 436 LINE"
);
}
);
width = 500;
}
);
leftKerningGroup = y;
note = y;
rightKerningGroup = y;
unicode = 0079;
},
{
glyphname = z;
lastChange = "2017-06-09 11:42:18 +0000";
layers = (
{
layerId = "167B0F81-32A7-4481-94FC-A22177A24047";
paths = (
{
closed = 1;
nodes = (
"82 412 OFFCURVE",
"132 436 OFFCURVE",
"183 436 CURVE SMOOTH",
"295 436 LINE",
"21 38 LINE",
"21 0 LINE",
"413 0 LINE",
"413 180 LINE",
"385 180 LINE",
"345 60 OFFCURVE",
"269 34 OFFCURVE",
"211 34 CURVE SMOOTH",
"129 34 LINE",
"412 442 LINE",
"412 470 LINE",
"35 470 LINE",
"35 322 LINE",
"63 322 LINE"
);
}
);
width = 444;
}
);
note = z;
unicode = 007A;
},
{
glyphname = braceleft;
lastChange = "2017-06-09 11:42:18 +0000";
layers = (
{
layerId = "167B0F81-32A7-4481-94FC-A22177A24047";
paths = (
{
closed = 1;
nodes = (
"100 -181 OFFCURVE",
"153 -202 OFFCURVE",
"242 -202 CURVE",
"242 -186 LINE",
"191 -170 OFFCURVE",
"174 -134 OFFCURVE",
"174 -62 CURVE SMOOTH",
"174 114 LINE SMOOTH",
"174 188 OFFCURVE",
"163 230 OFFCURVE",
"87 248 CURVE",
"87 250 LINE",
"163 268 OFFCURVE",
"174 310 OFFCURVE",
"174 384 CURVE SMOOTH",
"174 560 LINE SMOOTH",
"174 632 OFFCURVE",
"191 668 OFFCURVE",
"242 684 CURVE",
"242 700 LINE",
"153 700 OFFCURVE",
"100 679 OFFCURVE",
"100 554 CURVE SMOOTH",
"100 368 LINE SMOOTH",
"100 301 OFFCURVE",
"87 268 OFFCURVE",
"37 249 CURVE",
"87 230 OFFCURVE",
"100 197 OFFCURVE",
"100 130 CURVE SMOOTH",
"100 -56 LINE SMOOTH"
);
}
);
width = 333;
}
);
note = braceleft;
unicode = 007B;
},
{
glyphname = bar;
lastChange = "2017-06-09 11:42:18 +0000";
layers = (
{
layerId = "167B0F81-32A7-4481-94FC-A22177A24047";
paths = (
{
closed = 1;
nodes = (
"139 0 LINE",
"139 688 LINE",
"83 688 LINE",
"83 0 LINE"
);
}
);
width = 222;
}
);
note = bar;
unicode = 007C;
},
{
glyphname = braceright;
lastChange = "2017-06-09 11:42:18 +0000";
layers = (
{
layerId = "167B0F81-32A7-4481-94FC-A22177A24047";
paths = (
{
closed = 1;
nodes = (
"233 679 OFFCURVE",
"180 700 OFFCURVE",
"91 700 CURVE",
"91 684 LINE",
"142 668 OFFCURVE",
"159 632 OFFCURVE",
"159 560 CURVE SMOOTH",
"159 384 LINE SMOOTH",
"159 310 OFFCURVE",
"170 268 OFFCURVE",
"246 250 CURVE",
"246 248 LINE",
"170 230 OFFCURVE",
"159 188 OFFCURVE",
"159 114 CURVE SMOOTH",
"159 -62 LINE SMOOTH",
"159 -134 OFFCURVE",
"142 -170 OFFCURVE",
"91 -186 CURVE",
"91 -202 LINE",
"180 -202 OFFCURVE",
"233 -181 OFFCURVE",
"233 -56 CURVE SMOOTH",
"233 130 LINE SMOOTH",
"233 197 OFFCURVE",
"246 230 OFFCURVE",
"296 249 CURVE",
"246 268 OFFCURVE",
"233 301 OFFCURVE",
"233 368 CURVE SMOOTH",
"233 554 LINE SMOOTH"
);
}
);
width = 333;
}
);
note = braceright;
unicode = 007D;
},
{
glyphname = asciitilde;
lastChange = "2017-06-09 11:42:18 +0000";
layers = (
{
layerId = "167B0F81-32A7-4481-94FC-A22177A24047";
paths = (
{
closed = 1;
nodes = (
"472 266 OFFCURVE",
"447 229 OFFCURVE",
"407 229 CURVE SMOOTH",
"380 229 OFFCURVE",
"342 249 OFFCURVE",
"305 265 CURVE SMOOTH",
"267 282 OFFCURVE",
"228 297 OFFCURVE",
"194 297 CURVE SMOOTH",
"127 297 OFFCURVE",
"91 253 OFFCURVE",
"69 211 CURVE",
"105 169 LINE",
"121 204 OFFCURVE",
"145 241 OFFCURVE",
"189 241 CURVE SMOOTH",
"235 241 OFFCURVE",
"269 224 OFFCURVE",
"302 207 CURVE SMOOTH",
"335 190 OFFCURVE",
"366 173 OFFCURVE",
"406 173 CURVE SMOOTH",
"468 173 OFFCURVE",
"501 217 OFFCURVE",
"531 259 CURVE",
"495 301 LINE"
);
}
);
width = 600;
}
);
note = asciitilde;
unicode = 007E;
},
{
glyphname = exclamdown;
lastChange = "2017-06-09 11:42:18 +0000";
layers = (
{
layerId = "167B0F81-32A7-4481-94FC-A22177A24047";
paths = (
{
closed = 1;
nodes = (
"171 384 OFFCURVE",
"197 406 OFFCURVE",
"197 442 CURVE SMOOTH",
"197 478 OFFCURVE",
"171 500 OFFCURVE",
"139 500 CURVE SMOOTH",
"107 500 OFFCURVE",
"81 478 OFFCURVE",
"81 442 CURVE SMOOTH",
"81 406 OFFCURVE",
"107 384 OFFCURVE",
"139 384 CURVE SMOOTH"
);
},
{
closed = 1;
nodes = (
"92 -36 LINE SMOOTH",
"89 -64 OFFCURVE",
"81 -97 OFFCURVE",
"81 -126 CURVE SMOOTH",
"81 -168 OFFCURVE",
"96 -194 OFFCURVE",
"139 -194 CURVE SMOOTH",
"182 -194 OFFCURVE",
"197 -168 OFFCURVE",
"197 -126 CURVE SMOOTH",
"197 -97 OFFCURVE",
"189 -64 OFFCURVE",
"186 -36 CURVE SMOOTH",
"154 272 LINE",
"124 272 LINE"
);
}
);
width = 278;
}
);
note = exclamdown;
unicode = 00A1;
},
{
glyphname = cent;
lastChange = "2017-06-09 11:42:18 +0000";
layers = (
{
layerId = "167B0F81-32A7-4481-94FC-A22177A24047";
paths = (
{
closed = 1;
nodes = (
"165 192 OFFCURVE",
"144 274 OFFCURVE",
"144 346 CURVE SMOOTH",
"144 419 OFFCURVE",
"154 513 OFFCURVE",
"236 538 CURVE",
"236 160 LINE"
);
},
{
closed = 1;
nodes = (
"126 551 OFFCURVE",
"42 464 OFFCURVE",
"42 348 CURVE SMOOTH",
"42 229 OFFCURVE",
"120 140 OFFCURVE",
"236 118 CURVE",
"236 -12 LINE",
"278 -12 LINE",
"278 116 LINE",
"357 121 OFFCURVE",
"401 160 OFFCURVE",
"444 222 CURVE",
"421 237 LINE",
"385 188 OFFCURVE",
"343 148 OFFCURVE",
"278 150 CURVE",
"278 546 LINE",
"341 546 OFFCURVE",
"371 533 OFFCURVE",
"382 504 CURVE",
"378 505 OFFCURVE",
"374 506 OFFCURVE",
"370 506 CURVE SMOOTH",
"343 506 OFFCURVE",
"320 493 OFFCURVE",
"320 460 CURVE SMOOTH",
"320 427 OFFCURVE",
"348 412 OFFCURVE",
"378 412 CURVE SMOOTH",
"411 412 OFFCURVE",
"428 442 OFFCURVE",
"428 470 CURVE SMOOTH",
"428 548 OFFCURVE",
"344 580 OFFCURVE",
"278 580 CURVE",
"278 700 LINE",
"236 700 LINE",
"236 578 LINE"
);
}
);
width = 500;
}
);
note = cent;
unicode = 00A2;
},
{
glyphname = sterling;
lastChange = "2017-06-09 11:42:18 +0000";
layers = (
{
layerId = "167B0F81-32A7-4481-94FC-A22177A24047";
paths = (
{
closed = 1;
nodes = (
"229 296 LINE",
"270 268 OFFCURVE",
"298 218 OFFCURVE",
"298 180 CURVE SMOOTH",
"298 147 OFFCURVE",
"282 113 OFFCURVE",
"261 89 CURVE",
"210 119 OFFCURVE",
"143 170 OFFCURVE",
"82 170 CURVE SMOOTH",
"28 170 OFFCURVE",
"-30 147 OFFCURVE",
"-30 84 CURVE SMOOTH",
"-30 15 OFFCURVE",
"56 -12 OFFCURVE",
"113 -12 CURVE SMOOTH",
"167 -12 OFFCURVE",
"221 2 OFFCURVE",
"265 31 CURVE",
"299 9 OFFCURVE",
"335 -4 OFFCURVE",
"375 -4 CURVE SMOOTH",
"432 -4 OFFCURVE",
"476 42 OFFCURVE",
"508 84 CURVE",
"480 104 LINE",
"452 68 OFFCURVE",
"424 38 OFFCURVE",
"375 38 CURVE SMOOTH",
"355 38 OFFCURVE",
"322 50 OFFCURVE",
"306 62 CURVE",
"346 97 OFFCURVE",
"386 137 OFFCURVE",
"386 198 CURVE SMOOTH",
"386 234 OFFCURVE",
"373 268 OFFCURVE",
"351 296 CURVE",
"480 296 LINE",
"480 330 LINE",
"318 330 LINE",
"219 421 OFFCURVE",
"130 462 OFFCURVE",
"130 564 CURVE SMOOTH",
"130 624 OFFCURVE",
"189 666 OFFCURVE",
"243 666 CURVE SMOOTH",
"281 666 OFFCURVE",
"313 653 OFFCURVE",
"336 634 CURVE",
"309 628 OFFCURVE",
"288 607 OFFCURVE",
"288 580 CURVE SMOOTH",
"288 556 OFFCURVE",
"308 534 OFFCURVE",
"341 534 CURVE SMOOTH",
"375 534 OFFCURVE",
"396 561 OFFCURVE",
"396 589 CURVE SMOOTH",
"396 657 OFFCURVE",
"320 700 OFFCURVE",
"243 700 CURVE SMOOTH",
"132 700 OFFCURVE",
"54 630 OFFCURVE",
"54 522 CURVE SMOOTH",
"54 437 OFFCURVE",
"131 386 OFFCURVE",
"189 330 CURVE",
"39 330 LINE",
"39 296 LINE"
);
},
{
closed = 1;
nodes = (
"46 102 OFFCURVE",
"71 114 OFFCURVE",
"93 114 CURVE SMOOTH",
"133 114 OFFCURVE",
"192 77 OFFCURVE",
"225 54 CURVE",
"199 37 OFFCURVE",
"161 22 OFFCURVE",
"130 22 CURVE SMOOTH",
"72 22 OFFCURVE",
"46 48 OFFCURVE",
"46 76 CURVE SMOOTH"
);
}
);
width = 500;
}
);
note = sterling;
unicode = 00A3;
},
{
glyphname = fraction;
lastChange = "2017-06-09 11:42:18 +0000";
layers = (
{
layerId = "167B0F81-32A7-4481-94FC-A22177A24047";
paths = (
{
closed = 1;
nodes = (
"334 700 LINE",
"282 700 LINE",
"-167 -12 LINE",
"-115 -12 LINE"
);
}
);
width = 167;
}
);
note = fraction;
unicode = 2044;
},
{
glyphname = yen;
lastChange = "2017-06-09 11:42:18 +0000";
layers = (
{
layerId = "167B0F81-32A7-4481-94FC-A22177A24047";
paths = (
{
closed = 1;
nodes = (
"205 100 LINE SMOOTH",
"205 52 OFFCURVE",
"189 34 OFFCURVE",
"106 34 CURVE",
"106 0 LINE",
"397 0 LINE",
"397 34 LINE",
"314 34 OFFCURVE",
"299 52 OFFCURVE",
"299 100 CURVE SMOOTH",
"299 238 LINE",
"468 238 LINE",
"468 272 LINE",
"299 272 LINE",
"299 291 LINE",
"320 340 LINE",
"468 340 LINE",
"468 374 LINE",
"335 374 LINE",
"414 559 LINE SMOOTH",
"444 630 OFFCURVE",
"460 654 OFFCURVE",
"511 654 CURVE",
"511 688 LINE",
"330 688 LINE",
"330 654 LINE",
"373 654 OFFCURVE",
"393 642 OFFCURVE",
"393 621 CURVE SMOOTH",
"393 608 OFFCURVE",
"387 587 OFFCURVE",
"376 562 CURVE SMOOTH",
"281 342 LINE",
"192 565 LINE SMOOTH",
"181 592 OFFCURVE",
"173 611 OFFCURVE",
"173 620 CURVE SMOOTH",
"173 644 OFFCURVE",
"195 654 OFFCURVE",
"235 654 CURVE",
"235 688 LINE",
"3 688 LINE",
"3 654 LINE",
"36 654 OFFCURVE",
"56 647 OFFCURVE",
"79 593 CURVE SMOOTH",
"170 374 LINE",
"35 374 LINE",
"35 340 LINE",
"184 340 LINE",
"205 291 LINE",
"205 272 LINE",
"35 272 LINE",
"35 238 LINE",
"205 238 LINE"
);
}
);
width = 500;
}
);
note = yen;
unicode = 00A5;
},
{
glyphname = florin;
lastChange = "2017-06-09 11:42:18 +0000";
layers = (
{
layerId = "167B0F81-32A7-4481-94FC-A22177A24047";
paths = (
{
closed = 1;
nodes = (
"298 592 OFFCURVE",
"320 666 OFFCURVE",
"374 666 CURVE SMOOTH",
"385 666 OFFCURVE",
"394 664 OFFCURVE",
"402 657 CURVE",
"383 643 OFFCURVE",
"374 628 OFFCURVE",
"374 606 CURVE SMOOTH",
"374 579 OFFCURVE",
"395 561 OFFCURVE",
"423 561 CURVE SMOOTH",
"460 561 OFFCURVE",
"482 580 OFFCURVE",
"482 624 CURVE SMOOTH",
"482 672 OFFCURVE",
"436 700 OFFCURVE",
"374 700 CURVE SMOOTH",
"245 700 OFFCURVE",
"198 575 OFFCURVE",
"193 416 CURVE",
"84 416 LINE",
"84 382 LINE",
"191 382 LINE",
"168 68 LINE SMOOTH",
"153 -133 OFFCURVE",
"119 -168 OFFCURVE",
"76 -168 CURVE SMOOTH",
"70 -168 OFFCURVE",
"61 -165 OFFCURVE",
"56 -161 CURVE",
"72 -150 OFFCURVE",
"81 -136 OFFCURVE",
"81 -116 CURVE SMOOTH",
"81 -86 OFFCURVE",
"61 -61 OFFCURVE",
"31 -61 CURVE SMOOTH",
"-8 -61 OFFCURVE",
"-27 -91 OFFCURVE",
"-27 -126 CURVE SMOOTH",
"-27 -174 OFFCURVE",
"21 -202 OFFCURVE",
"63 -202 CURVE SMOOTH",
"177 -202 OFFCURVE",
"235 -114 OFFCURVE",
"248 27 CURVE SMOOTH",
"281 382 LINE",
"403 382 LINE",
"403 416 LINE",
"284 416 LINE"
);
}
);
width = 500;
}
);
note = florin;
unicode = 0192;
},
{
glyphname = section;
lastChange = "2017-06-09 11:42:18 +0000";
layers = (
{
layerId = "167B0F81-32A7-4481-94FC-A22177A24047";
paths = (
{
closed = 1;
nodes = (
"379 665 OFFCURVE",
"307 700 OFFCURVE",
"254 700 CURVE SMOOTH",
"176 700 OFFCURVE",
"111 657 OFFCURVE",
"111 581 CURVE SMOOTH",
"111 507 OFFCURVE",
"151 479 OFFCURVE",
"205 430 CURVE",
"203 428 LINE",
"130 428 OFFCURVE",
"73 385 OFFCURVE",
"73 306 CURVE SMOOTH",
"73 140 OFFCURVE",
"331 88 OFFCURVE",
"331 -30 CURVE SMOOTH",
"331 -79 OFFCURVE",
"292 -106 OFFCURVE",
"246 -106 CURVE SMOOTH",
"204 -106 OFFCURVE",
"175 -84 OFFCURVE",
"175 -69 CURVE SMOOTH",
"175 -52 OFFCURVE",
"207 -50 OFFCURVE",
"207 -15 CURVE SMOOTH",
"207 14 OFFCURVE",
"180 31 OFFCURVE",
"156 31 CURVE SMOOTH",
"124 31 OFFCURVE",
"105 6 OFFCURVE",
"105 -26 CURVE SMOOTH",
"105 -90 OFFCURVE",
"184 -126 OFFCURVE",
"243 -126 CURVE SMOOTH",
"321 -126 OFFCURVE",
"387 -83 OFFCURVE",
"387 2 CURVE SMOOTH",
"387 64 OFFCURVE",
"338 110 OFFCURVE",
"296 147 CURVE",
"298 150 LINE",
"307 148 OFFCURVE",
"316 146 OFFCURVE",
"325 146 CURVE SMOOTH",
"371 146 OFFCURVE",
"427 190 OFFCURVE",
"427 268 CURVE SMOOTH",
"427 414 OFFCURVE",
"167 508 OFFCURVE",
"167 602 CURVE SMOOTH",
"167 652 OFFCURVE",
"205 680 OFFCURVE",
"252 680 CURVE SMOOTH",
"281 680 OFFCURVE",
"314 666 OFFCURVE",
"314 648 CURVE SMOOTH",
"314 631 OFFCURVE",
"281 625 OFFCURVE",
"281 593 CURVE SMOOTH",
"281 569 OFFCURVE",
"299 548 OFFCURVE",
"325 548 CURVE SMOOTH",
"357 548 OFFCURVE",
"379 569 OFFCURVE",
"379 600 CURVE SMOOTH"
);
},
{
closed = 1;
nodes = (
"375 190 OFFCURVE",
"346 166 OFFCURVE",
"304 166 CURVE SMOOTH",
"279 166 OFFCURVE",
"262 176 OFFCURVE",
"240 191 CURVE SMOOTH",
"168 240 OFFCURVE",
"125 293 OFFCURVE",
"125 333 CURVE SMOOTH",
"125 370 OFFCURVE",
"152 404 OFFCURVE",
"194 404 CURVE SMOOTH",
"234 404 OFFCURVE",
"283 366 OFFCURVE",
"340 307 CURVE SMOOTH",
"371 275 OFFCURVE",
"375 256 OFFCURVE",
"375 237 CURVE SMOOTH"
);
}
);
width = 500;
}
);
note = section;
unicode = 00A7;
},
{
glyphname = currency;
lastChange = "2017-06-09 11:42:18 +0000";
layers = (
{
layerId = "167B0F81-32A7-4481-94FC-A22177A24047";
paths = (
{
closed = 1;
nodes = (
"59 117 LINE",
"107 172 LINE",
"149 135 OFFCURVE",
"198 119 OFFCURVE",
"249 119 CURVE SMOOTH",
"300 119 OFFCURVE",
"349 135 OFFCURVE",
"391 172 CURVE",
"439 117 LINE",
"476 154 LINE",
"425 206 LINE",
"462 245 OFFCURVE",
"475 295 OFFCURVE",
"475 345 CURVE SMOOTH",
"475 394 OFFCURVE",
"462 445 OFFCURVE",
"425 483 CURVE",
"476 535 LINE",
"439 571 LINE",
"391 517 LINE",
"349 554 OFFCURVE",
"300 569 OFFCURVE",
"249 569 CURVE SMOOTH",
"198 569 OFFCURVE",
"149 554 OFFCURVE",
"107 517 CURVE",
"59 571 LINE",
"23 535 LINE",
"73 483 LINE",
"36 445 OFFCURVE",
"23 394 OFFCURVE",
"23 345 CURVE SMOOTH",
"23 295 OFFCURVE",
"36 245 OFFCURVE",
"73 206 CURVE",
"23 154 LINE"
);
},
{
closed = 1;
nodes = (
"342 519 OFFCURVE",
"420 441 OFFCURVE",
"420 345 CURVE SMOOTH",
"420 247 OFFCURVE",
"342 169 OFFCURVE",
"249 169 CURVE SMOOTH",
"156 169 OFFCURVE",
"78 247 OFFCURVE",
"78 345 CURVE SMOOTH",
"78 441 OFFCURVE",
"156 519 OFFCURVE",
"249 519 CURVE SMOOTH"
);
}
);
width = 500;
}
);
note = currency;
unicode = 00A4;
},
{
glyphname = quotesingle;
lastChange = "2017-06-09 11:42:18 +0000";
layers = (
{
layerId = "167B0F81-32A7-4481-94FC-A22177A24047";
paths = (
{
closed = 1;
nodes = (
"145 612 OFFCURVE",
"146 632 OFFCURVE",
"146 646 CURVE SMOOTH",
"146 672 OFFCURVE",
"139 700 OFFCURVE",
"111 700 CURVE SMOOTH",
"83 700 OFFCURVE",
"76 672 OFFCURVE",
"76 646 CURVE SMOOTH",
"76 632 OFFCURVE",
"77 612 OFFCURVE",
"79 591 CURVE SMOOTH",
"94 415 LINE SMOOTH",
"96 395 OFFCURVE",
"100 384 OFFCURVE",
"111 384 CURVE SMOOTH",
"122 384 OFFCURVE",
"126 395 OFFCURVE",
"128 415 CURVE SMOOTH",
"143 591 LINE SMOOTH"
);
}
);
width = 222;
}
);
note = quotesingle;
unicode = 0027;
},
{
glyphname = quotedblleft;
lastChange = "2017-06-09 11:42:18 +0000";
layers = (
{
layerId = "167B0F81-32A7-4481-94FC-A22177A24047";
paths = (
{
closed = 1;
nodes = (
"258 669 OFFCURVE",
"213 601 OFFCURVE",
"213 529 CURVE SMOOTH",
"213 478 OFFCURVE",
"251 446 OFFCURVE",
"285 446 CURVE SMOOTH",
"317 446 OFFCURVE",
"343 472 OFFCURVE",
"343 504 CURVE SMOOTH",
"343 546 OFFCURVE",
"312 566 OFFCURVE",
"269 566 CURVE",
"269 612 OFFCURVE",
"281 640 OFFCURVE",
"331 692 CURVE",
"307 716 LINE"
);
},
{
closed = 1;
nodes = (
"91 669 OFFCURVE",
"46 601 OFFCURVE",
"46 529 CURVE SMOOTH",
"46 478 OFFCURVE",
"84 446 OFFCURVE",
"118 446 CURVE SMOOTH",
"150 446 OFFCURVE",
"176 472 OFFCURVE",
"176 504 CURVE SMOOTH",
"176 546 OFFCURVE",
"145 566 OFFCURVE",
"102 566 CURVE",
"102 612 OFFCURVE",
"114 640 OFFCURVE",
"164 692 CURVE",
"140 716 LINE"
);
}
);
width = 389;
}
);
note = quotedblleft;
unicode = 201C;
},
{
glyphname = guillemotleft;
lastChange = "2017-06-09 11:42:18 +0000";
layers = (
{
layerId = "167B0F81-32A7-4481-94FC-A22177A24047";
paths = (
{
closed = 1;
nodes = (
"97 186 OFFCURVE",
"145 152 OFFCURVE",
"172 122 CURVE SMOOTH",
"215 75 OFFCURVE",
"246 49 OFFCURVE",
"253 49 CURVE SMOOTH",
"263 49 OFFCURVE",
"266 57 OFFCURVE",
"266 61 CURVE SMOOTH",
"266 78 OFFCURVE",
"157 214 OFFCURVE",
"143 235 CURVE",
"157 252 OFFCURVE",
"266 371 OFFCURVE",
"266 403 CURVE SMOOTH",
"266 410 OFFCURVE",
"263 415 OFFCURVE",
"258 415 CURVE SMOOTH",
"248 415 OFFCURVE",
"244 409 OFFCURVE",
"236 400 CURVE SMOOTH",
"203 363 OFFCURVE",
"119 285 OFFCURVE",
"56 235 CURVE",
"56 225 LINE"
);
},
{
closed = 1;
nodes = (
"275 186 OFFCURVE",
"323 152 OFFCURVE",
"350 122 CURVE SMOOTH",
"393 75 OFFCURVE",
"424 49 OFFCURVE",
"431 49 CURVE SMOOTH",
"441 49 OFFCURVE",
"444 57 OFFCURVE",
"444 61 CURVE SMOOTH",
"444 78 OFFCURVE",
"335 214 OFFCURVE",
"321 235 CURVE",
"335 252 OFFCURVE",
"444 371 OFFCURVE",
"444 403 CURVE SMOOTH",
"444 410 OFFCURVE",
"441 415 OFFCURVE",
"436 415 CURVE SMOOTH",
"426 415 OFFCURVE",
"422 409 OFFCURVE",
"414 400 CURVE SMOOTH",
"381 363 OFFCURVE",
"297 285 OFFCURVE",
"234 235 CURVE",
"234 225 LINE"
);
}
);
width = 500;
}
);
note = guillemotleft;
unicode = 00AB;
},
{
glyphname = guilsinglleft;
lastChange = "2017-06-09 11:42:18 +0000";
layers = (
{
layerId = "167B0F81-32A7-4481-94FC-A22177A24047";
paths = (
{
closed = 1;
nodes = (
"75 186 OFFCURVE",
"123 152 OFFCURVE",
"150 122 CURVE SMOOTH",
"193 75 OFFCURVE",
"224 49 OFFCURVE",
"231 49 CURVE SMOOTH",
"241 49 OFFCURVE",
"244 57 OFFCURVE",
"244 61 CURVE SMOOTH",
"244 78 OFFCURVE",
"135 214 OFFCURVE",
"121 235 CURVE",
"135 252 OFFCURVE",
"244 371 OFFCURVE",
"244 403 CURVE SMOOTH",
"244 410 OFFCURVE",
"241 415 OFFCURVE",
"236 415 CURVE SMOOTH",
"226 415 OFFCURVE",
"222 409 OFFCURVE",
"214 400 CURVE SMOOTH",
"181 363 OFFCURVE",
"97 285 OFFCURVE",
"34 235 CURVE",
"34 225 LINE"
);
}
);
width = 278;
}
);
note = guilsinglleft;
unicode = 2039;
},
{
glyphname = guilsinglright;
lastChange = "2017-06-09 11:42:18 +0000";
layers = (
{
layerId = "167B0F81-32A7-4481-94FC-A22177A24047";
paths = (
{
closed = 1;
nodes = (
"203 284 OFFCURVE",
"155 318 OFFCURVE",
"128 348 CURVE SMOOTH",
"85 395 OFFCURVE",
"54 421 OFFCURVE",
"47 421 CURVE SMOOTH",
"37 421 OFFCURVE",
"34 413 OFFCURVE",
"34 409 CURVE SMOOTH",
"34 392 OFFCURVE",
"143 256 OFFCURVE",
"157 235 CURVE",
"143 218 OFFCURVE",
"34 99 OFFCURVE",
"34 67 CURVE SMOOTH",
"34 60 OFFCURVE",
"37 55 OFFCURVE",
"42 55 CURVE SMOOTH",
"52 55 OFFCURVE",
"56 61 OFFCURVE",
"64 70 CURVE SMOOTH",
"97 107 OFFCURVE",
"181 185 OFFCURVE",
"244 235 CURVE",
"244 245 LINE"
);
}
);
width = 278;
}
);
note = guilsinglright;
unicode = 203A;
},
{
glyphname = fi;
lastChange = "2017-06-09 11:42:18 +0000";
layers = (
{
layerId = "167B0F81-32A7-4481-94FC-A22177A24047";
paths = (
{
closed = 1;
nodes = (
"186 523 LINE SMOOTH",
"186 594 OFFCURVE",
"241 654 OFFCURVE",
"316 654 CURVE SMOOTH",
"348 654 OFFCURVE",
"384 641 OFFCURVE",
"395 626 CURVE",
"373 616 OFFCURVE",
"364 600 OFFCURVE",
"364 582 CURVE SMOOTH",
"364 556 OFFCURVE",
"384 535 OFFCURVE",
"419 535 CURVE SMOOTH",
"447 535 OFFCURVE",
"472 552 OFFCURVE",
"472 595 CURVE SMOOTH",
"472 652 OFFCURVE",
"406 688 OFFCURVE",
"311 688 CURVE SMOOTH",
"190 688 OFFCURVE",
"92 615 OFFCURVE",
"92 509 CURVE SMOOTH",
"92 470 LINE",
"3 470 LINE",
"3 436 LINE",
"92 436 LINE",
"92 76 LINE SMOOTH",
"92 44 OFFCURVE",
"74 34 OFFCURVE",
"2 34 CURVE",
"2 0 LINE",
"270 0 LINE",
"270 34 LINE",
"204 34 OFFCURVE",
"186 44 OFFCURVE",
"186 76 CURVE SMOOTH",
"186 436 LINE",
"312 436 LINE SMOOTH",
"362 436 OFFCURVE",
"380 426 OFFCURVE",
"380 394 CURVE SMOOTH",
"380 76 LINE SMOOTH",
"380 44 OFFCURVE",
"362 34 OFFCURVE",
"312 34 CURVE",
"312 0 LINE",
"554 0 LINE",
"554 34 LINE",
"492 34 OFFCURVE",
"474 44 OFFCURVE",
"474 76 CURVE SMOOTH",
"474 470 LINE",
"186 470 LINE"
);
}
);
width = 556;
}
);
note = fi;
rightKerningGroup = f;
unicode = FB01;
},
{
glyphname = fl;
lastChange = "2017-06-09 11:42:18 +0000";
layers = (
{
layerId = "167B0F81-32A7-4481-94FC-A22177A24047";
paths = (
{
closed = 1;
nodes = (
"349 682 OFFCURVE",
"325 688 OFFCURVE",
"301 688 CURVE SMOOTH",
"187 688 OFFCURVE",
"92 614 OFFCURVE",
"92 487 CURVE SMOOTH",
"92 470 LINE",
"4 470 LINE",
"4 436 LINE",
"92 436 LINE",
"92 76 LINE SMOOTH",
"92 44 OFFCURVE",
"74 34 OFFCURVE",
"2 34 CURVE",
"2 0 LINE",
"270 0 LINE",
"270 34 LINE",
"204 34 OFFCURVE",
"186 44 OFFCURVE",
"186 76 CURVE SMOOTH",
"186 436 LINE",
"380 436 LINE",
"380 76 LINE SMOOTH",
"380 44 OFFCURVE",
"362 34 OFFCURVE",
"314 34 CURVE",
"314 0 LINE",
"554 0 LINE",
"554 34 LINE",
"492 34 OFFCURVE",
"474 44 OFFCURVE",
"474 76 CURVE SMOOTH",
"474 688 LINE",
"373 678 LINE"
);
},
{
closed = 1;
nodes = (
"186 493 LINE SMOOTH",
"186 600 OFFCURVE",
"240 654 OFFCURVE",
"313 654 CURVE SMOOTH",
"336 654 OFFCURVE",
"357 642 OFFCURVE",
"371 624 CURVE",
"361 615 OFFCURVE",
"351 596 OFFCURVE",
"351 583 CURVE SMOOTH",
"351 564 OFFCURVE",
"362 550 OFFCURVE",
"380 544 CURVE",
"380 470 LINE",
"186 470 LINE"
);
}
);
width = 556;
}
);
note = fl;
rightKerningGroup = f;
unicode = FB02;
},
{
glyphname = endash;
lastChange = "2017-06-09 11:42:18 +0000";
layers = (
{
layerId = "167B0F81-32A7-4481-94FC-A22177A24047";
paths = (
{
closed = 1;
nodes = (
"500 263 LINE",
"0 263 LINE",
"0 207 LINE",
"500 207 LINE"
);
}
);
width = 500;
}
);
note = endash;
unicode = 2013;
},
{
glyphname = dagger;
lastChange = "2017-06-09 11:42:18 +0000";
layers = (
{
layerId = "167B0F81-32A7-4481-94FC-A22177A24047";
paths = (
{
closed = 1;
nodes = (
"260 56 OFFCURVE",
"266 198 OFFCURVE",
"301 277 CURVE",
"264 312 OFFCURVE",
"260 382 OFFCURVE",
"260 460 CURVE",
"346 460 OFFCURVE",
"364 428 OFFCURVE",
"398 428 CURVE SMOOTH",
"429 428 OFFCURVE",
"443 443 OFFCURVE",
"443 472 CURVE SMOOTH",
"443 501 OFFCURVE",
"429 516 OFFCURVE",
"398 516 CURVE SMOOTH",
"364 516 OFFCURVE",
"346 480 OFFCURVE",
"260 480 CURVE",
"260 567 OFFCURVE",
"295 627 OFFCURVE",
"295 651 CURVE SMOOTH",
"295 683 OFFCURVE",
"282 700 OFFCURVE",
"249 700 CURVE SMOOTH",
"216 700 OFFCURVE",
"203 683 OFFCURVE",
"203 651 CURVE SMOOTH",
"203 627 OFFCURVE",
"240 567 OFFCURVE",
"240 480 CURVE",
"154 480 OFFCURVE",
"136 516 OFFCURVE",
"102 516 CURVE SMOOTH",
"71 516 OFFCURVE",
"57 501 OFFCURVE",
"57 472 CURVE SMOOTH",
"57 443 OFFCURVE",
"71 428 OFFCURVE",
"102 428 CURVE SMOOTH",
"136 428 OFFCURVE",
"154 460 OFFCURVE",
"240 460 CURVE",
"240 382 OFFCURVE",
"236 312 OFFCURVE",
"199 277 CURVE",
"234 198 OFFCURVE",
"240 56 OFFCURVE",
"240 -128 CURVE",
"260 -128 LINE"
);
}
);
width = 500;
}
);
note = dagger;
unicode = 2020;
},
{
glyphname = daggerdbl;
lastChange = "2017-06-09 11:42:18 +0000";
layers = (
{
layerId = "167B0F81-32A7-4481-94FC-A22177A24047";
paths = (
{
closed = 1;
nodes = (
"216 700 OFFCURVE",
"203 683 OFFCURVE",
"203 651 CURVE SMOOTH",
"203 627 OFFCURVE",
"240 567 OFFCURVE",
"240 480 CURVE",
"154 480 OFFCURVE",
"136 516 OFFCURVE",
"102 516 CURVE SMOOTH",
"71 516 OFFCURVE",
"57 501 OFFCURVE",
"57 472 CURVE SMOOTH",
"57 443 OFFCURVE",
"71 428 OFFCURVE",
"102 428 CURVE SMOOTH",
"136 428 OFFCURVE",
"154 460 OFFCURVE",
"240 460 CURVE",
"240 382 OFFCURVE",
"232 317 OFFCURVE",
"199 286 CURVE",
"232 255 OFFCURVE",
"240 190 OFFCURVE",
"240 112 CURVE",
"154 112 OFFCURVE",
"136 144 OFFCURVE",
"102 144 CURVE SMOOTH",
"71 144 OFFCURVE",
"57 129 OFFCURVE",
"57 100 CURVE SMOOTH",
"57 71 OFFCURVE",
"71 56 OFFCURVE",
"102 56 CURVE SMOOTH",
"136 56 OFFCURVE",
"154 92 OFFCURVE",
"240 92 CURVE",
"240 5 OFFCURVE",
"203 -55 OFFCURVE",
"203 -79 CURVE SMOOTH",
"203 -111 OFFCURVE",
"216 -128 OFFCURVE",
"249 -128 CURVE SMOOTH",
"282 -128 OFFCURVE",
"295 -111 OFFCURVE",
"295 -79 CURVE SMOOTH",
"295 -55 OFFCURVE",
"260 5 OFFCURVE",
"260 92 CURVE",
"346 92 OFFCURVE",
"364 56 OFFCURVE",
"398 56 CURVE SMOOTH",
"429 56 OFFCURVE",
"443 71 OFFCURVE",
"443 100 CURVE SMOOTH",
"443 129 OFFCURVE",
"429 144 OFFCURVE",
"398 144 CURVE SMOOTH",
"364 144 OFFCURVE",
"346 112 OFFCURVE",
"260 112 CURVE",
"260 190 OFFCURVE",
"268 255 OFFCURVE",
"301 286 CURVE",
"268 317 OFFCURVE",
"260 382 OFFCURVE",
"260 460 CURVE",
"346 460 OFFCURVE",
"364 428 OFFCURVE",
"398 428 CURVE SMOOTH",
"429 428 OFFCURVE",
"443 443 OFFCURVE",
"443 472 CURVE SMOOTH",
"443 501 OFFCURVE",
"429 516 OFFCURVE",
"398 516 CURVE SMOOTH",
"364 516 OFFCURVE",
"346 480 OFFCURVE",
"260 480 CURVE",
"260 567 OFFCURVE",
"295 627 OFFCURVE",
"295 651 CURVE SMOOTH",
"295 683 OFFCURVE",
"282 700 OFFCURVE",
"249 700 CURVE SMOOTH"
);
}
);
width = 500;
}
);
note = daggerdbl;
unicode = 2021;
},
{
glyphname = periodcentered;
lastChange = "2017-06-09 11:42:18 +0000";
layers = (
{
layerId = "167B0F81-32A7-4481-94FC-A22177A24047";
paths = (
{
closed = 1;
nodes = (
"54 203 OFFCURVE",
"80 177 OFFCURVE",
"112 177 CURVE SMOOTH",
"144 177 OFFCURVE",
"170 203 OFFCURVE",
"170 235 CURVE SMOOTH",
"170 267 OFFCURVE",
"144 293 OFFCURVE",
"112 293 CURVE SMOOTH",
"80 293 OFFCURVE",
"54 267 OFFCURVE",
"54 235 CURVE SMOOTH"
);
}
);
width = 250;
}
);
note = periodcentered;
unicode = 00B7;
},
{
glyphname = paragraph;
lastChange = "2017-06-09 11:42:18 +0000";
layers = (
{
layerId = "167B0F81-32A7-4481-94FC-A22177A24047";
paths = (
{
closed = 1;
nodes = (
"110 688 OFFCURVE",
"50 629 OFFCURVE",
"50 490 CURVE SMOOTH",
"50 364 OFFCURVE",
"110 278 OFFCURVE",
"249 278 CURVE",
"249 -127 LINE",
"305 -127 LINE",
"305 654 LINE",
"368 654 LINE",
"368 -127 LINE",
"424 -127 LINE",
"424 594 LINE SMOOTH",
"424 638 OFFCURVE",
"456 654 OFFCURVE",
"506 654 CURVE",
"506 688 LINE",
"258 688 LINE SMOOTH"
);
}
);
width = 600;
}
);
note = paragraph;
unicode = 00B6;
},
{
glyphname = bullet;
lastChange = "2017-06-09 11:42:18 +0000";
layers = (
{
layerId = "167B0F81-32A7-4481-94FC-A22177A24047";
paths = (
{
closed = 1;
nodes = (
"152 516 OFFCURVE",
"78 439 OFFCURVE",
"78 344 CURVE SMOOTH",
"79 248 OFFCURVE",
"153 172 OFFCURVE",
"250 172 CURVE SMOOTH",
"347 172 OFFCURVE",
"422 249 OFFCURVE",
"422 344 CURVE SMOOTH",
"422 439 OFFCURVE",
"347 516 OFFCURVE",
"250 516 CURVE SMOOTH"
);
}
);
width = 500;
}
);
note = bullet;
unicode = 2022;
},
{
glyphname = quotesinglbase;
lastChange = "2017-06-09 11:42:18 +0000";
layers = (
{
layerId = "167B0F81-32A7-4481-94FC-A22177A24047";
paths = (
{
closed = 1;
nodes = (
"131 -107 OFFCURVE",
"176 -39 OFFCURVE",
"176 33 CURVE SMOOTH",
"176 84 OFFCURVE",
"138 116 OFFCURVE",
"104 116 CURVE SMOOTH",
"72 116 OFFCURVE",
"46 90 OFFCURVE",
"46 58 CURVE SMOOTH",
"46 16 OFFCURVE",
"77 -4 OFFCURVE",
"120 -4 CURVE",
"120 -50 OFFCURVE",
"108 -78 OFFCURVE",
"58 -130 CURVE",
"82 -154 LINE"
);
}
);
width = 222;
}
);
note = quotesinglbase;
unicode = 201A;
},
{
glyphname = quotedblbase;
lastChange = "2017-06-09 11:42:18 +0000";
layers = (
{
layerId = "167B0F81-32A7-4481-94FC-A22177A24047";
paths = (
{
closed = 1;
nodes = (
"131 -107 OFFCURVE",
"176 -39 OFFCURVE",
"176 33 CURVE SMOOTH",
"176 84 OFFCURVE",
"138 116 OFFCURVE",
"104 116 CURVE SMOOTH",
"72 116 OFFCURVE",
"46 90 OFFCURVE",
"46 58 CURVE SMOOTH",
"46 16 OFFCURVE",
"77 -4 OFFCURVE",
"120 -4 CURVE",
"120 -50 OFFCURVE",
"108 -78 OFFCURVE",
"58 -130 CURVE",
"82 -154 LINE"
);
},
{
closed = 1;
nodes = (
"298 -107 OFFCURVE",
"343 -39 OFFCURVE",
"343 33 CURVE SMOOTH",
"343 84 OFFCURVE",
"305 116 OFFCURVE",
"271 116 CURVE SMOOTH",
"239 116 OFFCURVE",
"213 90 OFFCURVE",
"213 58 CURVE SMOOTH",
"213 16 OFFCURVE",
"244 -4 OFFCURVE",
"287 -4 CURVE",
"287 -50 OFFCURVE",
"275 -78 OFFCURVE",
"225 -130 CURVE",
"249 -154 LINE"
);
}
);
width = 389;
}
);
note = quotedblbase;
unicode = 201E;
},
{
glyphname = quotedblright;
lastChange = "2017-06-09 11:42:18 +0000";
layers = (
{
layerId = "167B0F81-32A7-4481-94FC-A22177A24047";
paths = (
{
closed = 1;
nodes = (
"131 493 OFFCURVE",
"176 561 OFFCURVE",
"176 633 CURVE SMOOTH",
"176 684 OFFCURVE",
"138 716 OFFCURVE",
"104 716 CURVE SMOOTH",
"72 716 OFFCURVE",
"46 690 OFFCURVE",
"46 658 CURVE SMOOTH",
"46 616 OFFCURVE",
"77 596 OFFCURVE",
"120 596 CURVE",
"120 550 OFFCURVE",
"108 522 OFFCURVE",
"58 470 CURVE",
"82 446 LINE"
);
},
{
closed = 1;
nodes = (
"298 493 OFFCURVE",
"343 561 OFFCURVE",
"343 633 CURVE SMOOTH",
"343 684 OFFCURVE",
"305 716 OFFCURVE",
"271 716 CURVE SMOOTH",
"239 716 OFFCURVE",
"213 690 OFFCURVE",
"213 658 CURVE SMOOTH",
"213 616 OFFCURVE",
"244 596 OFFCURVE",
"287 596 CURVE",
"287 550 OFFCURVE",
"275 522 OFFCURVE",
"225 470 CURVE",
"249 446 LINE"
);
}
);
width = 389;
}
);
note = quotedblright;
unicode = 201D;
},
{
glyphname = guillemotright;
lastChange = "2017-06-09 11:42:18 +0000";
layers = (
{
layerId = "167B0F81-32A7-4481-94FC-A22177A24047";
paths = (
{
closed = 1;
nodes = (
"225 284 OFFCURVE",
"177 318 OFFCURVE",
"150 348 CURVE SMOOTH",
"107 395 OFFCURVE",
"76 421 OFFCURVE",
"69 421 CURVE SMOOTH",
"59 421 OFFCURVE",
"56 413 OFFCURVE",
"56 409 CURVE SMOOTH",
"56 392 OFFCURVE",
"165 256 OFFCURVE",
"179 235 CURVE",
"165 218 OFFCURVE",
"56 99 OFFCURVE",
"56 67 CURVE SMOOTH",
"56 60 OFFCURVE",
"59 55 OFFCURVE",
"64 55 CURVE SMOOTH",
"74 55 OFFCURVE",
"78 61 OFFCURVE",
"86 70 CURVE SMOOTH",
"119 107 OFFCURVE",
"203 185 OFFCURVE",
"266 235 CURVE",
"266 245 LINE"
);
},
{
closed = 1;
nodes = (
"403 284 OFFCURVE",
"355 318 OFFCURVE",
"328 348 CURVE SMOOTH",
"285 395 OFFCURVE",
"254 421 OFFCURVE",
"247 421 CURVE SMOOTH",
"237 421 OFFCURVE",
"234 413 OFFCURVE",
"234 409 CURVE SMOOTH",
"234 392 OFFCURVE",
"343 256 OFFCURVE",
"357 235 CURVE",
"343 218 OFFCURVE",
"234 99 OFFCURVE",
"234 67 CURVE SMOOTH",
"234 60 OFFCURVE",
"237 55 OFFCURVE",
"242 55 CURVE SMOOTH",
"252 55 OFFCURVE",
"256 61 OFFCURVE",
"264 70 CURVE SMOOTH",
"297 107 OFFCURVE",
"381 185 OFFCURVE",
"444 235 CURVE",
"444 245 LINE"
);
}
);
width = 500;
}
);
note = guillemotright;
unicode = 00BB;
},
{
glyphname = ellipsis;
lastChange = "2017-06-09 11:42:18 +0000";
layers = (
{
layerId = "167B0F81-32A7-4481-94FC-A22177A24047";
paths = (
{
closed = 1;
nodes = (
"135 110 OFFCURVE",
"109 88 OFFCURVE",
"109 52 CURVE SMOOTH",
"109 16 OFFCURVE",
"135 -6 OFFCURVE",
"167 -6 CURVE SMOOTH",
"199 -6 OFFCURVE",
"225 16 OFFCURVE",
"225 52 CURVE SMOOTH",
"225 88 OFFCURVE",
"199 110 OFFCURVE",
"167 110 CURVE SMOOTH"
);
},
{
closed = 1;
nodes = (
"468 110 OFFCURVE",
"442 88 OFFCURVE",
"442 52 CURVE SMOOTH",
"442 16 OFFCURVE",
"468 -6 OFFCURVE",
"500 -6 CURVE SMOOTH",
"532 -6 OFFCURVE",
"558 16 OFFCURVE",
"558 52 CURVE SMOOTH",
"558 88 OFFCURVE",
"532 110 OFFCURVE",
"500 110 CURVE SMOOTH"
);
},
{
closed = 1;
nodes = (
"801 110 OFFCURVE",
"775 88 OFFCURVE",
"775 52 CURVE SMOOTH",
"775 16 OFFCURVE",
"801 -6 OFFCURVE",
"833 -6 CURVE SMOOTH",
"865 -6 OFFCURVE",
"891 16 OFFCURVE",
"891 52 CURVE SMOOTH",
"891 88 OFFCURVE",
"865 110 OFFCURVE",
"833 110 CURVE SMOOTH"
);
}
);
width = 1000;
}
);
note = ellipsis;
unicode = 2026;
},
{
glyphname = perthousand;
lastChange = "2017-06-09 11:42:18 +0000";
layers = (
{
layerId = "167B0F81-32A7-4481-94FC-A22177A24047";
paths = (
{
closed = 1;
nodes = (
"87 676 OFFCURVE",
"35 592 OFFCURVE",
"35 479 CURVE SMOOTH",
"35 366 OFFCURVE",
"87 282 OFFCURVE",
"158 282 CURVE SMOOTH",
"229 282 OFFCURVE",
"281 366 OFFCURVE",
"281 479 CURVE SMOOTH",
"281 592 OFFCURVE",
"229 676 OFFCURVE",
"158 676 CURVE SMOOTH"
);
},
{
closed = 1;
nodes = (
"201 648 OFFCURVE",
"223 598 OFFCURVE",
"223 479 CURVE SMOOTH",
"223 360 OFFCURVE",
"201 310 OFFCURVE",
"158 310 CURVE SMOOTH",
"115 310 OFFCURVE",
"93 360 OFFCURVE",
"93 479 CURVE SMOOTH",
"93 598 OFFCURVE",
"115 648 OFFCURVE",
"158 648 CURVE SMOOTH"
);
},
{
closed = 1;
nodes = (
"426 394 OFFCURVE",
"374 310 OFFCURVE",
"374 197 CURVE SMOOTH",
"374 84 OFFCURVE",
"426 0 OFFCURVE",
"497 0 CURVE SMOOTH",
"568 0 OFFCURVE",
"620 84 OFFCURVE",
"620 197 CURVE SMOOTH",
"620 310 OFFCURVE",
"568 394 OFFCURVE",
"497 394 CURVE SMOOTH"
);
},
{
closed = 1;
nodes = (
"540 366 OFFCURVE",
"562 316 OFFCURVE",
"562 197 CURVE SMOOTH",
"562 78 OFFCURVE",
"540 28 OFFCURVE",
"497 28 CURVE SMOOTH",
"454 28 OFFCURVE",
"432 78 OFFCURVE",
"432 197 CURVE SMOOTH",
"432 316 OFFCURVE",
"454 366 OFFCURVE",
"497 366 CURVE SMOOTH"
);
},
{
closed = 1;
nodes = (
"715 394 OFFCURVE",
"663 310 OFFCURVE",
"663 197 CURVE SMOOTH",
"663 84 OFFCURVE",
"715 0 OFFCURVE",
"786 0 CURVE SMOOTH",
"857 0 OFFCURVE",
"909 84 OFFCURVE",
"909 197 CURVE SMOOTH",
"909 310 OFFCURVE",
"857 394 OFFCURVE",
"786 394 CURVE SMOOTH"
);
},
{
closed = 1;
nodes = (
"829 366 OFFCURVE",
"851 316 OFFCURVE",
"851 197 CURVE SMOOTH",
"851 78 OFFCURVE",
"829 28 OFFCURVE",
"786 28 CURVE SMOOTH",
"743 28 OFFCURVE",
"721 78 OFFCURVE",
"721 197 CURVE SMOOTH",
"721 316 OFFCURVE",
"743 366 OFFCURVE",
"786 366 CURVE SMOOTH"
);
},
{
closed = 1;
nodes = (
"537 688 LINE",
"498 688 LINE",
"118 -12 LINE",
"157 -12 LINE"
);
}
);
width = 944;
}
);
note = perthousand;
unicode = 2030;
},
{
glyphname = questiondown;
lastChange = "2017-06-09 11:42:18 +0000";
layers = (
{
layerId = "167B0F81-32A7-4481-94FC-A22177A24047";
paths = (
{
closed = 1;
nodes = (
"222 233 OFFCURVE",
"215 191 OFFCURVE",
"197 173 CURVE SMOOTH",
"141 117 OFFCURVE",
"28 48 OFFCURVE",
"28 -38 CURVE SMOOTH",
"28 -148 OFFCURVE",
"133 -194 OFFCURVE",
"228 -194 CURVE SMOOTH",
"308 -194 OFFCURVE",
"406 -137 OFFCURVE",
"406 -49 CURVE SMOOTH",
"406 -3 OFFCURVE",
"387 34 OFFCURVE",
"338 34 CURVE SMOOTH",
"309 34 OFFCURVE",
"284 9 OFFCURVE",
"284 -21 CURVE SMOOTH",
"284 -51 OFFCURVE",
"304 -72 OFFCURVE",
"336 -72 CURVE SMOOTH",
"348 -72 OFFCURVE",
"356 -70 OFFCURVE",
"364 -68 CURVE",
"364 -127 OFFCURVE",
"300 -160 OFFCURVE",
"247 -160 CURVE SMOOTH",
"171 -160 OFFCURVE",
"122 -102 OFFCURVE",
"122 -29 CURVE SMOOTH",
"122 100 OFFCURVE",
"254 106 OFFCURVE",
"254 226 CURVE SMOOTH",
"254 290 LINE",
"222 290 LINE"
);
},
{
closed = 1;
nodes = (
"264 384 OFFCURVE",
"290 406 OFFCURVE",
"290 442 CURVE SMOOTH",
"290 478 OFFCURVE",
"264 500 OFFCURVE",
"232 500 CURVE SMOOTH",
"200 500 OFFCURVE",
"174 478 OFFCURVE",
"174 442 CURVE SMOOTH",
"174 406 OFFCURVE",
"200 384 OFFCURVE",
"232 384 CURVE SMOOTH"
);
}
);
width = 444;
}
);
note = questiondown;
unicode = 00BF;
},
{
glyphname = grave;
lastChange = "2017-06-09 11:42:18 +0000";
layers = (
{
layerId = "167B0F81-32A7-4481-94FC-A22177A24047";
paths = (
{
closed = 1;
nodes = (
"67 679 LINE SMOOTH",
"55 692 OFFCURVE",
"43 702 OFFCURVE",
"24 702 CURVE SMOOTH",
"0 702 OFFCURVE",
"-10 688 OFFCURVE",
"-10 669 CURVE SMOOTH",
"-10 655 OFFCURVE",
"2 639 OFFCURVE",
"20 628 CURVE SMOOTH",
"174 530 LINE",
"214 530 LINE"
);
}
);
width = 278;
}
);
note = grave;
unicode = 0060;
},
{
glyphname = acute;
lastChange = "2017-06-09 11:42:18 +0000";
layers = (
{
layerId = "167B0F81-32A7-4481-94FC-A22177A24047";
paths = (
{
closed = 1;
nodes = (
"258 636 LINE SMOOTH",
"276 647 OFFCURVE",
"288 663 OFFCURVE",
"288 677 CURVE SMOOTH",
"288 696 OFFCURVE",
"278 710 OFFCURVE",
"254 710 CURVE SMOOTH",
"235 710 OFFCURVE",
"223 700 OFFCURVE",
"211 687 CURVE SMOOTH",
"64 538 LINE",
"104 538 LINE"
);
}
);
width = 278;
}
);
note = acute;
unicode = 00B4;
},
{
glyphname = circumflex;
lastChange = "2017-06-09 11:42:18 +0000";
layers = (
{
layerId = "167B0F81-32A7-4481-94FC-A22177A24047";
paths = (
{
closed = 1;
nodes = (
"259 538 LINE",
"294 538 LINE",
"170 706 LINE",
"108 706 LINE",
"-16 538 LINE",
"16 538 LINE",
"139 641 LINE"
);
}
);
width = 278;
}
);
note = circumflex;
unicode = 02C6;
},
{
glyphname = tilde;
lastChange = "2017-06-09 11:42:18 +0000";
layers = (
{
layerId = "167B0F81-32A7-4481-94FC-A22177A24047";
paths = (
{
closed = 1;
nodes = (
"269 635 OFFCURVE",
"247 612 OFFCURVE",
"219 612 CURVE SMOOTH",
"199 612 OFFCURVE",
"179 624 OFFCURVE",
"158 635 CURVE SMOOTH",
"132 649 OFFCURVE",
"104 658 OFFCURVE",
"83 658 CURVE SMOOTH",
"22 658 OFFCURVE",
"-12 615 OFFCURVE",
"-26 558 CURVE",
"3 558 LINE",
"10 582 OFFCURVE",
"28 602 OFFCURVE",
"59 602 CURVE SMOOTH",
"99 602 OFFCURVE",
"142 556 OFFCURVE",
"194 556 CURVE SMOOTH",
"261 556 OFFCURVE",
"292 601 OFFCURVE",
"304 662 CURVE",
"275 662 LINE"
);
}
);
width = 278;
}
);
note = tilde;
unicode = 02DC;
},
{
glyphname = macron;
lastChange = "2017-06-09 11:42:18 +0000";
layers = (
{
layerId = "167B0F81-32A7-4481-94FC-A22177A24047";
paths = (
{
closed = 1;
nodes = (
"294 628 LINE",
"-16 628 LINE",
"-16 572 LINE",
"294 572 LINE"
);
}
);
width = 278;
}
);
note = macron;
unicode = 00AF;
},
{
glyphname = breve;
lastChange = "2017-06-09 11:42:18 +0000";
layers = (
{
layerId = "167B0F81-32A7-4481-94FC-A22177A24047";
paths = (
{
closed = 1;
nodes = (
"235 636 OFFCURVE",
"201 600 OFFCURVE",
"135 600 CURVE SMOOTH",
"74 600 OFFCURVE",
"34 636 OFFCURVE",
"27 696 CURVE",
"-1 696 LINE",
"-1 604 OFFCURVE",
"44 538 OFFCURVE",
"129 538 CURVE SMOOTH",
"229 538 OFFCURVE",
"272 604 OFFCURVE",
"279 696 CURVE",
"251 696 LINE"
);
}
);
width = 278;
}
);
note = breve;
unicode = 02D8;
},
{
glyphname = dotaccent;
lastChange = "2017-06-09 11:42:18 +0000";
layers = (
{
layerId = "167B0F81-32A7-4481-94FC-A22177A24047";
paths = (
{
closed = 1;
nodes = (
"110 646 OFFCURVE",
"90 624 OFFCURVE",
"90 597 CURVE SMOOTH",
"90 570 OFFCURVE",
"110 548 OFFCURVE",
"139 548 CURVE SMOOTH",
"168 548 OFFCURVE",
"188 570 OFFCURVE",
"188 597 CURVE SMOOTH",
"188 624 OFFCURVE",
"168 646 OFFCURVE",
"139 646 CURVE SMOOTH"
);
}
);
width = 278;
}
);
note = dotaccent;
unicode = 02D9;
},
{
glyphname = dieresis;
lastChange = "2017-06-09 11:42:18 +0000";
layers = (
{
layerId = "167B0F81-32A7-4481-94FC-A22177A24047";
paths = (
{
closed = 1;
nodes = (
"10 646 OFFCURVE",
"-10 624 OFFCURVE",
"-10 597 CURVE SMOOTH",
"-10 570 OFFCURVE",
"10 548 OFFCURVE",
"39 548 CURVE SMOOTH",
"68 548 OFFCURVE",
"88 570 OFFCURVE",
"88 597 CURVE SMOOTH",
"88 624 OFFCURVE",
"68 646 OFFCURVE",
"39 646 CURVE SMOOTH"
);
},
{
closed = 1;
nodes = (
"210 646 OFFCURVE",
"190 624 OFFCURVE",
"190 597 CURVE SMOOTH",
"190 570 OFFCURVE",
"210 548 OFFCURVE",
"239 548 CURVE SMOOTH",
"268 548 OFFCURVE",
"288 570 OFFCURVE",
"288 597 CURVE SMOOTH",
"288 624 OFFCURVE",
"268 646 OFFCURVE",
"239 646 CURVE SMOOTH"
);
}
);
width = 278;
}
);
note = dieresis;
unicode = 00A8;
},
{
glyphname = ring;
lastChange = "2017-06-09 11:42:18 +0000";
layers = (
{
layerId = "167B0F81-32A7-4481-94FC-A22177A24047";
paths = (
{
closed = 1;
nodes = (
"82 730 OFFCURVE",
"40 684 OFFCURVE",
"40 630 CURVE SMOOTH",
"40 576 OFFCURVE",
"82 530 OFFCURVE",
"139 530 CURVE SMOOTH",
"196 530 OFFCURVE",
"238 576 OFFCURVE",
"238 630 CURVE SMOOTH",
"238 684 OFFCURVE",
"196 730 OFFCURVE",
"139 730 CURVE SMOOTH"
);
},
{
closed = 1;
nodes = (
"176 696 OFFCURVE",
"204 666 OFFCURVE",
"204 630 CURVE SMOOTH",
"204 594 OFFCURVE",
"176 564 OFFCURVE",
"139 564 CURVE SMOOTH",
"102 564 OFFCURVE",
"74 594 OFFCURVE",
"74 630 CURVE SMOOTH",
"74 666 OFFCURVE",
"102 696 OFFCURVE",
"139 696 CURVE SMOOTH"
);
}
);
width = 278;
}
);
note = ring;
unicode = 02DA;
},
{
glyphname = cedilla;
lastChange = "2017-06-09 11:42:18 +0000";
layers = (
{
layerId = "167B0F81-32A7-4481-94FC-A22177A24047";
paths = (
{
closed = 1;
nodes = (
"81 -97 LINE",
"90 -96 OFFCURVE",
"99 -94 OFFCURVE",
"108 -94 CURVE SMOOTH",
"142 -94 OFFCURVE",
"162 -103 OFFCURVE",
"162 -127 CURVE SMOOTH",
"162 -164 OFFCURVE",
"135 -172 OFFCURVE",
"103 -172 CURVE SMOOTH",
"83 -172 OFFCURVE",
"61 -167 OFFCURVE",
"42 -161 CURVE",
"28 -192 LINE",
"55 -205 OFFCURVE",
"86 -210 OFFCURVE",
"108 -210 CURVE SMOOTH",
"184 -210 OFFCURVE",
"236 -174 OFFCURVE",
"236 -124 CURVE SMOOTH",
"236 -78 OFFCURVE",
"195 -56 OFFCURVE",
"153 -56 CURVE SMOOTH",
"143 -56 OFFCURVE",
"134 -58 OFFCURVE",
"124 -59 CURVE",
"149 6 LINE",
"115 6 LINE",
"73 -93 LINE"
);
}
);
width = 278;
}
);
note = cedilla;
unicode = 00B8;
},
{
glyphname = hungarumlaut;
lastChange = "2017-06-09 11:42:18 +0000";
layers = (
{
layerId = "167B0F81-32A7-4481-94FC-A22177A24047";
paths = (
{
closed = 1;
nodes = (
"194 625 LINE SMOOTH",
"220 644 OFFCURVE",
"238 658 OFFCURVE",
"238 677 CURVE SMOOTH",
"238 696 OFFCURVE",
"228 710 OFFCURVE",
"204 710 CURVE SMOOTH",
"176 710 OFFCURVE",
"156 683 OFFCURVE",
"126 646 CURVE SMOOTH",
"37 538 LINE",
"74 538 LINE"
);
},
{
closed = 1;
nodes = (
"369 636 LINE SMOOTH",
"387 647 OFFCURVE",
"399 663 OFFCURVE",
"399 677 CURVE SMOOTH",
"399 696 OFFCURVE",
"389 710 OFFCURVE",
"365 710 CURVE SMOOTH",
"346 710 OFFCURVE",
"334 700 OFFCURVE",
"322 687 CURVE SMOOTH",
"175 538 LINE",
"215 538 LINE"
);
}
);
width = 278;
}
);
note = hungarumlaut;
unicode = 02DD;
},
{
glyphname = ogonek;
lastChange = "2017-06-09 11:42:18 +0000";
layers = (
{
layerId = "167B0F81-32A7-4481-94FC-A22177A24047";
paths = (
{
closed = 1;
nodes = (
"158 0 OFFCURVE",
"30 -44 OFFCURVE",
"30 -126 CURVE SMOOTH",
"30 -168 OFFCURVE",
"74 -210 OFFCURVE",
"123 -210 CURVE SMOOTH",
"181 -210 OFFCURVE",
"229 -183 OFFCURVE",
"275 -154 CURVE",
"262 -124 LINE",
"234 -142 OFFCURVE",
"194 -166 OFFCURVE",
"160 -166 CURVE SMOOTH",
"136 -166 OFFCURVE",
"104 -152 OFFCURVE",
"104 -122 CURVE SMOOTH",
"104 -60 OFFCURVE",
"162 -22 OFFCURVE",
"258 10 CURVE",
"258 19 LINE"
);
}
);
width = 278;
}
);
note = ogonek;
unicode = 02DB;
},
{
glyphname = caron;
lastChange = "2017-06-09 11:42:18 +0000";
layers = (
{
layerId = "167B0F81-32A7-4481-94FC-A22177A24047";
paths = (
{
closed = 1;
nodes = (
"19 706 LINE",
"-16 706 LINE",
"108 538 LINE",
"170 538 LINE",
"294 706 LINE",
"262 706 LINE",
"139 603 LINE"
);
}
);
width = 278;
}
);
note = caron;
unicode = 02C7;
},
{
glyphname = emdash;
lastChange = "2017-06-09 11:42:18 +0000";
layers = (
{
layerId = "167B0F81-32A7-4481-94FC-A22177A24047";
paths = (
{
closed = 1;
nodes = (
"1000 263 LINE",
"0 263 LINE",
"0 207 LINE",
"1000 207 LINE"
);
}
);
width = 1000;
}
);
note = emdash;
unicode = 2014;
},
{
glyphname = AE;
lastChange = "2017-06-09 11:42:18 +0000";
layers = (
{
layerId = "167B0F81-32A7-4481-94FC-A22177A24047";
paths = (
{
closed = 1;
nodes = (
"856 261 LINE",
"831 95 OFFCURVE",
"736 34 OFFCURVE",
"619 34 CURVE SMOOTH",
"557 34 OFFCURVE",
"533 46 OFFCURVE",
"533 78 CURVE SMOOTH",
"533 342 LINE",
"623 340 OFFCURVE",
"668 330 OFFCURVE",
"684 222 CURVE",
"712 222 LINE",
"712 498 LINE",
"684 498 LINE",
"668 388 OFFCURVE",
"623 378 OFFCURVE",
"533 376 CURVE",
"533 588 LINE SMOOTH",
"533 638 OFFCURVE",
"586 654 OFFCURVE",
"642 654 CURVE SMOOTH",
"752 654 OFFCURVE",
"822 576 OFFCURVE",
"846 452 CURVE",
"877 452 LINE",
"871 688 LINE",
"297 688 LINE",
"297 654 LINE",
"344 654 OFFCURVE",
"371 650 OFFCURVE",
"371 635 CURVE SMOOTH",
"371 620 OFFCURVE",
"358 603 OFFCURVE",
"343 578 CURVE SMOOTH",
"66 124 LINE SMOOTH",
"30 65 OFFCURVE",
"6 40 OFFCURVE",
"-44 34 CURVE",
"-44 0 LINE",
"208 0 LINE",
"208 34 LINE",
"133 31 OFFCURVE",
"102 46 OFFCURVE",
"102 74 CURVE SMOOTH",
"102 116 OFFCURVE",
"160 184 OFFCURVE",
"194 244 CURVE",
"431 244 LINE",
"431 100 LINE SMOOTH",
"431 52 OFFCURVE",
"417 34 OFFCURVE",
"335 34 CURVE",
"335 0 LINE",
"881 0 LINE",
"887 261 LINE"
);
},
{
closed = 1;
nodes = (
"294 395 OFFCURVE",
"357 517 OFFCURVE",
"428 632 CURVE",
"431 632 LINE",
"431 286 LINE",
"214 286 LINE"
);
}
);
width = 944;
}
);
leftKerningGroup = A;
note = AE;
unicode = 00C6;
},
{
glyphname = ordfeminine;
lastChange = "2017-06-09 11:42:18 +0000";
layers = (
{
layerId = "167B0F81-32A7-4481-94FC-A22177A24047";
paths = (
{
closed = 1;
nodes = (
"289 466 OFFCURVE",
"286 442 OFFCURVE",
"266 442 CURVE SMOOTH",
"253 442 OFFCURVE",
"245 445 OFFCURVE",
"245 472 CURVE SMOOTH",
"245 628 LINE SMOOTH",
"245 685 OFFCURVE",
"188 700 OFFCURVE",
"135 700 CURVE SMOOTH",
"92 700 OFFCURVE",
"8 686 OFFCURVE",
"8 633 CURVE SMOOTH",
"8 614 OFFCURVE",
"23 597 OFFCURVE",
"47 597 CURVE SMOOTH",
"69 597 OFFCURVE",
"84 614 OFFCURVE",
"84 633 CURVE SMOOTH",
"84 649 OFFCURVE",
"74 661 OFFCURVE",
"56 665 CURVE",
"74 675 OFFCURVE",
"97 680 OFFCURVE",
"119 680 CURVE SMOOTH",
"159 680 OFFCURVE",
"183 669 OFFCURVE",
"183 632 CURVE SMOOTH",
"183 587 LINE",
"129 569 OFFCURVE",
"-8 542 OFFCURVE",
"-8 473 CURVE SMOOTH",
"-8 426 OFFCURVE",
"37 404 OFFCURVE",
"84 404 CURVE SMOOTH",
"132 404 OFFCURVE",
"170 417 OFFCURVE",
"188 461 CURVE",
"190 461 LINE",
"195 430 OFFCURVE",
"204 404 OFFCURVE",
"242 404 CURVE SMOOTH",
"288 404 OFFCURVE",
"309 442 OFFCURVE",
"309 481 CURVE",
"289 481 LINE"
);
},
{
closed = 1;
nodes = (
"183 464 OFFCURVE",
"149 428 OFFCURVE",
"108 428 CURVE SMOOTH",
"77 428 OFFCURVE",
"62 448 OFFCURVE",
"62 475 CURVE SMOOTH",
"62 527 OFFCURVE",
"139 557 OFFCURVE",
"183 568 CURVE",
"183 515 LINE SMOOTH"
);
}
);
width = 300;
}
);
note = ordfeminine;
unicode = 00AA;
},
{
glyphname = Lslash;
lastChange = "2017-06-09 11:42:18 +0000";
layers = (
{
layerId = "167B0F81-32A7-4481-94FC-A22177A24047";
paths = (
{
closed = 1;
nodes = (
"516 257 LINE",
"472 64 OFFCURVE",
"368 34 OFFCURVE",
"282 34 CURVE SMOOTH",
"231 34 OFFCURVE",
"209 52 OFFCURVE",
"209 100 CURVE SMOOTH",
"209 341 LINE",
"380 410 LINE",
"380 456 LINE",
"209 387 LINE",
"209 588 LINE SMOOTH",
"209 636 OFFCURVE",
"226 654 OFFCURVE",
"305 654 CURVE",
"305 688 LINE",
"19 688 LINE",
"19 654 LINE",
"90 654 OFFCURVE",
"107 636 OFFCURVE",
"107 588 CURVE SMOOTH",
"107 346 LINE",
"4 304 LINE",
"4 258 LINE",
"107 300 LINE",
"107 100 LINE SMOOTH",
"107 52 OFFCURVE",
"90 34 OFFCURVE",
"17 34 CURVE",
"17 0 LINE",
"541 0 LINE",
"547 257 LINE"
);
}
);
width = 556;
}
);
note = Lslash;
rightKerningGroup = L;
unicode = 0141;
},
{
glyphname = Oslash;
lastChange = "2017-06-09 11:42:18 +0000";
layers = (
{
layerId = "167B0F81-32A7-4481-94FC-A22177A24047";
paths = (
{
closed = 1;
nodes = (
"163 176 OFFCURVE",
"151 250 OFFCURVE",
"151 344 CURVE SMOOTH",
"151 561 OFFCURVE",
"217 666 OFFCURVE",
"361 666 CURVE SMOOTH",
"423 666 OFFCURVE",
"471 646 OFFCURVE",
"505 606 CURVE",
"191 125 LINE"
);
},
{
closed = 1;
nodes = (
"558 514 OFFCURVE",
"571 440 OFFCURVE",
"571 344 CURVE SMOOTH",
"571 127 OFFCURVE",
"505 22 OFFCURVE",
"361 22 CURVE SMOOTH",
"298 22 OFFCURVE",
"250 42 OFFCURVE",
"217 83 CURVE",
"532 565 LINE"
);
},
{
closed = 1;
nodes = (
"115 -74 LINE",
"190 41 LINE",
"238 7 OFFCURVE",
"297 -12 OFFCURVE",
"361 -12 CURVE SMOOTH",
"553 -12 OFFCURVE",
"687 159 OFFCURVE",
"687 344 CURVE SMOOTH",
"687 450 OFFCURVE",
"643 551 OFFCURVE",
"568 620 CURVE",
"647 742 LINE",
"594 742 LINE",
"532 647 LINE",
"484 680 OFFCURVE",
"426 700 OFFCURVE",
"361 700 CURVE SMOOTH",
"169 700 OFFCURVE",
"35 529 OFFCURVE",
"35 344 CURVE SMOOTH",
"35 237 OFFCURVE",
"80 135 OFFCURVE",
"154 69 CURVE",
"61 -74 LINE"
);
}
);
width = 722;
}
);
note = Oslash;
unicode = 00D8;
},
{
glyphname = OE;
lastChange = "2017-06-09 11:42:18 +0000";
layers = (
{
layerId = "167B0F81-32A7-4481-94FC-A22177A24047";
paths = (
{
closed = 1;
nodes = (
"514 64 OFFCURVE",
"454 34 OFFCURVE",
"368 34 CURVE SMOOTH",
"236 34 OFFCURVE",
"140 110 OFFCURVE",
"140 344 CURVE SMOOTH",
"140 578 OFFCURVE",
"236 654 OFFCURVE",
"368 654 CURVE SMOOTH",
"454 654 OFFCURVE",
"514 624 OFFCURVE",
"514 552 CURVE SMOOTH",
"514 136 LINE SMOOTH"
);
},
{
closed = 1;
nodes = (
"933 261 LINE",
"902 121 OFFCURVE",
"837 34 OFFCURVE",
"684 34 CURVE SMOOTH",
"631 34 OFFCURVE",
"616 48 OFFCURVE",
"616 100 CURVE SMOOTH",
"616 344 LINE",
"704 342 OFFCURVE",
"743 332 OFFCURVE",
"765 223 CURVE",
"793 223 LINE",
"793 502 LINE",
"765 502 LINE",
"743 390 OFFCURVE",
"704 380 OFFCURVE",
"616 378 CURVE",
"616 612 LINE SMOOTH",
"616 642 OFFCURVE",
"641 654 OFFCURVE",
"712 654 CURVE SMOOTH",
"840 654 OFFCURVE",
"897 563 OFFCURVE",
"922 452 CURVE",
"953 452 LINE",
"947 688 LINE",
"368 688 LINE SMOOTH",
"158 688 OFFCURVE",
"24 540 OFFCURVE",
"24 344 CURVE SMOOTH",
"24 148 OFFCURVE",
"158 0 OFFCURVE",
"368 0 CURVE SMOOTH",
"958 0 LINE",
"964 261 LINE"
);
}
);
width = 1000;
}
);
note = OE;
unicode = 0152;
},
{
glyphname = ordmasculine;
lastChange = "2017-06-09 11:42:18 +0000";
layers = (
{
layerId = "167B0F81-32A7-4481-94FC-A22177A24047";
paths = (
{
closed = 1;
nodes = (
"219 682 OFFCURVE",
"254 652 OFFCURVE",
"254 552 CURVE SMOOTH",
"254 452 OFFCURVE",
"219 422 OFFCURVE",
"167 422 CURVE SMOOTH",
"114 422 OFFCURVE",
"79 452 OFFCURVE",
"79 552 CURVE SMOOTH",
"79 652 OFFCURVE",
"114 682 OFFCURVE",
"167 682 CURVE SMOOTH"
);
},
{
closed = 1;
nodes = (
"79 700 OFFCURVE",
"9 639 OFFCURVE",
"9 552 CURVE SMOOTH",
"9 465 OFFCURVE",
"79 404 OFFCURVE",
"167 404 CURVE SMOOTH",
"254 404 OFFCURVE",
"324 465 OFFCURVE",
"324 552 CURVE SMOOTH",
"324 639 OFFCURVE",
"254 700 OFFCURVE",
"167 700 CURVE SMOOTH"
);
}
);
width = 334;
}
);
note = ordmasculine;
unicode = 00BA;
},
{
glyphname = ae;
lastChange = "2017-06-09 11:42:18 +0000";
layers = (
{
layerId = "167B0F81-32A7-4481-94FC-A22177A24047";
paths = (
{
closed = 1;
nodes = (
"322 89 OFFCURVE",
"267 30 OFFCURVE",
"204 30 CURVE SMOOTH",
"157 30 OFFCURVE",
"134 62 OFFCURVE",
"134 107 CURVE SMOOTH",
"134 194 OFFCURVE",
"252 244 OFFCURVE",
"322 261 CURVE",
"322 174 LINE SMOOTH"
);
},
{
closed = 1;
nodes = (
"26 25 OFFCURVE",
"96 -12 OFFCURVE",
"167 -12 CURVE SMOOTH",
"230 -12 OFFCURVE",
"280 3 OFFCURVE",
"374 73 CURVE",
"409 21 OFFCURVE",
"465 -12 OFFCURVE",
"532 -12 CURVE SMOOTH",
"639 -12 OFFCURVE",
"694 32 OFFCURVE",
"739 98 CURVE",
"715 114 LINE",
"677 63 OFFCURVE",
"632 22 OFFCURVE",
"565 22 CURVE SMOOTH",
"479 22 OFFCURVE",
"420 100 OFFCURVE",
"420 238 CURVE",
"744 238 LINE",
"744 400 OFFCURVE",
"649 482 OFFCURVE",
"532 482 CURVE SMOOTH",
"478 482 OFFCURVE",
"431 460 OFFCURVE",
"397 425 CURVE",
"368 469 OFFCURVE",
"305 482 OFFCURVE",
"222 482 CURVE SMOOTH",
"131 482 OFFCURVE",
"52 431 OFFCURVE",
"52 370 CURVE SMOOTH",
"52 340 OFFCURVE",
"76 312 OFFCURVE",
"110 312 CURVE SMOOTH",
"144 312 OFFCURVE",
"168 340 OFFCURVE",
"168 370 CURVE SMOOTH",
"168 398 OFFCURVE",
"152 418 OFFCURVE",
"125 423 CURVE",
"155 442 OFFCURVE",
"184 448 OFFCURVE",
"219 448 CURVE SMOOTH",
"257 448 OFFCURVE",
"322 436 OFFCURVE",
"322 386 CURVE SMOOTH",
"322 293 LINE",
"237 264 OFFCURVE",
"26 218 OFFCURVE",
"26 103 CURVE SMOOTH"
);
},
{
closed = 1;
nodes = (
"420 344 OFFCURVE",
"434 448 OFFCURVE",
"530 448 CURVE SMOOTH",
"628 448 OFFCURVE",
"642 344 OFFCURVE",
"642 272 CURVE",
"420 272 LINE"
);
}
);
width = 778;
}
);
leftKerningGroup = a;
note = ae;
unicode = 00E6;
},
{
glyphname = dotlessi;
lastChange = "2017-06-09 11:42:18 +0000";
layers = (
{
layerId = "167B0F81-32A7-4481-94FC-A22177A24047";
paths = (
{
closed = 1;
nodes = (
"262 34 LINE",
"204 34 OFFCURVE",
"186 44 OFFCURVE",
"186 76 CURVE SMOOTH",
"186 476 LINE",
"16 470 LINE",
"16 436 LINE",
"74 436 OFFCURVE",
"92 426 OFFCURVE",
"92 394 CURVE SMOOTH",
"92 76 LINE SMOOTH",
"92 44 OFFCURVE",
"74 34 OFFCURVE",
"16 34 CURVE",
"16 0 LINE",
"262 0 LINE"
);
}
);
width = 278;
}
);
note = dotlessi;
unicode = 0131;
},
{
glyphname = lslash;
lastChange = "2017-06-09 11:42:18 +0000";
layers = (
{
layerId = "167B0F81-32A7-4481-94FC-A22177A24047";
paths = (
{
closed = 1;
nodes = (
"91 76 LINE SMOOTH",
"91 44 OFFCURVE",
"73 34 OFFCURVE",
"15 34 CURVE",
"15 0 LINE",
"261 0 LINE",
"261 34 LINE",
"203 34 OFFCURVE",
"185 44 OFFCURVE",
"185 76 CURVE SMOOTH",
"185 370 LINE",
"282 417 LINE",
"282 455 LINE",
"185 408 LINE",
"185 688 LINE",
"15 682 LINE",
"15 648 LINE",
"73 648 OFFCURVE",
"91 638 OFFCURVE",
"91 606 CURVE SMOOTH",
"91 362 LINE",
"-4 316 LINE",
"-4 278 LINE",
"91 324 LINE"
);
}
);
width = 278;
}
);
note = lslash;
unicode = 0142;
},
{
glyphname = oslash;
lastChange = "2017-06-09 11:42:18 +0000";
layers = (
{
layerId = "167B0F81-32A7-4481-94FC-A22177A24047";
paths = (
{
closed = 1;
nodes = (
"404 350 OFFCURVE",
"413 302 OFFCURVE",
"413 235 CURVE SMOOTH",
"413 71 OFFCURVE",
"359 22 OFFCURVE",
"278 22 CURVE SMOOTH",
"243 22 OFFCURVE",
"213 31 OFFCURVE",
"191 55 CURVE",
"387 383 LINE"
);
},
{
closed = 1;
nodes = (
"151 123 OFFCURVE",
"143 170 OFFCURVE",
"143 235 CURVE SMOOTH",
"143 399 OFFCURVE",
"197 448 OFFCURVE",
"278 448 CURVE SMOOTH",
"312 448 OFFCURVE",
"341 439 OFFCURVE",
"363 417 CURVE",
"167 91 LINE"
);
},
{
closed = 1;
nodes = (
"387 457 LINE",
"354 473 OFFCURVE",
"317 482 OFFCURVE",
"278 482 CURVE SMOOTH",
"143 482 OFFCURVE",
"35 380 OFFCURVE",
"35 235 CURVE SMOOTH",
"35 149 OFFCURVE",
"73 78 OFFCURVE",
"133 34 CURVE",
"59 -90 LINE",
"104 -90 LINE",
"166 14 LINE",
"200 -3 OFFCURVE",
"238 -12 OFFCURVE",
"278 -12 CURVE SMOOTH",
"413 -12 OFFCURVE",
"521 90 OFFCURVE",
"521 235 CURVE SMOOTH",
"521 323 OFFCURVE",
"482 395 OFFCURVE",
"420 438 CURVE",
"485 546 LINE",
"440 546 LINE"
);
}
);
width = 556;
}
);
leftKerningGroup = o;
note = oslash;
unicode = 00F8;
},
{
glyphname = oe;
lastChange = "2017-06-09 11:42:18 +0000";
layers = (
{
layerId = "167B0F81-32A7-4481-94FC-A22177A24047";
paths = (
{
closed = 1;
nodes = (
"143 399 OFFCURVE",
"197 448 OFFCURVE",
"274 448 CURVE SMOOTH",
"351 448 OFFCURVE",
"405 399 OFFCURVE",
"405 235 CURVE SMOOTH",
"405 71 OFFCURVE",
"351 22 OFFCURVE",
"274 22 CURVE SMOOTH",
"197 22 OFFCURVE",
"143 71 OFFCURVE",
"143 235 CURVE SMOOTH"
);
},
{
closed = 1;
nodes = (
"35 90 OFFCURVE",
"143 -12 OFFCURVE",
"278 -12 CURVE SMOOTH",
"348 -12 OFFCURVE",
"414 34 OFFCURVE",
"454 94 CURVE",
"509 23 OFFCURVE",
"573 -12 OFFCURVE",
"652 -12 CURVE SMOOTH",
"734 -12 OFFCURVE",
"789 32 OFFCURVE",
"834 98 CURVE",
"810 114 LINE",
"772 63 OFFCURVE",
"727 22 OFFCURVE",
"664 22 CURVE SMOOTH",
"572 22 OFFCURVE",
"513 100 OFFCURVE",
"513 238 CURVE",
"839 238 LINE",
"839 400 OFFCURVE",
"744 482 OFFCURVE",
"634 482 CURVE SMOOTH",
"566 482 OFFCURVE",
"506 450 OFFCURVE",
"452 382 CURVE",
"412 442 OFFCURVE",
"340 482 OFFCURVE",
"278 482 CURVE SMOOTH",
"143 482 OFFCURVE",
"35 380 OFFCURVE",
"35 235 CURVE SMOOTH"
);
},
{
closed = 1;
nodes = (
"513 344 OFFCURVE",
"550 448 OFFCURVE",
"632 448 CURVE SMOOTH",
"723 448 OFFCURVE",
"737 344 OFFCURVE",
"737 272 CURVE",
"513 272 LINE"
);
}
);
width = 889;
}
);
leftKerningGroup = o;
note = oe;
unicode = 0153;
},
{
glyphname = germandbls;
lastChange = "2017-06-09 11:42:18 +0000";
layers = (
{
layerId = "167B0F81-32A7-4481-94FC-A22177A24047";
paths = (
{
closed = 1;
nodes = (
"186 494 LINE SMOOTH",
"186 612 OFFCURVE",
"242 654 OFFCURVE",
"318 654 CURVE SMOOTH",
"388 654 OFFCURVE",
"444 603 OFFCURVE",
"444 532 CURVE SMOOTH",
"444 376 OFFCURVE",
"268 446 OFFCURVE",
"268 342 CURVE SMOOTH",
"268 214 OFFCURVE",
"511 248 OFFCURVE",
"511 112 CURVE SMOOTH",
"511 50 OFFCURVE",
"460 22 OFFCURVE",
"404 22 CURVE SMOOTH",
"323 22 OFFCURVE",
"282 99 OFFCURVE",
"272 169 CURVE",
"244 169 LINE",
"244 0 LINE",
"272 0 LINE",
"276 9 OFFCURVE",
"280 25 OFFCURVE",
"293 25 CURVE SMOOTH",
"304 25 OFFCURVE",
"340 -12 OFFCURVE",
"405 -12 CURVE SMOOTH",
"500 -12 OFFCURVE",
"577 46 OFFCURVE",
"577 152 CURVE SMOOTH",
"577 316 OFFCURVE",
"330 310 OFFCURVE",
"330 370 CURVE SMOOTH",
"330 400 OFFCURVE",
"532 386 OFFCURVE",
"532 526 CURVE SMOOTH",
"532 634 OFFCURVE",
"409 688 OFFCURVE",
"312 688 CURVE SMOOTH",
"201 688 OFFCURVE",
"92 609 OFFCURVE",
"92 479 CURVE SMOOTH",
"92 470 LINE",
"16 470 LINE",
"16 436 LINE",
"92 436 LINE",
"92 76 LINE SMOOTH",
"92 44 OFFCURVE",
"74 34 OFFCURVE",
"20 34 CURVE",
"20 0 LINE",
"186 0 LINE"
);
}
);
width = 611;
}
);
note = germandbls;
unicode = 00DF;
},
{
glyphname = onesuperior;
lastChange = "2017-06-09 11:42:18 +0000";
layers = (
{
layerId = "167B0F81-32A7-4481-94FC-A22177A24047";
paths = (
{
closed = 1;
nodes = (
"106 640 OFFCURVE",
"119 631 OFFCURVE",
"119 613 CURVE SMOOTH",
"119 347 LINE SMOOTH",
"119 313 OFFCURVE",
"104 300 OFFCURVE",
"41 300 CURVE",
"41 280 LINE",
"259 280 LINE",
"259 300 LINE",
"197 300 OFFCURVE",
"181 313 OFFCURVE",
"181 347 CURVE SMOOTH",
"181 696 LINE",
"163 696 LINE",
"144 677 OFFCURVE",
"104 660 OFFCURVE",
"53 660 CURVE",
"53 640 LINE"
);
}
);
width = 300;
}
);
note = onesuperior;
unicode = 00B9;
},
{
glyphname = logicalnot;
lastChange = "2017-06-09 11:42:18 +0000";
layers = (
{
layerId = "167B0F81-32A7-4481-94FC-A22177A24047";
paths = (
{
closed = 1;
nodes = (
"535 115 LINE",
"535 355 LINE",
"65 355 LINE",
"65 299 LINE",
"479 299 LINE",
"479 115 LINE"
);
}
);
width = 600;
}
);
note = logicalnot;
unicode = 00AC;
},
{
glyphname = mu;
lastChange = "2017-06-09 11:42:18 +0000";
layers = (
{
layerId = "167B0F81-32A7-4481-94FC-A22177A24047";
paths = (
{
closed = 1;
nodes = (
"543 34 LINE",
"491 34 OFFCURVE",
"473 44 OFFCURVE",
"473 76 CURVE SMOOTH",
"473 470 LINE",
"301 470 LINE",
"301 436 LINE",
"361 436 OFFCURVE",
"379 426 OFFCURVE",
"379 394 CURVE SMOOTH",
"379 170 LINE",
"370 104 OFFCURVE",
"334 28 OFFCURVE",
"252 28 CURVE SMOOTH",
"199 28 OFFCURVE",
"177 68 OFFCURVE",
"177 124 CURVE SMOOTH",
"177 470 LINE",
"12 470 LINE",
"12 436 LINE",
"65 436 OFFCURVE",
"83 426 OFFCURVE",
"83 401 CURVE SMOOTH",
"83 -106 LINE SMOOTH",
"83 -138 OFFCURVE",
"65 -148 OFFCURVE",
"12 -148 CURVE",
"12 -182 LINE",
"177 -182 LINE",
"177 -4 LINE",
"194 -9 OFFCURVE",
"213 -12 OFFCURVE",
"232 -12 CURVE SMOOTH",
"301 -12 OFFCURVE",
"349 26 OFFCURVE",
"385 88 CURVE",
"387 88 LINE",
"387 -6 LINE",
"543 0 LINE"
);
}
);
width = 556;
}
);
note = mu;
unicode = 00B5;
},
{
glyphname = trademark;
lastChange = "2017-06-09 11:42:18 +0000";
layers = (
{
layerId = "167B0F81-32A7-4481-94FC-A22177A24047";
paths = (
{
closed = 1;
nodes = (
"292 680 LINE SMOOTH",
"333 680 OFFCURVE",
"351 650 OFFCURVE",
"360 612 CURVE",
"380 612 LINE",
"380 700 LINE",
"40 700 LINE",
"40 612 LINE",
"60 612 LINE",
"68 650 OFFCURVE",
"85 680 OFFCURVE",
"127 680 CURVE SMOOTH",
"178 680 LINE",
"178 358 LINE SMOOTH",
"178 328 OFFCURVE",
"167 316 OFFCURVE",
"128 316 CURVE",
"128 296 LINE",
"290 296 LINE",
"290 316 LINE",
"251 316 OFFCURVE",
"240 328 OFFCURVE",
"240 358 CURVE SMOOTH",
"240 680 LINE"
);
},
{
closed = 1;
nodes = (
"681 294 LINE",
"836 607 LINE",
"839 607 LINE",
"839 358 LINE SMOOTH",
"839 328 OFFCURVE",
"828 316 OFFCURVE",
"789 316 CURVE",
"789 296 LINE",
"951 296 LINE",
"951 316 LINE",
"912 316 OFFCURVE",
"901 328 OFFCURVE",
"901 358 CURVE SMOOTH",
"901 638 LINE SMOOTH",
"901 668 OFFCURVE",
"912 680 OFFCURVE",
"959 680 CURVE",
"959 700 LINE",
"860 700 LINE",
"696 385 LINE",
"539 700 LINE",
"424 700 LINE",
"424 680 LINE",
"452 680 OFFCURVE",
"481 660 OFFCURVE",
"494 631 CURVE",
"494 380 LINE SMOOTH",
"494 336 OFFCURVE",
"484 320 OFFCURVE",
"440 316 CURVE",
"440 296 LINE",
"570 296 LINE",
"570 316 LINE",
"527 320 OFFCURVE",
"518 336 OFFCURVE",
"518 380 CURVE SMOOTH",
"518 604 LINE",
"520 604 LINE",
"672 294 LINE"
);
}
);
width = 990;
}
);
note = trademark;
unicode = 2122;
},
{
glyphname = Eth;
lastChange = "2017-06-09 11:42:18 +0000";
layers = (
{
layerId = "167B0F81-32A7-4481-94FC-A22177A24047";
paths = (
{
closed = 1;
nodes = (
"34 401 LINE",
"34 359 LINE",
"124 359 LINE",
"124 100 LINE SMOOTH",
"124 52 OFFCURVE",
"107 34 OFFCURVE",
"30 34 CURVE",
"30 0 LINE",
"362 0 LINE SMOOTH",
"504 0 OFFCURVE",
"680 110 OFFCURVE",
"680 344 CURVE SMOOTH",
"680 578 OFFCURVE",
"502 688 OFFCURVE",
"354 688 CURVE SMOOTH",
"30 688 LINE",
"30 654 LINE",
"107 654 OFFCURVE",
"124 636 OFFCURVE",
"124 588 CURVE SMOOTH",
"124 401 LINE"
);
},
{
closed = 1;
nodes = (
"226 640 OFFCURVE",
"241 654 OFFCURVE",
"330 654 CURVE SMOOTH",
"486 654 OFFCURVE",
"564 584 OFFCURVE",
"564 343 CURVE SMOOTH",
"564 156 OFFCURVE",
"528 34 OFFCURVE",
"330 34 CURVE SMOOTH",
"241 34 OFFCURVE",
"226 48 OFFCURVE",
"226 106 CURVE SMOOTH",
"226 359 LINE",
"426 359 LINE",
"426 401 LINE",
"226 401 LINE",
"226 582 LINE SMOOTH"
);
}
);
width = 722;
}
);
note = Eth;
unicode = 00D0;
},
{
glyphname = onehalf;
lastChange = "2017-06-09 11:42:18 +0000";
layers = (
{
layerId = "167B0F81-32A7-4481-94FC-A22177A24047";
paths = (
{
closed = 1;
nodes = (
"628 700 LINE",
"576 700 LINE",
"127 -12 LINE",
"179 -12 LINE"
);
},
{
closed = 1;
nodes = (
"735 126 LINE",
"710 126 LINE",
"702 68 OFFCURVE",
"680 48 OFFCURVE",
"623 48 CURVE SMOOTH",
"497 48 LINE",
"536 153 OFFCURVE",
"730 174 OFFCURVE",
"730 308 CURVE SMOOTH",
"730 383 OFFCURVE",
"662 420 OFFCURVE",
"591 420 CURVE SMOOTH",
"523 420 OFFCURVE",
"461 379 OFFCURVE",
"461 313 CURVE SMOOTH",
"461 278 OFFCURVE",
"476 260 OFFCURVE",
"502 260 CURVE SMOOTH",
"527 260 OFFCURVE",
"541 278 OFFCURVE",
"541 295 CURVE SMOOTH",
"541 320 OFFCURVE",
"524 330 OFFCURVE",
"507 330 CURVE SMOOTH",
"497 330 OFFCURVE",
"490 326 OFFCURVE",
"484 323 CURVE",
"489 370 OFFCURVE",
"526 396 OFFCURVE",
"576 396 CURVE SMOOTH",
"636 396 OFFCURVE",
"668 364 OFFCURVE",
"668 308 CURVE SMOOTH",
"668 187 OFFCURVE",
"454 141 OFFCURVE",
"454 0 CURVE",
"729 0 LINE"
);
},
{
closed = 1;
nodes = (
"110 640 OFFCURVE",
"123 631 OFFCURVE",
"123 613 CURVE SMOOTH",
"123 347 LINE SMOOTH",
"123 313 OFFCURVE",
"108 300 OFFCURVE",
"45 300 CURVE",
"45 280 LINE",
"263 280 LINE",
"263 300 LINE",
"201 300 OFFCURVE",
"185 313 OFFCURVE",
"185 347 CURVE SMOOTH",
"185 696 LINE",
"167 696 LINE",
"148 677 OFFCURVE",
"108 660 OFFCURVE",
"57 660 CURVE",
"57 640 LINE"
);
}
);
width = 750;
}
);
note = onehalf;
unicode = 00BD;
},
{
glyphname = plusminus;
lastChange = "2017-06-09 11:42:18 +0000";
layers = (
{
layerId = "167B0F81-32A7-4481-94FC-A22177A24047";
paths = (
{
closed = 1;
nodes = (
"65 309 LINE",
"65 253 LINE",
"272 253 LINE",
"272 90 LINE",
"328 90 LINE",
"328 253 LINE",
"535 253 LINE",
"535 309 LINE",
"328 309 LINE",
"328 470 LINE",
"272 470 LINE",
"272 309 LINE"
);
},
{
closed = 1;
nodes = (
"535 0 LINE",
"535 56 LINE",
"65 56 LINE",
"65 0 LINE"
);
}
);
width = 600;
}
);
note = plusminus;
unicode = 00B1;
},
{
glyphname = Thorn;
lastChange = "2017-06-09 11:42:18 +0000";
layers = (
{
layerId = "167B0F81-32A7-4481-94FC-A22177A24047";
paths = (
{
closed = 1;
nodes = (
"124 52 OFFCURVE",
"107 34 OFFCURVE",
"28 34 CURVE",
"28 0 LINE",
"322 0 LINE",
"322 34 LINE",
"243 34 OFFCURVE",
"226 52 OFFCURVE",
"226 100 CURVE SMOOTH",
"226 190 LINE",
"268 189 OFFCURVE",
"313 188 OFFCURVE",
"357 188 CURVE SMOOTH",
"509 188 OFFCURVE",
"595 270 OFFCURVE",
"595 375 CURVE SMOOTH",
"595 482 OFFCURVE",
"509 560 OFFCURVE",
"357 560 CURVE SMOOTH",
"313 560 OFFCURVE",
"267 559 OFFCURVE",
"226 558 CURVE",
"226 588 LINE SMOOTH",
"226 636 OFFCURVE",
"243 654 OFFCURVE",
"322 654 CURVE",
"322 688 LINE",
"28 688 LINE",
"28 654 LINE",
"107 654 OFFCURVE",
"124 636 OFFCURVE",
"124 588 CURVE SMOOTH",
"124 100 LINE SMOOTH"
);
},
{
closed = 1;
nodes = (
"245 520 OFFCURVE",
"278 526 OFFCURVE",
"331 526 CURVE SMOOTH",
"432 526 OFFCURVE",
"479 463 OFFCURVE",
"479 369 CURVE SMOOTH",
"479 261 OFFCURVE",
"439 222 OFFCURVE",
"321 222 CURVE SMOOTH",
"289 222 OFFCURVE",
"256 224 OFFCURVE",
"226 224 CURVE",
"226 499 LINE"
);
}
);
width = 611;
}
);
note = Thorn;
unicode = 00DE;
},
{
glyphname = onequarter;
lastChange = "2017-06-09 11:42:18 +0000";
layers = (
{
layerId = "167B0F81-32A7-4481-94FC-A22177A24047";
paths = (
{
closed = 1;
nodes = (
"625 416 LINE",
"428 132 LINE",
"428 110 LINE",
"601 110 LINE",
"601 67 LINE SMOOTH",
"601 33 OFFCURVE",
"585 20 OFFCURVE",
"535 20 CURVE",
"535 0 LINE",
"717 0 LINE",
"718 20 LINE",
"679 20 OFFCURVE",
"663 33 OFFCURVE",
"663 67 CURVE SMOOTH",
"663 110 LINE",
"730 110 LINE",
"730 130 LINE",
"663 130 LINE",
"663 416 LINE"
);
},
{
closed = 1;
nodes = (
"599 328 LINE",
"601 328 LINE",
"601 130 LINE",
"461 130 LINE"
);
},
{
closed = 1;
nodes = (
"652 700 LINE",
"600 700 LINE",
"151 -12 LINE",
"203 -12 LINE"
);
},
{
closed = 1;
nodes = (
"110 638 OFFCURVE",
"123 629 OFFCURVE",
"123 611 CURVE SMOOTH",
"123 345 LINE SMOOTH",
"123 311 OFFCURVE",
"108 298 OFFCURVE",
"45 298 CURVE",
"45 278 LINE",
"263 278 LINE",
"263 298 LINE",
"201 298 OFFCURVE",
"185 311 OFFCURVE",
"185 345 CURVE SMOOTH",
"185 694 LINE",
"167 694 LINE",
"148 675 OFFCURVE",
"108 658 OFFCURVE",
"57 658 CURVE",
"57 638 LINE"
);
}
);
width = 750;
}
);
note = onequarter;
unicode = 00BC;
},
{
glyphname = divide;
lastChange = "2017-06-09 11:42:18 +0000";
layers = (
{
layerId = "167B0F81-32A7-4481-94FC-A22177A24047";
paths = (
{
closed = 1;
nodes = (
"535 263 LINE",
"65 263 LINE",
"65 207 LINE",
"535 207 LINE"
);
},
{
closed = 1;
nodes = (
"269 482 OFFCURVE",
"242 456 OFFCURVE",
"242 426 CURVE SMOOTH",
"242 396 OFFCURVE",
"269 370 OFFCURVE",
"298 370 CURVE SMOOTH",
"327 370 OFFCURVE",
"354 396 OFFCURVE",
"354 426 CURVE SMOOTH",
"354 456 OFFCURVE",
"327 482 OFFCURVE",
"298 482 CURVE SMOOTH"
);
},
{
closed = 1;
nodes = (
"269 100 OFFCURVE",
"242 74 OFFCURVE",
"242 44 CURVE SMOOTH",
"242 14 OFFCURVE",
"269 -12 OFFCURVE",
"298 -12 CURVE SMOOTH",
"327 -12 OFFCURVE",
"354 14 OFFCURVE",
"354 44 CURVE SMOOTH",
"354 74 OFFCURVE",
"327 100 OFFCURVE",
"298 100 CURVE SMOOTH"
);
}
);
width = 600;
}
);
note = divide;
unicode = 00F7;
},
{
glyphname = brokenbar;
lastChange = "2017-06-09 11:42:18 +0000";
layers = (
{
layerId = "167B0F81-32A7-4481-94FC-A22177A24047";
paths = (
{
closed = 1;
nodes = (
"139 0 LINE",
"139 275 LINE",
"83 275 LINE",
"83 0 LINE"
);
},
{
closed = 1;
nodes = (
"139 413 LINE",
"139 688 LINE",
"83 688 LINE",
"83 413 LINE"
);
}
);
width = 222;
}
);
note = brokenbar;
unicode = 00A6;
},
{
glyphname = degree;
lastChange = "2017-06-09 11:42:18 +0000";
layers = (
{
layerId = "167B0F81-32A7-4481-94FC-A22177A24047";
paths = (
{
closed = 1;
nodes = (
"256 672 OFFCURVE",
"300 625 OFFCURVE",
"300 569 CURVE SMOOTH",
"300 513 OFFCURVE",
"256 466 OFFCURVE",
"200 466 CURVE SMOOTH",
"144 466 OFFCURVE",
"100 513 OFFCURVE",
"100 569 CURVE SMOOTH",
"100 625 OFFCURVE",
"144 672 OFFCURVE",
"200 672 CURVE SMOOTH"
);
},
{
closed = 1;
nodes = (
"120 712 OFFCURVE",
"56 649 OFFCURVE",
"56 569 CURVE SMOOTH",
"56 489 OFFCURVE",
"120 426 OFFCURVE",
"200 426 CURVE SMOOTH",
"280 426 OFFCURVE",
"344 489 OFFCURVE",
"344 569 CURVE SMOOTH",
"344 649 OFFCURVE",
"280 712 OFFCURVE",
"200 712 CURVE SMOOTH"
);
}
);
width = 400;
}
);
note = degree;
unicode = 00B0;
},
{
glyphname = thorn;
lastChange = "2017-06-09 11:42:18 +0000";
layers = (
{
layerId = "167B0F81-32A7-4481-94FC-A22177A24047";
paths = (
{
closed = 1;
nodes = (
"-2 682 LINE",
"-2 648 LINE",
"56 648 OFFCURVE",
"74 638 OFFCURVE",
"74 606 CURVE SMOOTH",
"74 -106 LINE SMOOTH",
"74 -138 OFFCURVE",
"56 -148 OFFCURVE",
"-6 -148 CURVE",
"-6 -182 LINE",
"258 -182 LINE",
"258 -148 LINE",
"186 -148 OFFCURVE",
"168 -138 OFFCURVE",
"168 -106 CURVE SMOOTH",
"168 69 LINE",
"170 69 LINE",
"200 12 OFFCURVE",
"233 -12 OFFCURVE",
"304 -12 CURVE SMOOTH",
"424 -12 OFFCURVE",
"514 108 OFFCURVE",
"514 240 CURVE SMOOTH",
"514 365 OFFCURVE",
"420 482 OFFCURVE",
"303 482 CURVE SMOOTH",
"226 482 OFFCURVE",
"187 434 OFFCURVE",
"170 384 CURVE",
"168 384 LINE",
"168 688 LINE"
);
},
{
closed = 1;
nodes = (
"376 448 OFFCURVE",
"412 358 OFFCURVE",
"412 232 CURVE SMOOTH",
"412 84 OFFCURVE",
"376 22 OFFCURVE",
"282 22 CURVE SMOOTH",
"249 22 OFFCURVE",
"168 53 OFFCURVE",
"168 205 CURVE SMOOTH",
"168 232 LINE SMOOTH",
"168 358 OFFCURVE",
"214 448 OFFCURVE",
"290 448 CURVE SMOOTH"
);
}
);
width = 556;
}
);
note = thorn;
unicode = 00FE;
},
{
glyphname = threequarters;
lastChange = "2017-06-09 11:42:18 +0000";
layers = (
{
layerId = "167B0F81-32A7-4481-94FC-A22177A24047";
paths = (
{
closed = 1;
nodes = (
"652 700 LINE",
"600 700 LINE",
"151 -12 LINE",
"203 -12 LINE"
);
},
{
closed = 1;
nodes = (
"294 460 OFFCURVE",
"244 495 OFFCURVE",
"186 499 CURVE",
"186 501 LINE",
"234 512 OFFCURVE",
"282 545 OFFCURVE",
"282 595 CURVE SMOOTH",
"282 668 OFFCURVE",
"206 700 OFFCURVE",
"137 700 CURVE SMOOTH",
"70 700 OFFCURVE",
"17 657 OFFCURVE",
"17 603 CURVE SMOOTH",
"17 574 OFFCURVE",
"34 555 OFFCURVE",
"54 555 CURVE SMOOTH",
"76 555 OFFCURVE",
"93 568 OFFCURVE",
"93 590 CURVE SMOOTH",
"93 611 OFFCURVE",
"80 623 OFFCURVE",
"61 623 CURVE SMOOTH",
"54 623 OFFCURVE",
"47 621 OFFCURVE",
"41 618 CURVE",
"46 660 OFFCURVE",
"90 676 OFFCURVE",
"132 676 CURVE SMOOTH",
"192 676 OFFCURVE",
"220 642 OFFCURVE",
"220 592 CURVE SMOOTH",
"220 554 OFFCURVE",
"196 508 OFFCURVE",
"148 508 CURVE SMOOTH",
"138 508 OFFCURVE",
"130 511 OFFCURVE",
"120 511 CURVE SMOOTH",
"109 511 OFFCURVE",
"99 506 OFFCURVE",
"99 497 CURVE SMOOTH",
"99 486 OFFCURVE",
"108 484 OFFCURVE",
"115 484 CURVE SMOOTH",
"128 484 OFFCURVE",
"143 488 OFFCURVE",
"156 488 CURVE SMOOTH",
"210 488 OFFCURVE",
"228 438 OFFCURVE",
"228 397 CURVE SMOOTH",
"228 336 OFFCURVE",
"193 297 OFFCURVE",
"121 297 CURVE SMOOTH",
"74 297 OFFCURVE",
"30 313 OFFCURVE",
"28 359 CURVE",
"34 356 OFFCURVE",
"43 353 OFFCURVE",
"52 353 CURVE SMOOTH",
"70 353 OFFCURVE",
"87 368 OFFCURVE",
"87 388 CURVE SMOOTH",
"87 406 OFFCURVE",
"71 421 OFFCURVE",
"49 421 CURVE SMOOTH",
"20 421 OFFCURVE",
"4 399 OFFCURVE",
"4 367 CURVE SMOOTH",
"4 303 OFFCURVE",
"62 273 OFFCURVE",
"122 273 CURVE SMOOTH",
"211 273 OFFCURVE",
"294 321 OFFCURVE",
"294 402 CURVE SMOOTH"
);
},
{
closed = 1;
nodes = (
"622 416 LINE",
"425 132 LINE",
"425 110 LINE",
"598 110 LINE",
"598 67 LINE SMOOTH",
"598 33 OFFCURVE",
"582 20 OFFCURVE",
"532 20 CURVE",
"532 0 LINE",
"714 0 LINE",
"715 20 LINE",
"676 20 OFFCURVE",
"660 33 OFFCURVE",
"660 67 CURVE SMOOTH",
"660 110 LINE",
"727 110 LINE",
"727 130 LINE",
"660 130 LINE",
"660 416 LINE"
);
},
{
closed = 1;
nodes = (
"596 328 LINE",
"598 328 LINE",
"598 130 LINE",
"458 130 LINE"
);
}
);
width = 750;
}
);
note = threequarters;
unicode = 00BE;
},
{
glyphname = twosuperior;
lastChange = "2017-06-09 11:42:18 +0000";
layers = (
{
layerId = "167B0F81-32A7-4481-94FC-A22177A24047";
paths = (
{
closed = 1;
nodes = (
"290 406 LINE",
"265 406 LINE",
"257 348 OFFCURVE",
"235 328 OFFCURVE",
"178 328 CURVE SMOOTH",
"52 328 LINE",
"91 433 OFFCURVE",
"285 454 OFFCURVE",
"285 588 CURVE SMOOTH",
"285 663 OFFCURVE",
"217 700 OFFCURVE",
"146 700 CURVE SMOOTH",
"78 700 OFFCURVE",
"16 659 OFFCURVE",
"16 593 CURVE SMOOTH",
"16 558 OFFCURVE",
"31 540 OFFCURVE",
"57 540 CURVE SMOOTH",
"82 540 OFFCURVE",
"96 558 OFFCURVE",
"96 575 CURVE SMOOTH",
"96 600 OFFCURVE",
"79 610 OFFCURVE",
"62 610 CURVE SMOOTH",
"52 610 OFFCURVE",
"45 606 OFFCURVE",
"39 603 CURVE",
"44 650 OFFCURVE",
"81 676 OFFCURVE",
"131 676 CURVE SMOOTH",
"191 676 OFFCURVE",
"223 644 OFFCURVE",
"223 588 CURVE SMOOTH",
"223 467 OFFCURVE",
"9 421 OFFCURVE",
"9 280 CURVE",
"284 280 LINE"
);
}
);
width = 300;
}
);
note = twosuperior;
unicode = 00B2;
},
{
glyphname = registered;
lastChange = "2017-06-09 11:42:18 +0000";
layers = (
{
layerId = "167B0F81-32A7-4481-94FC-A22177A24047";
paths = (
{
closed = 1;
nodes = (
"497 353 OFFCURVE",
"534 391 OFFCURVE",
"534 445 CURVE SMOOTH",
"534 510 OFFCURVE",
"475 540 OFFCURVE",
"413 540 CURVE SMOOTH",
"235 540 LINE",
"235 524 LINE",
"279 524 OFFCURVE",
"285 512 OFFCURVE",
"285 478 CURVE SMOOTH",
"285 220 LINE SMOOTH",
"285 186 OFFCURVE",
"279 174 OFFCURVE",
"235 174 CURVE",
"235 158 LINE",
"397 158 LINE",
"397 174 LINE",
"353 174 OFFCURVE",
"347 186 OFFCURVE",
"347 220 CURVE SMOOTH",
"347 326 LINE",
"401 326 LINE",
"472 224 OFFCURVE",
"495 158 OFFCURVE",
"531 158 CURVE SMOOTH",
"592 158 LINE",
"592 167 LINE",
"571 180 OFFCURVE",
"538 217 OFFCURVE",
"510 255 CURVE SMOOTH",
"450 337 LINE"
);
},
{
closed = 1;
nodes = (
"392 520 LINE SMOOTH",
"434 520 OFFCURVE",
"472 500 OFFCURVE",
"472 441 CURVE SMOOTH",
"472 382 OFFCURVE",
"446 346 OFFCURVE",
"395 346 CURVE SMOOTH",
"347 346 LINE",
"347 520 LINE"
);
},
{
closed = 1;
nodes = (
"208 700 OFFCURVE",
"52 538 OFFCURVE",
"52 344 CURVE SMOOTH",
"52 150 OFFCURVE",
"208 -12 OFFCURVE",
"400 -12 CURVE SMOOTH",
"592 -12 OFFCURVE",
"748 150 OFFCURVE",
"748 344 CURVE SMOOTH",
"748 538 OFFCURVE",
"592 700 OFFCURVE",
"400 700 CURVE SMOOTH"
);
},
{
closed = 1;
nodes = (
"560 660 OFFCURVE",
"696 514 OFFCURVE",
"696 344 CURVE SMOOTH",
"696 174 OFFCURVE",
"560 28 OFFCURVE",
"400 28 CURVE SMOOTH",
"240 28 OFFCURVE",
"104 174 OFFCURVE",
"104 344 CURVE SMOOTH",
"104 514 OFFCURVE",
"240 660 OFFCURVE",
"400 660 CURVE SMOOTH"
);
}
);
width = 800;
}
);
note = registered;
unicode = 00AE;
},
{
glyphname = minus;
lastChange = "2017-06-09 11:42:18 +0000";
layers = (
{
layerId = "167B0F81-32A7-4481-94FC-A22177A24047";
paths = (
{
closed = 1;
nodes = (
"535 263 LINE",
"65 263 LINE",
"65 207 LINE",
"535 207 LINE"
);
}
);
width = 600;
}
);
note = minus;
unicode = 2212;
},
{
glyphname = eth;
lastChange = "2017-06-09 11:42:18 +0000";
layers = (
{
layerId = "167B0F81-32A7-4481-94FC-A22177A24047";
paths = (
{
closed = 1;
nodes = (
"197 22 OFFCURVE",
"143 71 OFFCURVE",
"143 231 CURVE SMOOTH",
"143 386 OFFCURVE",
"199 432 OFFCURVE",
"278 432 CURVE SMOOTH",
"357 432 OFFCURVE",
"413 386 OFFCURVE",
"413 231 CURVE SMOOTH",
"413 71 OFFCURVE",
"359 22 OFFCURVE",
"278 22 CURVE SMOOTH"
);
},
{
closed = 1;
nodes = (
"300 623 LINE",
"357 585 OFFCURVE",
"387 522 OFFCURVE",
"399 436 CURVE",
"362 457 OFFCURVE",
"320 466 OFFCURVE",
"278 466 CURVE SMOOTH",
"143 466 OFFCURVE",
"35 367 OFFCURVE",
"35 231 CURVE SMOOTH",
"35 90 OFFCURVE",
"143 -12 OFFCURVE",
"278 -12 CURVE SMOOTH",
"413 -12 OFFCURVE",
"521 80 OFFCURVE",
"521 275 CURVE SMOOTH",
"521 436 OFFCURVE",
"470 578 OFFCURVE",
"354 651 CURVE",
"428 689 LINE",
"403 718 LINE",
"312 672 LINE",
"270 690 OFFCURVE",
"220 700 OFFCURVE",
"163 700 CURVE",
"159 666 LINE",
"197 663 OFFCURVE",
"230 657 OFFCURVE",
"259 645 CURVE",
"167 598 LINE",
"193 569 LINE"
);
}
);
width = 556;
}
);
note = eth;
unicode = 00F0;
},
{
glyphname = multiply;
lastChange = "2017-06-09 11:42:18 +0000";
layers = (
{
layerId = "167B0F81-32A7-4481-94FC-A22177A24047";
paths = (
{
closed = 1;
nodes = (
"65 40 LINE",
"104 0 LINE",
"300 196 LINE",
"496 0 LINE",
"535 40 LINE",
"340 235 LINE",
"535 430 LINE",
"496 470 LINE",
"300 274 LINE",
"104 470 LINE",
"65 430 LINE",
"260 235 LINE"
);
}
);
width = 600;
}
);
note = multiply;
unicode = 00D7;
},
{
glyphname = threesuperior;
lastChange = "2017-06-09 11:42:18 +0000";
layers = (
{
layerId = "167B0F81-32A7-4481-94FC-A22177A24047";
paths = (
{
closed = 1;
nodes = (
"295 460 OFFCURVE",
"245 495 OFFCURVE",
"187 499 CURVE",
"187 501 LINE",
"235 512 OFFCURVE",
"283 545 OFFCURVE",
"283 595 CURVE SMOOTH",
"283 668 OFFCURVE",
"207 700 OFFCURVE",
"138 700 CURVE SMOOTH",
"71 700 OFFCURVE",
"18 657 OFFCURVE",
"18 603 CURVE SMOOTH",
"18 574 OFFCURVE",
"35 555 OFFCURVE",
"55 555 CURVE SMOOTH",
"77 555 OFFCURVE",
"94 568 OFFCURVE",
"94 590 CURVE SMOOTH",
"94 611 OFFCURVE",
"81 623 OFFCURVE",
"62 623 CURVE SMOOTH",
"55 623 OFFCURVE",
"48 621 OFFCURVE",
"42 618 CURVE",
"47 660 OFFCURVE",
"91 676 OFFCURVE",
"133 676 CURVE SMOOTH",
"193 676 OFFCURVE",
"221 642 OFFCURVE",
"221 592 CURVE SMOOTH",
"221 553 OFFCURVE",
"197 504 OFFCURVE",
"149 504 CURVE SMOOTH",
"139 504 OFFCURVE",
"131 507 OFFCURVE",
"121 507 CURVE SMOOTH",
"110 507 OFFCURVE",
"100 503 OFFCURVE",
"100 495 CURVE SMOOTH",
"100 486 OFFCURVE",
"109 484 OFFCURVE",
"116 484 CURVE SMOOTH",
"129 484 OFFCURVE",
"144 488 OFFCURVE",
"157 488 CURVE SMOOTH",
"211 488 OFFCURVE",
"229 438 OFFCURVE",
"229 397 CURVE SMOOTH",
"229 336 OFFCURVE",
"194 297 OFFCURVE",
"122 297 CURVE SMOOTH",
"75 297 OFFCURVE",
"31 313 OFFCURVE",
"29 359 CURVE",
"35 356 OFFCURVE",
"44 353 OFFCURVE",
"53 353 CURVE SMOOTH",
"71 353 OFFCURVE",
"88 368 OFFCURVE",
"88 388 CURVE SMOOTH",
"88 406 OFFCURVE",
"72 421 OFFCURVE",
"50 421 CURVE SMOOTH",
"21 421 OFFCURVE",
"5 399 OFFCURVE",
"5 367 CURVE SMOOTH",
"5 303 OFFCURVE",
"63 273 OFFCURVE",
"123 273 CURVE SMOOTH",
"212 273 OFFCURVE",
"295 321 OFFCURVE",
"295 402 CURVE SMOOTH"
);
}
);
width = 300;
}
);
note = threesuperior;
unicode = 00B3;
},
{
glyphname = copyright;
lastChange = "2017-06-09 11:42:18 +0000";
layers = (
{
layerId = "167B0F81-32A7-4481-94FC-A22177A24047";
paths = (
{
closed = 1;
nodes = (
"208 700 OFFCURVE",
"52 538 OFFCURVE",
"52 344 CURVE SMOOTH",
"52 150 OFFCURVE",
"208 -12 OFFCURVE",
"400 -12 CURVE SMOOTH",
"592 -12 OFFCURVE",
"748 150 OFFCURVE",
"748 344 CURVE SMOOTH",
"748 538 OFFCURVE",
"592 700 OFFCURVE",
"400 700 CURVE SMOOTH"
);
},
{
closed = 1;
nodes = (
"560 660 OFFCURVE",
"696 514 OFFCURVE",
"696 344 CURVE SMOOTH",
"696 174 OFFCURVE",
"560 28 OFFCURVE",
"400 28 CURVE SMOOTH",
"240 28 OFFCURVE",
"104 174 OFFCURVE",
"104 344 CURVE SMOOTH",
"104 514 OFFCURVE",
"240 660 OFFCURVE",
"400 660 CURVE SMOOTH"
);
},
{
closed = 1;
nodes = (
"539 210 OFFCURVE",
"503 172 OFFCURVE",
"424 172 CURVE SMOOTH",
"322 172 OFFCURVE",
"274 248 OFFCURVE",
"274 350 CURVE SMOOTH",
"274 452 OFFCURVE",
"322 528 OFFCURVE",
"424 528 CURVE SMOOTH",
"508 528 OFFCURVE",
"536 484 OFFCURVE",
"540 438 CURVE",
"556 438 LINE",
"556 510 LINE SMOOTH",
"556 519 OFFCURVE",
"549 527 OFFCURVE",
"534 532 CURVE SMOOTH",
"507 541 OFFCURVE",
"482 552 OFFCURVE",
"424 552 CURVE SMOOTH",
"306 552 OFFCURVE",
"204 494 OFFCURVE",
"204 350 CURVE SMOOTH",
"204 206 OFFCURVE",
"306 148 OFFCURVE",
"424 148 CURVE SMOOTH",
"470 148 OFFCURVE",
"509 158 OFFCURVE",
"530 165 CURVE SMOOTH",
"546 170 OFFCURVE",
"553 174 OFFCURVE",
"556 185 CURVE SMOOTH",
"573 255 LINE",
"557 255 LINE"
);
}
);
width = 800;
}
);
note = copyright;
unicode = 00A9;
},
{
glyphname = Aacute;
lastChange = "2017-06-09 11:42:18 +0000";
layers = (
{
layerId = "167B0F81-32A7-4481-94FC-A22177A24047";
paths = (
{
closed = 1;
nodes = (
"249 34 LINE",
"163 34 OFFCURVE",
"143 48 OFFCURVE",
"143 86 CURVE SMOOTH",
"143 114 OFFCURVE",
"172 174 OFFCURVE",
"189 230 CURVE",
"425 230 LINE",
"452 172 OFFCURVE",
"481 92 OFFCURVE",
"481 71 CURVE SMOOTH",
"481 42 OFFCURVE",
"477 34 OFFCURVE",
"402 34 CURVE",
"402 0 LINE",
"680 0 LINE",
"680 34 LINE",
"622 34 OFFCURVE",
"599 52 OFFCURVE",
"569 129 CURVE SMOOTH",
"350 692 LINE",
"314 692 LINE",
"112 140 LINE SMOOTH",
"90 79 OFFCURVE",
"69 34 OFFCURVE",
"-12 34 CURVE",
"-12 0 LINE",
"249 0 LINE"
);
},
{
closed = 1;
nodes = (
"303 535 LINE",
"409 272 LINE",
"203 272 LINE"
);
},
{
closed = 1;
nodes = (
"453 833 LINE SMOOTH",
"471 844 OFFCURVE",
"483 860 OFFCURVE",
"483 874 CURVE SMOOTH",
"483 893 OFFCURVE",
"473 907 OFFCURVE",
"449 907 CURVE SMOOTH",
"430 907 OFFCURVE",
"418 897 OFFCURVE",
"406 884 CURVE SMOOTH",
"259 735 LINE",
"299 735 LINE"
);
}
);
width = 667;
}
);
leftKerningGroup = A;
note = Aacute;
rightKerningGroup = A;
unicode = 00C1;
},
{
glyphname = Acircumflex;
lastChange = "2017-06-09 11:42:18 +0000";
layers = (
{
layerId = "167B0F81-32A7-4481-94FC-A22177A24047";
paths = (
{
closed = 1;
nodes = (
"249 34 LINE",
"163 34 OFFCURVE",
"143 48 OFFCURVE",
"143 86 CURVE SMOOTH",
"143 114 OFFCURVE",
"172 174 OFFCURVE",
"189 230 CURVE",
"425 230 LINE",
"452 172 OFFCURVE",
"481 92 OFFCURVE",
"481 71 CURVE SMOOTH",
"481 42 OFFCURVE",
"477 34 OFFCURVE",
"402 34 CURVE",
"402 0 LINE",
"680 0 LINE",
"680 34 LINE",
"622 34 OFFCURVE",
"599 52 OFFCURVE",
"569 129 CURVE SMOOTH",
"350 692 LINE",
"314 692 LINE",
"112 140 LINE SMOOTH",
"90 79 OFFCURVE",
"69 34 OFFCURVE",
"-12 34 CURVE",
"-12 0 LINE",
"249 0 LINE"
);
},
{
closed = 1;
nodes = (
"303 535 LINE",
"409 272 LINE",
"203 272 LINE"
);
},
{
closed = 1;
nodes = (
"454 735 LINE",
"489 735 LINE",
"365 903 LINE",
"303 903 LINE",
"179 735 LINE",
"211 735 LINE",
"334 838 LINE"
);
}
);
width = 667;
}
);
leftKerningGroup = A;
note = Acircumflex;
rightKerningGroup = A;
unicode = 00C2;
},
{
glyphname = Adieresis;
lastChange = "2017-06-09 11:42:18 +0000";
layers = (
{
layerId = "167B0F81-32A7-4481-94FC-A22177A24047";
paths = (
{
closed = 1;
nodes = (
"249 34 LINE",
"163 34 OFFCURVE",
"143 48 OFFCURVE",
"143 86 CURVE SMOOTH",
"143 114 OFFCURVE",
"172 174 OFFCURVE",
"189 230 CURVE",
"425 230 LINE",
"452 172 OFFCURVE",
"481 92 OFFCURVE",
"481 71 CURVE SMOOTH",
"481 42 OFFCURVE",
"477 34 OFFCURVE",
"402 34 CURVE",
"402 0 LINE",
"680 0 LINE",
"680 34 LINE",
"622 34 OFFCURVE",
"599 52 OFFCURVE",
"569 129 CURVE SMOOTH",
"350 692 LINE",
"314 692 LINE",
"112 140 LINE SMOOTH",
"90 79 OFFCURVE",
"69 34 OFFCURVE",
"-12 34 CURVE",
"-12 0 LINE",
"249 0 LINE"
);
},
{
closed = 1;
nodes = (
"303 535 LINE",
"409 272 LINE",
"203 272 LINE"
);
},
{
closed = 1;
nodes = (
"205 843 OFFCURVE",
"185 821 OFFCURVE",
"185 794 CURVE SMOOTH",
"185 767 OFFCURVE",
"205 745 OFFCURVE",
"234 745 CURVE SMOOTH",
"263 745 OFFCURVE",
"283 767 OFFCURVE",
"283 794 CURVE SMOOTH",
"283 821 OFFCURVE",
"263 843 OFFCURVE",
"234 843 CURVE SMOOTH"
);
},
{
closed = 1;
nodes = (
"405 843 OFFCURVE",
"385 821 OFFCURVE",
"385 794 CURVE SMOOTH",
"385 767 OFFCURVE",
"405 745 OFFCURVE",
"434 745 CURVE SMOOTH",
"463 745 OFFCURVE",
"483 767 OFFCURVE",
"483 794 CURVE SMOOTH",
"483 821 OFFCURVE",
"463 843 OFFCURVE",
"434 843 CURVE SMOOTH"
);
}
);
width = 667;
}
);
leftKerningGroup = A;
note = Adieresis;
rightKerningGroup = A;
unicode = 00C4;
},
{
glyphname = Agrave;
lastChange = "2017-06-09 11:42:18 +0000";
layers = (
{
layerId = "167B0F81-32A7-4481-94FC-A22177A24047";
paths = (
{
closed = 1;
nodes = (
"249 34 LINE",
"163 34 OFFCURVE",
"143 48 OFFCURVE",
"143 86 CURVE SMOOTH",
"143 114 OFFCURVE",
"172 174 OFFCURVE",
"189 230 CURVE",
"425 230 LINE",
"452 172 OFFCURVE",
"481 92 OFFCURVE",
"481 71 CURVE SMOOTH",
"481 42 OFFCURVE",
"477 34 OFFCURVE",
"402 34 CURVE",
"402 0 LINE",
"680 0 LINE",
"680 34 LINE",
"622 34 OFFCURVE",
"599 52 OFFCURVE",
"569 129 CURVE SMOOTH",
"350 692 LINE",
"314 692 LINE",
"112 140 LINE SMOOTH",
"90 79 OFFCURVE",
"69 34 OFFCURVE",
"-12 34 CURVE",
"-12 0 LINE",
"249 0 LINE"
);
},
{
closed = 1;
nodes = (
"303 535 LINE",
"409 272 LINE",
"203 272 LINE"
);
},
{
closed = 1;
nodes = (
"262 876 LINE SMOOTH",
"250 889 OFFCURVE",
"238 899 OFFCURVE",
"219 899 CURVE SMOOTH",
"195 899 OFFCURVE",
"185 885 OFFCURVE",
"185 866 CURVE SMOOTH",
"185 852 OFFCURVE",
"197 836 OFFCURVE",
"215 825 CURVE SMOOTH",
"369 727 LINE",
"409 727 LINE"
);
}
);
width = 667;
}
);
leftKerningGroup = A;
note = Agrave;
rightKerningGroup = A;
unicode = 00C0;
},
{
glyphname = Aring;
lastChange = "2017-06-09 11:42:18 +0000";
layers = (
{
layerId = "167B0F81-32A7-4481-94FC-A22177A24047";
paths = (
{
closed = 1;
nodes = (
"249 34 LINE",
"163 34 OFFCURVE",
"143 48 OFFCURVE",
"143 86 CURVE SMOOTH",
"143 114 OFFCURVE",
"172 174 OFFCURVE",
"189 230 CURVE",
"425 230 LINE",
"452 172 OFFCURVE",
"481 92 OFFCURVE",
"481 71 CURVE SMOOTH",
"481 42 OFFCURVE",
"477 34 OFFCURVE",
"402 34 CURVE",
"402 0 LINE",
"680 0 LINE",
"680 34 LINE",
"622 34 OFFCURVE",
"599 52 OFFCURVE",
"569 129 CURVE SMOOTH",
"350 692 LINE",
"314 692 LINE",
"112 140 LINE SMOOTH",
"90 79 OFFCURVE",
"69 34 OFFCURVE",
"-12 34 CURVE",
"-12 0 LINE",
"249 0 LINE"
);
},
{
closed = 1;
nodes = (
"303 535 LINE",
"409 272 LINE",
"203 272 LINE"
);
},
{
closed = 1;
nodes = (
"277 927 OFFCURVE",
"235 881 OFFCURVE",
"235 827 CURVE SMOOTH",
"235 773 OFFCURVE",
"277 727 OFFCURVE",
"334 727 CURVE SMOOTH",
"391 727 OFFCURVE",
"433 773 OFFCURVE",
"433 827 CURVE SMOOTH",
"433 881 OFFCURVE",
"391 927 OFFCURVE",
"334 927 CURVE SMOOTH"
);
},
{
closed = 1;
nodes = (
"371 893 OFFCURVE",
"399 863 OFFCURVE",
"399 827 CURVE SMOOTH",
"399 791 OFFCURVE",
"371 761 OFFCURVE",
"334 761 CURVE SMOOTH",
"297 761 OFFCURVE",
"269 791 OFFCURVE",
"269 827 CURVE SMOOTH",
"269 863 OFFCURVE",
"297 893 OFFCURVE",
"334 893 CURVE SMOOTH"
);
}
);
width = 667;
}
);
leftKerningGroup = A;
note = Aring;
rightKerningGroup = A;
unicode = 00C5;
},
{
glyphname = Atilde;
lastChange = "2017-06-09 11:42:18 +0000";
layers = (
{
layerId = "167B0F81-32A7-4481-94FC-A22177A24047";
paths = (
{
closed = 1;
nodes = (
"249 34 LINE",
"163 34 OFFCURVE",
"143 48 OFFCURVE",
"143 86 CURVE SMOOTH",
"143 114 OFFCURVE",
"172 174 OFFCURVE",
"189 230 CURVE",
"425 230 LINE",
"452 172 OFFCURVE",
"481 92 OFFCURVE",
"481 71 CURVE SMOOTH",
"481 42 OFFCURVE",
"477 34 OFFCURVE",
"402 34 CURVE",
"402 0 LINE",
"680 0 LINE",
"680 34 LINE",
"622 34 OFFCURVE",
"599 52 OFFCURVE",
"569 129 CURVE SMOOTH",
"350 692 LINE",
"314 692 LINE",
"112 140 LINE SMOOTH",
"90 79 OFFCURVE",
"69 34 OFFCURVE",
"-12 34 CURVE",
"-12 0 LINE",
"249 0 LINE"
);
},
{
closed = 1;
nodes = (
"303 535 LINE",
"409 272 LINE",
"203 272 LINE"
);
},
{
closed = 1;
nodes = (
"464 832 OFFCURVE",
"442 809 OFFCURVE",
"414 809 CURVE SMOOTH",
"394 809 OFFCURVE",
"374 821 OFFCURVE",
"353 832 CURVE SMOOTH",
"327 846 OFFCURVE",
"299 855 OFFCURVE",
"278 855 CURVE SMOOTH",
"217 855 OFFCURVE",
"183 812 OFFCURVE",
"169 755 CURVE",
"198 755 LINE",
"205 779 OFFCURVE",
"223 799 OFFCURVE",
"254 799 CURVE SMOOTH",
"294 799 OFFCURVE",
"337 753 OFFCURVE",
"389 753 CURVE SMOOTH",
"456 753 OFFCURVE",
"487 798 OFFCURVE",
"499 859 CURVE",
"470 859 LINE"
);
}
);
width = 667;
}
);
leftKerningGroup = A;
note = Atilde;
rightKerningGroup = A;
unicode = 00C3;
},
{
glyphname = Ccedilla;
lastChange = "2017-06-09 11:42:18 +0000";
layers = (
{
layerId = "167B0F81-32A7-4481-94FC-A22177A24047";
paths = (
{
closed = 1;
nodes = (
"572 664 OFFCURVE",
"555 644 OFFCURVE",
"537 644 CURVE SMOOTH",
"520 644 OFFCURVE",
"448 700 OFFCURVE",
"359 700 CURVE SMOOTH",
"177 700 OFFCURVE",
"43 529 OFFCURVE",
"43 344 CURVE SMOOTH",
"43 167 OFFCURVE",
"166 3 OFFCURVE",
"326 -11 CURVE",
"291 -93 LINE",
"299 -97 LINE",
"308 -96 OFFCURVE",
"317 -94 OFFCURVE",
"326 -94 CURVE SMOOTH",
"360 -94 OFFCURVE",
"380 -103 OFFCURVE",
"380 -127 CURVE SMOOTH",
"380 -164 OFFCURVE",
"353 -172 OFFCURVE",
"321 -172 CURVE SMOOTH",
"301 -172 OFFCURVE",
"279 -167 OFFCURVE",
"260 -161 CURVE",
"246 -192 LINE",
"273 -205 OFFCURVE",
"304 -210 OFFCURVE",
"326 -210 CURVE SMOOTH",
"402 -210 OFFCURVE",
"454 -174 OFFCURVE",
"454 -124 CURVE SMOOTH",
"454 -78 OFFCURVE",
"413 -56 OFFCURVE",
"371 -56 CURVE SMOOTH",
"361 -56 OFFCURVE",
"352 -58 OFFCURVE",
"342 -59 CURVE",
"360 -12 LINE",
"539 -7 OFFCURVE",
"614 100 OFFCURVE",
"623 260 CURVE",
"595 260 LINE",
"583 127 OFFCURVE",
"525 22 OFFCURVE",
"366 22 CURVE SMOOTH",
"279 22 OFFCURVE",
"159 104 OFFCURVE",
"159 344 CURVE SMOOTH",
"159 561 OFFCURVE",
"225 666 OFFCURVE",
"369 666 CURVE SMOOTH",
"497 666 OFFCURVE",
"544 557 OFFCURVE",
"575 446 CURVE",
"602 446 LINE",
"602 682 LINE",
"578 682 LINE"
);
}
);
width = 667;
}
);
note = Ccedilla;
unicode = 00C7;
},
{
glyphname = Eacute;
lastChange = "2017-06-09 11:42:18 +0000";
layers = (
{
layerId = "167B0F81-32A7-4481-94FC-A22177A24047";
paths = (
{
closed = 1;
nodes = (
"588 257 LINE",
"544 64 OFFCURVE",
"440 34 OFFCURVE",
"306 34 CURVE SMOOTH",
"245 34 OFFCURVE",
"224 46 OFFCURVE",
"224 78 CURVE SMOOTH",
"224 342 LINE",
"329 340 OFFCURVE",
"374 330 OFFCURVE",
"390 222 CURVE",
"418 222 LINE",
"418 498 LINE",
"390 497 LINE",
"374 388 OFFCURVE",
"329 378 OFFCURVE",
"224 376 CURVE",
"224 588 LINE SMOOTH",
"224 638 OFFCURVE",
"274 654 OFFCURVE",
"333 654 CURVE SMOOTH",
"466 654 OFFCURVE",
"522 594 OFFCURVE",
"570 442 CURVE",
"601 442 LINE",
"595 688 LINE",
"29 688 LINE",
"29 654 LINE",
"105 654 OFFCURVE",
"122 636 OFFCURVE",
"122 588 CURVE SMOOTH",
"122 100 LINE SMOOTH",
"122 52 OFFCURVE",
"105 34 OFFCURVE",
"29 34 CURVE",
"29 0 LINE",
"613 0 LINE",
"619 257 LINE"
);
},
{
closed = 1;
nodes = (
"459 833 LINE SMOOTH",
"477 844 OFFCURVE",
"489 860 OFFCURVE",
"489 874 CURVE SMOOTH",
"489 893 OFFCURVE",
"479 907 OFFCURVE",
"455 907 CURVE SMOOTH",
"436 907 OFFCURVE",
"424 897 OFFCURVE",
"412 884 CURVE SMOOTH",
"265 735 LINE",
"305 735 LINE"
);
}
);
width = 667;
}
);
note = Eacute;
unicode = 00C9;
},
{
glyphname = Ecircumflex;
lastChange = "2017-06-09 11:42:18 +0000";
layers = (
{
layerId = "167B0F81-32A7-4481-94FC-A22177A24047";
paths = (
{
closed = 1;
nodes = (
"588 257 LINE",
"544 64 OFFCURVE",
"440 34 OFFCURVE",
"306 34 CURVE SMOOTH",
"245 34 OFFCURVE",
"224 46 OFFCURVE",
"224 78 CURVE SMOOTH",
"224 342 LINE",
"329 340 OFFCURVE",
"374 330 OFFCURVE",
"390 222 CURVE",
"418 222 LINE",
"418 498 LINE",
"390 497 LINE",
"374 388 OFFCURVE",
"329 378 OFFCURVE",
"224 376 CURVE",
"224 588 LINE SMOOTH",
"224 638 OFFCURVE",
"274 654 OFFCURVE",
"333 654 CURVE SMOOTH",
"466 654 OFFCURVE",
"522 594 OFFCURVE",
"570 442 CURVE",
"601 442 LINE",
"595 688 LINE",
"29 688 LINE",
"29 654 LINE",
"105 654 OFFCURVE",
"122 636 OFFCURVE",
"122 588 CURVE SMOOTH",
"122 100 LINE SMOOTH",
"122 52 OFFCURVE",
"105 34 OFFCURVE",
"29 34 CURVE",
"29 0 LINE",
"613 0 LINE",
"619 257 LINE"
);
},
{
closed = 1;
nodes = (
"460 735 LINE",
"495 735 LINE",
"371 903 LINE",
"309 903 LINE",
"185 735 LINE",
"217 735 LINE",
"340 838 LINE"
);
}
);
width = 667;
}
);
note = Ecircumflex;
unicode = 00CA;
},
{
glyphname = Edieresis;
lastChange = "2017-06-09 11:42:18 +0000";
layers = (
{
layerId = "167B0F81-32A7-4481-94FC-A22177A24047";
paths = (
{
closed = 1;
nodes = (
"588 257 LINE",
"544 64 OFFCURVE",
"440 34 OFFCURVE",
"306 34 CURVE SMOOTH",
"245 34 OFFCURVE",
"224 46 OFFCURVE",
"224 78 CURVE SMOOTH",
"224 342 LINE",
"329 340 OFFCURVE",
"374 330 OFFCURVE",
"390 222 CURVE",
"418 222 LINE",
"418 498 LINE",
"390 497 LINE",
"374 388 OFFCURVE",
"329 378 OFFCURVE",
"224 376 CURVE",
"224 588 LINE SMOOTH",
"224 638 OFFCURVE",
"274 654 OFFCURVE",
"333 654 CURVE SMOOTH",
"466 654 OFFCURVE",
"522 594 OFFCURVE",
"570 442 CURVE",
"601 442 LINE",
"595 688 LINE",
"29 688 LINE",
"29 654 LINE",
"105 654 OFFCURVE",
"122 636 OFFCURVE",
"122 588 CURVE SMOOTH",
"122 100 LINE SMOOTH",
"122 52 OFFCURVE",
"105 34 OFFCURVE",
"29 34 CURVE",
"29 0 LINE",
"613 0 LINE",
"619 257 LINE"
);
},
{
closed = 1;
nodes = (
"211 843 OFFCURVE",
"191 821 OFFCURVE",
"191 794 CURVE SMOOTH",
"191 767 OFFCURVE",
"211 745 OFFCURVE",
"240 745 CURVE SMOOTH",
"269 745 OFFCURVE",
"289 767 OFFCURVE",
"289 794 CURVE SMOOTH",
"289 821 OFFCURVE",
"269 843 OFFCURVE",
"240 843 CURVE SMOOTH"
);
},
{
closed = 1;
nodes = (
"411 843 OFFCURVE",
"391 821 OFFCURVE",
"391 794 CURVE SMOOTH",
"391 767 OFFCURVE",
"411 745 OFFCURVE",
"440 745 CURVE SMOOTH",
"469 745 OFFCURVE",
"489 767 OFFCURVE",
"489 794 CURVE SMOOTH",
"489 821 OFFCURVE",
"469 843 OFFCURVE",
"440 843 CURVE SMOOTH"
);
}
);
width = 667;
}
);
note = Edieresis;
unicode = 00CB;
},
{
glyphname = Egrave;
lastChange = "2017-06-09 11:42:18 +0000";
layers = (
{
layerId = "167B0F81-32A7-4481-94FC-A22177A24047";
paths = (
{
closed = 1;
nodes = (
"588 257 LINE",
"544 64 OFFCURVE",
"440 34 OFFCURVE",
"306 34 CURVE SMOOTH",
"245 34 OFFCURVE",
"224 46 OFFCURVE",
"224 78 CURVE SMOOTH",
"224 342 LINE",
"329 340 OFFCURVE",
"374 330 OFFCURVE",
"390 222 CURVE",
"418 222 LINE",
"418 498 LINE",
"390 497 LINE",
"374 388 OFFCURVE",
"329 378 OFFCURVE",
"224 376 CURVE",
"224 588 LINE SMOOTH",
"224 638 OFFCURVE",
"274 654 OFFCURVE",
"333 654 CURVE SMOOTH",
"466 654 OFFCURVE",
"522 594 OFFCURVE",
"570 442 CURVE",
"601 442 LINE",
"595 688 LINE",
"29 688 LINE",
"29 654 LINE",
"105 654 OFFCURVE",
"122 636 OFFCURVE",
"122 588 CURVE SMOOTH",
"122 100 LINE SMOOTH",
"122 52 OFFCURVE",
"105 34 OFFCURVE",
"29 34 CURVE",
"29 0 LINE",
"613 0 LINE",
"619 257 LINE"
);
},
{
closed = 1;
nodes = (
"268 876 LINE SMOOTH",
"256 889 OFFCURVE",
"244 899 OFFCURVE",
"225 899 CURVE SMOOTH",
"201 899 OFFCURVE",
"191 885 OFFCURVE",
"191 866 CURVE SMOOTH",
"191 852 OFFCURVE",
"203 836 OFFCURVE",
"221 825 CURVE SMOOTH",
"375 727 LINE",
"415 727 LINE"
);
}
);
width = 667;
}
);
note = Egrave;
unicode = 00C8;
},
{
glyphname = Iacute;
lastChange = "2017-06-09 11:42:18 +0000";
layers = (
{
layerId = "167B0F81-32A7-4481-94FC-A22177A24047";
paths = (
{
closed = 1;
nodes = (
"19 654 LINE",
"98 654 OFFCURVE",
"115 636 OFFCURVE",
"115 588 CURVE SMOOTH",
"115 100 LINE SMOOTH",
"115 52 OFFCURVE",
"98 34 OFFCURVE",
"19 34 CURVE",
"19 0 LINE",
"313 0 LINE",
"313 34 LINE",
"234 34 OFFCURVE",
"217 52 OFFCURVE",
"217 100 CURVE SMOOTH",
"217 588 LINE SMOOTH",
"217 636 OFFCURVE",
"234 654 OFFCURVE",
"313 654 CURVE",
"313 688 LINE",
"19 688 LINE"
);
},
{
closed = 1;
nodes = (
"286 833 LINE SMOOTH",
"304 844 OFFCURVE",
"316 860 OFFCURVE",
"316 874 CURVE SMOOTH",
"316 893 OFFCURVE",
"306 907 OFFCURVE",
"282 907 CURVE SMOOTH",
"263 907 OFFCURVE",
"251 897 OFFCURVE",
"239 884 CURVE SMOOTH",
"92 735 LINE",
"132 735 LINE"
);
}
);
width = 333;
}
);
note = Iacute;
unicode = 00CD;
},
{
glyphname = Icircumflex;
lastChange = "2017-06-09 11:42:18 +0000";
layers = (
{
layerId = "167B0F81-32A7-4481-94FC-A22177A24047";
paths = (
{
closed = 1;
nodes = (
"19 654 LINE",
"98 654 OFFCURVE",
"115 636 OFFCURVE",
"115 588 CURVE SMOOTH",
"115 100 LINE SMOOTH",
"115 52 OFFCURVE",
"98 34 OFFCURVE",
"19 34 CURVE",
"19 0 LINE",
"313 0 LINE",
"313 34 LINE",
"234 34 OFFCURVE",
"217 52 OFFCURVE",
"217 100 CURVE SMOOTH",
"217 588 LINE SMOOTH",
"217 636 OFFCURVE",
"234 654 OFFCURVE",
"313 654 CURVE",
"313 688 LINE",
"19 688 LINE"
);
},
{
closed = 1;
nodes = (
"287 735 LINE",
"322 735 LINE",
"198 903 LINE",
"136 903 LINE",
"12 735 LINE",
"44 735 LINE",
"167 838 LINE"
);
}
);
width = 333;
}
);
note = Icircumflex;
unicode = 00CE;
},
{
glyphname = Idieresis;
lastChange = "2017-06-09 11:42:18 +0000";
layers = (
{
layerId = "167B0F81-32A7-4481-94FC-A22177A24047";
paths = (
{
closed = 1;
nodes = (
"19 654 LINE",
"98 654 OFFCURVE",
"115 636 OFFCURVE",
"115 588 CURVE SMOOTH",
"115 100 LINE SMOOTH",
"115 52 OFFCURVE",
"98 34 OFFCURVE",
"19 34 CURVE",
"19 0 LINE",
"313 0 LINE",
"313 34 LINE",
"234 34 OFFCURVE",
"217 52 OFFCURVE",
"217 100 CURVE SMOOTH",
"217 588 LINE SMOOTH",
"217 636 OFFCURVE",
"234 654 OFFCURVE",
"313 654 CURVE",
"313 688 LINE",
"19 688 LINE"
);
},
{
closed = 1;
nodes = (
"38 843 OFFCURVE",
"18 821 OFFCURVE",
"18 794 CURVE SMOOTH",
"18 767 OFFCURVE",
"38 745 OFFCURVE",
"67 745 CURVE SMOOTH",
"96 745 OFFCURVE",
"116 767 OFFCURVE",
"116 794 CURVE SMOOTH",
"116 821 OFFCURVE",
"96 843 OFFCURVE",
"67 843 CURVE SMOOTH"
);
},
{
closed = 1;
nodes = (
"238 843 OFFCURVE",
"218 821 OFFCURVE",
"218 794 CURVE SMOOTH",
"218 767 OFFCURVE",
"238 745 OFFCURVE",
"267 745 CURVE SMOOTH",
"296 745 OFFCURVE",
"316 767 OFFCURVE",
"316 794 CURVE SMOOTH",
"316 821 OFFCURVE",
"296 843 OFFCURVE",
"267 843 CURVE SMOOTH"
);
}
);
width = 333;
}
);
note = Idieresis;
unicode = 00CF;
},
{
glyphname = Igrave;
lastChange = "2017-06-09 11:42:18 +0000";
layers = (
{
layerId = "167B0F81-32A7-4481-94FC-A22177A24047";
paths = (
{
closed = 1;
nodes = (
"19 654 LINE",
"98 654 OFFCURVE",
"115 636 OFFCURVE",
"115 588 CURVE SMOOTH",
"115 100 LINE SMOOTH",
"115 52 OFFCURVE",
"98 34 OFFCURVE",
"19 34 CURVE",
"19 0 LINE",
"313 0 LINE",
"313 34 LINE",
"234 34 OFFCURVE",
"217 52 OFFCURVE",
"217 100 CURVE SMOOTH",
"217 588 LINE SMOOTH",
"217 636 OFFCURVE",
"234 654 OFFCURVE",
"313 654 CURVE",
"313 688 LINE",
"19 688 LINE"
);
},
{
closed = 1;
nodes = (
"95 876 LINE SMOOTH",
"83 889 OFFCURVE",
"71 899 OFFCURVE",
"52 899 CURVE SMOOTH",
"28 899 OFFCURVE",
"18 885 OFFCURVE",
"18 866 CURVE SMOOTH",
"18 852 OFFCURVE",
"30 836 OFFCURVE",
"48 825 CURVE SMOOTH",
"202 727 LINE",
"242 727 LINE"
);
}
);
width = 333;
}
);
note = Igrave;
unicode = 00CC;
},
{
glyphname = Ntilde;
lastChange = "2017-06-09 11:42:18 +0000";
layers = (
{
layerId = "167B0F81-32A7-4481-94FC-A22177A24047";
paths = (
{
closed = 1;
nodes = (
"29 654 LINE",
"80 654 OFFCURVE",
"98 650 OFFCURVE",
"130 613 CURVE",
"130 100 LINE SMOOTH",
"130 52 OFFCURVE",
"113 34 OFFCURVE",
"31 34 CURVE",
"31 0 LINE",
"277 0 LINE",
"277 34 LINE",
"189 34 OFFCURVE",
"172 52 OFFCURVE",
"172 100 CURVE SMOOTH",
"172 550 LINE",
"174 550 LINE",
"567 -6 LINE",
"606 -6 LINE",
"606 588 LINE SMOOTH",
"606 636 OFFCURVE",
"623 654 OFFCURVE",
"693 654 CURVE",
"693 688 LINE",
"465 688 LINE",
"465 654 LINE",
"547 654 OFFCURVE",
"564 636 OFFCURVE",
"564 588 CURVE SMOOTH",
"564 173 LINE",
"562 173 LINE",
"202 688 LINE",
"29 688 LINE"
);
},
{
closed = 1;
nodes = (
"503 832 OFFCURVE",
"481 809 OFFCURVE",
"453 809 CURVE SMOOTH",
"433 809 OFFCURVE",
"413 821 OFFCURVE",
"392 832 CURVE SMOOTH",
"366 846 OFFCURVE",
"338 855 OFFCURVE",
"317 855 CURVE SMOOTH",
"256 855 OFFCURVE",
"222 812 OFFCURVE",
"208 755 CURVE",
"237 755 LINE",
"244 779 OFFCURVE",
"262 799 OFFCURVE",
"293 799 CURVE SMOOTH",
"333 799 OFFCURVE",
"376 753 OFFCURVE",
"428 753 CURVE SMOOTH",
"495 753 OFFCURVE",
"526 798 OFFCURVE",
"538 859 CURVE",
"509 859 LINE"
);
}
);
width = 722;
}
);
note = Ntilde;
unicode = 00D1;
},
{
glyphname = Oacute;
lastChange = "2017-06-09 11:42:18 +0000";
layers = (
{
layerId = "167B0F81-32A7-4481-94FC-A22177A24047";
paths = (
{
closed = 1;
nodes = (
"169 700 OFFCURVE",
"35 529 OFFCURVE",
"35 344 CURVE SMOOTH",
"35 159 OFFCURVE",
"169 -12 OFFCURVE",
"361 -12 CURVE SMOOTH",
"553 -12 OFFCURVE",
"687 159 OFFCURVE",
"687 344 CURVE SMOOTH",
"687 529 OFFCURVE",
"553 700 OFFCURVE",
"361 700 CURVE SMOOTH"
);
},
{
closed = 1;
nodes = (
"505 666 OFFCURVE",
"571 561 OFFCURVE",
"571 344 CURVE SMOOTH",
"571 127 OFFCURVE",
"505 22 OFFCURVE",
"361 22 CURVE SMOOTH",
"217 22 OFFCURVE",
"151 127 OFFCURVE",
"151 344 CURVE SMOOTH",
"151 561 OFFCURVE",
"217 666 OFFCURVE",
"361 666 CURVE SMOOTH"
);
},
{
closed = 1;
nodes = (
"480 833 LINE SMOOTH",
"498 844 OFFCURVE",
"510 860 OFFCURVE",
"510 874 CURVE SMOOTH",
"510 893 OFFCURVE",
"500 907 OFFCURVE",
"476 907 CURVE SMOOTH",
"457 907 OFFCURVE",
"445 897 OFFCURVE",
"433 884 CURVE SMOOTH",
"286 735 LINE",
"326 735 LINE"
);
}
);
width = 722;
}
);
note = Oacute;
unicode = 00D3;
},
{
glyphname = Ocircumflex;
lastChange = "2017-06-09 11:42:18 +0000";
layers = (
{
layerId = "167B0F81-32A7-4481-94FC-A22177A24047";
paths = (
{
closed = 1;
nodes = (
"169 700 OFFCURVE",
"35 529 OFFCURVE",
"35 344 CURVE SMOOTH",
"35 159 OFFCURVE",
"169 -12 OFFCURVE",
"361 -12 CURVE SMOOTH",
"553 -12 OFFCURVE",
"687 159 OFFCURVE",
"687 344 CURVE SMOOTH",
"687 529 OFFCURVE",
"553 700 OFFCURVE",
"361 700 CURVE SMOOTH"
);
},
{
closed = 1;
nodes = (
"505 666 OFFCURVE",
"571 561 OFFCURVE",
"571 344 CURVE SMOOTH",
"571 127 OFFCURVE",
"505 22 OFFCURVE",
"361 22 CURVE SMOOTH",
"217 22 OFFCURVE",
"151 127 OFFCURVE",
"151 344 CURVE SMOOTH",
"151 561 OFFCURVE",
"217 666 OFFCURVE",
"361 666 CURVE SMOOTH"
);
},
{
closed = 1;
nodes = (
"481 735 LINE",
"516 735 LINE",
"392 903 LINE",
"330 903 LINE",
"206 735 LINE",
"238 735 LINE",
"361 838 LINE"
);
}
);
width = 722;
}
);
note = Ocircumflex;
unicode = 00D4;
},
{
glyphname = Odieresis;
lastChange = "2017-06-09 11:42:18 +0000";
layers = (
{
layerId = "167B0F81-32A7-4481-94FC-A22177A24047";
paths = (
{
closed = 1;
nodes = (
"169 700 OFFCURVE",
"35 529 OFFCURVE",
"35 344 CURVE SMOOTH",
"35 159 OFFCURVE",
"169 -12 OFFCURVE",
"361 -12 CURVE SMOOTH",
"553 -12 OFFCURVE",
"687 159 OFFCURVE",
"687 344 CURVE SMOOTH",
"687 529 OFFCURVE",
"553 700 OFFCURVE",
"361 700 CURVE SMOOTH"
);
},
{
closed = 1;
nodes = (
"505 666 OFFCURVE",
"571 561 OFFCURVE",
"571 344 CURVE SMOOTH",
"571 127 OFFCURVE",
"505 22 OFFCURVE",
"361 22 CURVE SMOOTH",
"217 22 OFFCURVE",
"151 127 OFFCURVE",
"151 344 CURVE SMOOTH",
"151 561 OFFCURVE",
"217 666 OFFCURVE",
"361 666 CURVE SMOOTH"
);
},
{
closed = 1;
nodes = (
"232 843 OFFCURVE",
"212 821 OFFCURVE",
"212 794 CURVE SMOOTH",
"212 767 OFFCURVE",
"232 745 OFFCURVE",
"261 745 CURVE SMOOTH",
"290 745 OFFCURVE",
"310 767 OFFCURVE",
"310 794 CURVE SMOOTH",
"310 821 OFFCURVE",
"290 843 OFFCURVE",
"261 843 CURVE SMOOTH"
);
},
{
closed = 1;
nodes = (
"432 843 OFFCURVE",
"412 821 OFFCURVE",
"412 794 CURVE SMOOTH",
"412 767 OFFCURVE",
"432 745 OFFCURVE",
"461 745 CURVE SMOOTH",
"490 745 OFFCURVE",
"510 767 OFFCURVE",
"510 794 CURVE SMOOTH",
"510 821 OFFCURVE",
"490 843 OFFCURVE",
"461 843 CURVE SMOOTH"
);
}
);
width = 722;
}
);
note = Odieresis;
unicode = 00D6;
},
{
glyphname = Ograve;
lastChange = "2017-06-09 11:42:18 +0000";
layers = (
{
layerId = "167B0F81-32A7-4481-94FC-A22177A24047";
paths = (
{
closed = 1;
nodes = (
"169 700 OFFCURVE",
"35 529 OFFCURVE",
"35 344 CURVE SMOOTH",
"35 159 OFFCURVE",
"169 -12 OFFCURVE",
"361 -12 CURVE SMOOTH",
"553 -12 OFFCURVE",
"687 159 OFFCURVE",
"687 344 CURVE SMOOTH",
"687 529 OFFCURVE",
"553 700 OFFCURVE",
"361 700 CURVE SMOOTH"
);
},
{
closed = 1;
nodes = (
"505 666 OFFCURVE",
"571 561 OFFCURVE",
"571 344 CURVE SMOOTH",
"571 127 OFFCURVE",
"505 22 OFFCURVE",
"361 22 CURVE SMOOTH",
"217 22 OFFCURVE",
"151 127 OFFCURVE",
"151 344 CURVE SMOOTH",
"151 561 OFFCURVE",
"217 666 OFFCURVE",
"361 666 CURVE SMOOTH"
);
},
{
closed = 1;
nodes = (
"289 876 LINE SMOOTH",
"277 889 OFFCURVE",
"265 899 OFFCURVE",
"246 899 CURVE SMOOTH",
"222 899 OFFCURVE",
"212 885 OFFCURVE",
"212 866 CURVE SMOOTH",
"212 852 OFFCURVE",
"224 836 OFFCURVE",
"242 825 CURVE SMOOTH",
"396 727 LINE",
"436 727 LINE"
);
}
);
width = 722;
}
);
note = Ograve;
unicode = 00D2;
},
{
glyphname = Otilde;
lastChange = "2017-06-09 11:42:18 +0000";
layers = (
{
layerId = "167B0F81-32A7-4481-94FC-A22177A24047";
paths = (
{
closed = 1;
nodes = (
"169 700 OFFCURVE",
"35 529 OFFCURVE",
"35 344 CURVE SMOOTH",
"35 159 OFFCURVE",
"169 -12 OFFCURVE",
"361 -12 CURVE SMOOTH",
"553 -12 OFFCURVE",
"687 159 OFFCURVE",
"687 344 CURVE SMOOTH",
"687 529 OFFCURVE",
"553 700 OFFCURVE",
"361 700 CURVE SMOOTH"
);
},
{
closed = 1;
nodes = (
"505 666 OFFCURVE",
"571 561 OFFCURVE",
"571 344 CURVE SMOOTH",
"571 127 OFFCURVE",
"505 22 OFFCURVE",
"361 22 CURVE SMOOTH",
"217 22 OFFCURVE",
"151 127 OFFCURVE",
"151 344 CURVE SMOOTH",
"151 561 OFFCURVE",
"217 666 OFFCURVE",
"361 666 CURVE SMOOTH"
);
},
{
closed = 1;
nodes = (
"491 832 OFFCURVE",
"469 809 OFFCURVE",
"441 809 CURVE SMOOTH",
"421 809 OFFCURVE",
"401 821 OFFCURVE",
"380 832 CURVE SMOOTH",
"354 846 OFFCURVE",
"326 855 OFFCURVE",
"305 855 CURVE SMOOTH",
"244 855 OFFCURVE",
"210 812 OFFCURVE",
"196 755 CURVE",
"225 755 LINE",
"232 779 OFFCURVE",
"250 799 OFFCURVE",
"281 799 CURVE SMOOTH",
"321 799 OFFCURVE",
"364 753 OFFCURVE",
"416 753 CURVE SMOOTH",
"483 753 OFFCURVE",
"514 798 OFFCURVE",
"526 859 CURVE",
"497 859 LINE"
);
}
);
width = 722;
}
);
note = Otilde;
unicode = 00D5;
},
{
glyphname = Scaron;
lastChange = "2017-06-09 11:42:18 +0000";
layers = (
{
layerId = "167B0F81-32A7-4481-94FC-A22177A24047";
paths = (
{
closed = 1;
nodes = (
"73 -6 LINE",
"85 19 OFFCURVE",
"94 40 OFFCURVE",
"120 40 CURVE SMOOTH",
"158 40 OFFCURVE",
"194 -12 OFFCURVE",
"288 -12 CURVE SMOOTH",
"421 -12 OFFCURVE",
"528 72 OFFCURVE",
"528 211 CURVE SMOOTH",
"528 457 OFFCURVE",
"128 354 OFFCURVE",
"128 545 CURVE SMOOTH",
"128 625 OFFCURVE",
"185 666 OFFCURVE",
"261 666 CURVE SMOOTH",
"377 666 OFFCURVE",
"434 555 OFFCURVE",
"460 456 CURVE",
"488 456 LINE",
"488 688 LINE",
"454 688 LINE",
"451 678 OFFCURVE",
"438 642 OFFCURVE",
"423 642 CURVE SMOOTH",
"399 642 OFFCURVE",
"351 700 OFFCURVE",
"260 700 CURVE SMOOTH",
"153 700 OFFCURVE",
"46 630 OFFCURVE",
"46 510 CURVE SMOOTH",
"46 244 OFFCURVE",
"446 377 OFFCURVE",
"446 152 CURVE SMOOTH",
"446 71 OFFCURVE",
"372 22 OFFCURVE",
"297 22 CURVE SMOOTH",
"172 22 OFFCURVE",
"92 142 OFFCURVE",
"73 254 CURVE",
"45 254 LINE",
"45 -6 LINE"
);
},
{
closed = 1;
nodes = (
"158 903 LINE",
"123 903 LINE",
"247 735 LINE",
"309 735 LINE",
"433 903 LINE",
"401 903 LINE",
"278 800 LINE"
);
}
);
width = 556;
}
);
note = Scaron;
unicode = 0160;
},
{
glyphname = Uacute;
lastChange = "2017-06-09 11:42:18 +0000";
layers = (
{
layerId = "167B0F81-32A7-4481-94FC-A22177A24047";
paths = (
{
closed = 1;
nodes = (
"13 688 LINE",
"13 654 LINE",
"92 654 OFFCURVE",
"109 636 OFFCURVE",
"109 588 CURVE SMOOTH",
"109 190 LINE SMOOTH",
"109 50 OFFCURVE",
"208 -12 OFFCURVE",
"362 -12 CURVE SMOOTH",
"506 -12 OFFCURVE",
"611 68 OFFCURVE",
"611 212 CURVE SMOOTH",
"611 558 LINE SMOOTH",
"611 612 OFFCURVE",
"621 654 OFFCURVE",
"709 654 CURVE",
"709 688 LINE",
"468 688 LINE",
"468 654 LINE",
"565 654 OFFCURVE",
"575 612 OFFCURVE",
"575 558 CURVE SMOOTH",
"575 220 LINE SMOOTH",
"575 108 OFFCURVE",
"520 22 OFFCURVE",
"374 22 CURVE SMOOTH",
"264 22 OFFCURVE",
"211 80 OFFCURVE",
"211 187 CURVE SMOOTH",
"211 588 LINE SMOOTH",
"211 636 OFFCURVE",
"228 654 OFFCURVE",
"307 654 CURVE",
"307 688 LINE"
);
},
{
closed = 1;
nodes = (
"492 833 LINE SMOOTH",
"510 844 OFFCURVE",
"522 860 OFFCURVE",
"522 874 CURVE SMOOTH",
"522 893 OFFCURVE",
"512 907 OFFCURVE",
"488 907 CURVE SMOOTH",
"469 907 OFFCURVE",
"457 897 OFFCURVE",
"445 884 CURVE SMOOTH",
"298 735 LINE",
"338 735 LINE"
);
}
);
width = 722;
}
);
note = Uacute;
unicode = 00DA;
},
{
glyphname = Ucircumflex;
lastChange = "2017-06-09 11:42:18 +0000";
layers = (
{
layerId = "167B0F81-32A7-4481-94FC-A22177A24047";
paths = (
{
closed = 1;
nodes = (
"13 688 LINE",
"13 654 LINE",
"92 654 OFFCURVE",
"109 636 OFFCURVE",
"109 588 CURVE SMOOTH",
"109 190 LINE SMOOTH",
"109 50 OFFCURVE",
"208 -12 OFFCURVE",
"362 -12 CURVE SMOOTH",
"506 -12 OFFCURVE",
"611 68 OFFCURVE",
"611 212 CURVE SMOOTH",
"611 558 LINE SMOOTH",
"611 612 OFFCURVE",
"621 654 OFFCURVE",
"709 654 CURVE",
"709 688 LINE",
"468 688 LINE",
"468 654 LINE",
"565 654 OFFCURVE",
"575 612 OFFCURVE",
"575 558 CURVE SMOOTH",
"575 220 LINE SMOOTH",
"575 108 OFFCURVE",
"520 22 OFFCURVE",
"374 22 CURVE SMOOTH",
"264 22 OFFCURVE",
"211 80 OFFCURVE",
"211 187 CURVE SMOOTH",
"211 588 LINE SMOOTH",
"211 636 OFFCURVE",
"228 654 OFFCURVE",
"307 654 CURVE",
"307 688 LINE"
);
},
{
closed = 1;
nodes = (
"493 735 LINE",
"528 735 LINE",
"404 903 LINE",
"342 903 LINE",
"218 735 LINE",
"250 735 LINE",
"373 838 LINE"
);
}
);
width = 722;
}
);
note = Ucircumflex;
unicode = 00DB;
},
{
glyphname = Udieresis;
lastChange = "2017-06-09 11:42:18 +0000";
layers = (
{
layerId = "167B0F81-32A7-4481-94FC-A22177A24047";
paths = (
{
closed = 1;
nodes = (
"13 688 LINE",
"13 654 LINE",
"92 654 OFFCURVE",
"109 636 OFFCURVE",
"109 588 CURVE SMOOTH",
"109 190 LINE SMOOTH",
"109 50 OFFCURVE",
"208 -12 OFFCURVE",
"362 -12 CURVE SMOOTH",
"506 -12 OFFCURVE",
"611 68 OFFCURVE",
"611 212 CURVE SMOOTH",
"611 558 LINE SMOOTH",
"611 612 OFFCURVE",
"621 654 OFFCURVE",
"709 654 CURVE",
"709 688 LINE",
"468 688 LINE",
"468 654 LINE",
"565 654 OFFCURVE",
"575 612 OFFCURVE",
"575 558 CURVE SMOOTH",
"575 220 LINE SMOOTH",
"575 108 OFFCURVE",
"520 22 OFFCURVE",
"374 22 CURVE SMOOTH",
"264 22 OFFCURVE",
"211 80 OFFCURVE",
"211 187 CURVE SMOOTH",
"211 588 LINE SMOOTH",
"211 636 OFFCURVE",
"228 654 OFFCURVE",
"307 654 CURVE",
"307 688 LINE"
);
},
{
closed = 1;
nodes = (
"244 843 OFFCURVE",
"224 821 OFFCURVE",
"224 794 CURVE SMOOTH",
"224 767 OFFCURVE",
"244 745 OFFCURVE",
"273 745 CURVE SMOOTH",
"302 745 OFFCURVE",
"322 767 OFFCURVE",
"322 794 CURVE SMOOTH",
"322 821 OFFCURVE",
"302 843 OFFCURVE",
"273 843 CURVE SMOOTH"
);
},
{
closed = 1;
nodes = (
"444 843 OFFCURVE",
"424 821 OFFCURVE",
"424 794 CURVE SMOOTH",
"424 767 OFFCURVE",
"444 745 OFFCURVE",
"473 745 CURVE SMOOTH",
"502 745 OFFCURVE",
"522 767 OFFCURVE",
"522 794 CURVE SMOOTH",
"522 821 OFFCURVE",
"502 843 OFFCURVE",
"473 843 CURVE SMOOTH"
);
}
);
width = 722;
}
);
note = Udieresis;
unicode = 00DC;
},
{
glyphname = Ugrave;
lastChange = "2017-06-09 11:42:18 +0000";
layers = (
{
layerId = "167B0F81-32A7-4481-94FC-A22177A24047";
paths = (
{
closed = 1;
nodes = (
"13 688 LINE",
"13 654 LINE",
"92 654 OFFCURVE",
"109 636 OFFCURVE",
"109 588 CURVE SMOOTH",
"109 190 LINE SMOOTH",
"109 50 OFFCURVE",
"208 -12 OFFCURVE",
"362 -12 CURVE SMOOTH",
"506 -12 OFFCURVE",
"611 68 OFFCURVE",
"611 212 CURVE SMOOTH",
"611 558 LINE SMOOTH",
"611 612 OFFCURVE",
"621 654 OFFCURVE",
"709 654 CURVE",
"709 688 LINE",
"468 688 LINE",
"468 654 LINE",
"565 654 OFFCURVE",
"575 612 OFFCURVE",
"575 558 CURVE SMOOTH",
"575 220 LINE SMOOTH",
"575 108 OFFCURVE",
"520 22 OFFCURVE",
"374 22 CURVE SMOOTH",
"264 22 OFFCURVE",
"211 80 OFFCURVE",
"211 187 CURVE SMOOTH",
"211 588 LINE SMOOTH",
"211 636 OFFCURVE",
"228 654 OFFCURVE",
"307 654 CURVE",
"307 688 LINE"
);
},
{
closed = 1;
nodes = (
"301 876 LINE SMOOTH",
"289 889 OFFCURVE",
"277 899 OFFCURVE",
"258 899 CURVE SMOOTH",
"234 899 OFFCURVE",
"224 885 OFFCURVE",
"224 866 CURVE SMOOTH",
"224 852 OFFCURVE",
"236 836 OFFCURVE",
"254 825 CURVE SMOOTH",
"408 727 LINE",
"448 727 LINE"
);
}
);
width = 722;
}
);
note = Ugrave;
unicode = 00D9;
},
{
glyphname = Yacute;
lastChange = "2017-06-09 11:42:18 +0000";
layers = (
{
layerId = "167B0F81-32A7-4481-94FC-A22177A24047";
paths = (
{
closed = 1;
nodes = (
"56 654 OFFCURVE",
"75 646 OFFCURVE",
"102 593 CURVE SMOOTH",
"255 292 LINE",
"255 100 LINE SMOOTH",
"255 52 OFFCURVE",
"238 34 OFFCURVE",
"151 34 CURVE",
"151 0 LINE",
"465 0 LINE",
"465 34 LINE",
"374 34 OFFCURVE",
"357 52 OFFCURVE",
"357 100 CURVE SMOOTH",
"357 292 LINE",
"498 559 LINE SMOOTH",
"535 629 OFFCURVE",
"548 654 OFFCURVE",
"620 654 CURVE",
"620 688 LINE",
"391 688 LINE",
"391 654 LINE",
"454 654 OFFCURVE",
"476 642 OFFCURVE",
"476 621 CURVE SMOOTH",
"476 570 OFFCURVE",
"357 384 OFFCURVE",
"338 342 CURVE",
"321 387 OFFCURVE",
"204 586 OFFCURVE",
"204 620 CURVE SMOOTH",
"204 644 OFFCURVE",
"228 654 OFFCURVE",
"288 654 CURVE",
"288 688 LINE",
"4 688 LINE",
"4 654 LINE"
);
},
{
closed = 1;
nodes = (
"425 833 LINE SMOOTH",
"443 844 OFFCURVE",
"455 860 OFFCURVE",
"455 874 CURVE SMOOTH",
"455 893 OFFCURVE",
"445 907 OFFCURVE",
"421 907 CURVE SMOOTH",
"402 907 OFFCURVE",
"390 897 OFFCURVE",
"378 884 CURVE SMOOTH",
"231 735 LINE",
"271 735 LINE"
);
}
);
width = 611;
}
);
leftKerningGroup = Y;
note = Yacute;
rightKerningGroup = Y;
unicode = 00DD;
},
{
glyphname = Ydieresis;
lastChange = "2017-06-09 11:42:18 +0000";
layers = (
{
layerId = "167B0F81-32A7-4481-94FC-A22177A24047";
paths = (
{
closed = 1;
nodes = (
"56 654 OFFCURVE",
"75 646 OFFCURVE",
"102 593 CURVE SMOOTH",
"255 292 LINE",
"255 100 LINE SMOOTH",
"255 52 OFFCURVE",
"238 34 OFFCURVE",
"151 34 CURVE",
"151 0 LINE",
"465 0 LINE",
"465 34 LINE",
"374 34 OFFCURVE",
"357 52 OFFCURVE",
"357 100 CURVE SMOOTH",
"357 292 LINE",
"498 559 LINE SMOOTH",
"535 629 OFFCURVE",
"548 654 OFFCURVE",
"620 654 CURVE",
"620 688 LINE",
"391 688 LINE",
"391 654 LINE",
"454 654 OFFCURVE",
"476 642 OFFCURVE",
"476 621 CURVE SMOOTH",
"476 570 OFFCURVE",
"357 384 OFFCURVE",
"338 342 CURVE",
"321 387 OFFCURVE",
"204 586 OFFCURVE",
"204 620 CURVE SMOOTH",
"204 644 OFFCURVE",
"228 654 OFFCURVE",
"288 654 CURVE",
"288 688 LINE",
"4 688 LINE",
"4 654 LINE"
);
},
{
closed = 1;
nodes = (
"189 843 OFFCURVE",
"169 821 OFFCURVE",
"169 794 CURVE SMOOTH",
"169 767 OFFCURVE",
"189 745 OFFCURVE",
"218 745 CURVE SMOOTH",
"247 745 OFFCURVE",
"267 767 OFFCURVE",
"267 794 CURVE SMOOTH",
"267 821 OFFCURVE",
"247 843 OFFCURVE",
"218 843 CURVE SMOOTH"
);
},
{
closed = 1;
nodes = (
"389 843 OFFCURVE",
"369 821 OFFCURVE",
"369 794 CURVE SMOOTH",
"369 767 OFFCURVE",
"389 745 OFFCURVE",
"418 745 CURVE SMOOTH",
"447 745 OFFCURVE",
"467 767 OFFCURVE",
"467 794 CURVE SMOOTH",
"467 821 OFFCURVE",
"447 843 OFFCURVE",
"418 843 CURVE SMOOTH"
);
}
);
width = 611;
}
);
leftKerningGroup = Y;
note = Ydieresis;
rightKerningGroup = Y;
unicode = 0178;
},
{
glyphname = Zcaron;
lastChange = "2017-06-09 11:42:18 +0000";
layers = (
{
layerId = "167B0F81-32A7-4481-94FC-A22177A24047";
paths = (
{
closed = 1;
nodes = (
"494 257 LINE",
"450 64 OFFCURVE",
"346 34 OFFCURVE",
"219 34 CURVE SMOOTH",
"146 34 LINE",
"514 650 LINE",
"514 688 LINE",
"45 688 LINE",
"39 458 LINE",
"70 458 LINE",
"79 615 OFFCURVE",
"190 654 OFFCURVE",
"331 654 CURVE SMOOTH",
"402 654 LINE",
"22 18 LINE",
"22 0 LINE",
"519 0 LINE",
"525 257 LINE"
);
},
{
closed = 1;
nodes = (
"158 903 LINE",
"123 903 LINE",
"247 735 LINE",
"309 735 LINE",
"433 903 LINE",
"401 903 LINE",
"278 800 LINE"
);
}
);
width = 556;
}
);
note = Zcaron;
unicode = 017D;
},
{
glyphname = aacute;
lastChange = "2017-06-09 11:42:18 +0000";
layers = (
{
layerId = "167B0F81-32A7-4481-94FC-A22177A24047";
paths = (
{
closed = 1;
nodes = (
"486 92 OFFCURVE",
"479 46 OFFCURVE",
"447 46 CURVE SMOOTH",
"428 46 OFFCURVE",
"416 52 OFFCURVE",
"416 102 CURVE SMOOTH",
"416 344 LINE SMOOTH",
"416 450 OFFCURVE",
"352 482 OFFCURVE",
"222 482 CURVE SMOOTH",
"131 482 OFFCURVE",
"52 431 OFFCURVE",
"52 370 CURVE SMOOTH",
"52 340 OFFCURVE",
"76 312 OFFCURVE",
"110 312 CURVE SMOOTH",
"144 312 OFFCURVE",
"168 340 OFFCURVE",
"168 370 CURVE SMOOTH",
"168 398 OFFCURVE",
"152 418 OFFCURVE",
"125 423 CURVE",
"155 442 OFFCURVE",
"184 448 OFFCURVE",
"219 448 CURVE SMOOTH",
"257 448 OFFCURVE",
"322 436 OFFCURVE",
"322 386 CURVE SMOOTH",
"322 293 LINE",
"237 264 OFFCURVE",
"26 218 OFFCURVE",
"26 103 CURVE SMOOTH",
"26 25 OFFCURVE",
"96 -12 OFFCURVE",
"167 -12 CURVE SMOOTH",
"241 -12 OFFCURVE",
"300 10 OFFCURVE",
"328 84 CURVE",
"330 84 LINE",
"338 32 OFFCURVE",
"352 -6 OFFCURVE",
"411 -6 CURVE SMOOTH",
"482 -6 OFFCURVE",
"514 51 OFFCURVE",
"514 116 CURVE",
"486 116 LINE"
);
},
{
closed = 1;
nodes = (
"322 89 OFFCURVE",
"267 30 OFFCURVE",
"204 30 CURVE SMOOTH",
"157 30 OFFCURVE",
"134 62 OFFCURVE",
"134 107 CURVE SMOOTH",
"134 194 OFFCURVE",
"252 244 OFFCURVE",
"322 261 CURVE",
"322 174 LINE SMOOTH"
);
},
{
closed = 1;
nodes = (
"357 636 LINE SMOOTH",
"375 647 OFFCURVE",
"387 663 OFFCURVE",
"387 677 CURVE SMOOTH",
"387 696 OFFCURVE",
"377 710 OFFCURVE",
"353 710 CURVE SMOOTH",
"334 710 OFFCURVE",
"322 700 OFFCURVE",
"310 687 CURVE SMOOTH",
"163 538 LINE",
"203 538 LINE"
);
}
);
width = 500;
}
);
leftKerningGroup = a;
note = aacute;
unicode = 00E1;
},
{
glyphname = acircumflex;
lastChange = "2017-06-09 11:42:18 +0000";
layers = (
{
layerId = "167B0F81-32A7-4481-94FC-A22177A24047";
paths = (
{
closed = 1;
nodes = (
"486 92 OFFCURVE",
"479 46 OFFCURVE",
"447 46 CURVE SMOOTH",
"428 46 OFFCURVE",
"416 52 OFFCURVE",
"416 102 CURVE SMOOTH",
"416 344 LINE SMOOTH",
"416 450 OFFCURVE",
"352 482 OFFCURVE",
"222 482 CURVE SMOOTH",
"131 482 OFFCURVE",
"52 431 OFFCURVE",
"52 370 CURVE SMOOTH",
"52 340 OFFCURVE",
"76 312 OFFCURVE",
"110 312 CURVE SMOOTH",
"144 312 OFFCURVE",
"168 340 OFFCURVE",
"168 370 CURVE SMOOTH",
"168 398 OFFCURVE",
"152 418 OFFCURVE",
"125 423 CURVE",
"155 442 OFFCURVE",
"184 448 OFFCURVE",
"219 448 CURVE SMOOTH",
"257 448 OFFCURVE",
"322 436 OFFCURVE",
"322 386 CURVE SMOOTH",
"322 293 LINE",
"237 264 OFFCURVE",
"26 218 OFFCURVE",
"26 103 CURVE SMOOTH",
"26 25 OFFCURVE",
"96 -12 OFFCURVE",
"167 -12 CURVE SMOOTH",
"241 -12 OFFCURVE",
"300 10 OFFCURVE",
"328 84 CURVE",
"330 84 LINE",
"338 32 OFFCURVE",
"352 -6 OFFCURVE",
"411 -6 CURVE SMOOTH",
"482 -6 OFFCURVE",
"514 51 OFFCURVE",
"514 116 CURVE",
"486 116 LINE"
);
},
{
closed = 1;
nodes = (
"322 89 OFFCURVE",
"267 30 OFFCURVE",
"204 30 CURVE SMOOTH",
"157 30 OFFCURVE",
"134 62 OFFCURVE",
"134 107 CURVE SMOOTH",
"134 194 OFFCURVE",
"252 244 OFFCURVE",
"322 261 CURVE",
"322 174 LINE SMOOTH"
);
},
{
closed = 1;
nodes = (
"358 538 LINE",
"393 538 LINE",
"269 706 LINE",
"207 706 LINE",
"83 538 LINE",
"115 538 LINE",
"238 641 LINE"
);
}
);
width = 500;
}
);
leftKerningGroup = a;
note = acircumflex;
unicode = 00E2;
},
{
glyphname = adieresis;
lastChange = "2017-06-09 11:42:18 +0000";
layers = (
{
layerId = "167B0F81-32A7-4481-94FC-A22177A24047";
paths = (
{
closed = 1;
nodes = (
"486 92 OFFCURVE",
"479 46 OFFCURVE",
"447 46 CURVE SMOOTH",
"428 46 OFFCURVE",
"416 52 OFFCURVE",
"416 102 CURVE SMOOTH",
"416 344 LINE SMOOTH",
"416 450 OFFCURVE",
"352 482 OFFCURVE",
"222 482 CURVE SMOOTH",
"131 482 OFFCURVE",
"52 431 OFFCURVE",
"52 370 CURVE SMOOTH",
"52 340 OFFCURVE",
"76 312 OFFCURVE",
"110 312 CURVE SMOOTH",
"144 312 OFFCURVE",
"168 340 OFFCURVE",
"168 370 CURVE SMOOTH",
"168 398 OFFCURVE",
"152 418 OFFCURVE",
"125 423 CURVE",
"155 442 OFFCURVE",
"184 448 OFFCURVE",
"219 448 CURVE SMOOTH",
"257 448 OFFCURVE",
"322 436 OFFCURVE",
"322 386 CURVE SMOOTH",
"322 293 LINE",
"237 264 OFFCURVE",
"26 218 OFFCURVE",
"26 103 CURVE SMOOTH",
"26 25 OFFCURVE",
"96 -12 OFFCURVE",
"167 -12 CURVE SMOOTH",
"241 -12 OFFCURVE",
"300 10 OFFCURVE",
"328 84 CURVE",
"330 84 LINE",
"338 32 OFFCURVE",
"352 -6 OFFCURVE",
"411 -6 CURVE SMOOTH",
"482 -6 OFFCURVE",
"514 51 OFFCURVE",
"514 116 CURVE",
"486 116 LINE"
);
},
{
closed = 1;
nodes = (
"322 89 OFFCURVE",
"267 30 OFFCURVE",
"204 30 CURVE SMOOTH",
"157 30 OFFCURVE",
"134 62 OFFCURVE",
"134 107 CURVE SMOOTH",
"134 194 OFFCURVE",
"252 244 OFFCURVE",
"322 261 CURVE",
"322 174 LINE SMOOTH"
);
},
{
closed = 1;
nodes = (
"109 646 OFFCURVE",
"89 624 OFFCURVE",
"89 597 CURVE SMOOTH",
"89 570 OFFCURVE",
"109 548 OFFCURVE",
"138 548 CURVE SMOOTH",
"167 548 OFFCURVE",
"187 570 OFFCURVE",
"187 597 CURVE SMOOTH",
"187 624 OFFCURVE",
"167 646 OFFCURVE",
"138 646 CURVE SMOOTH"
);
},
{
closed = 1;
nodes = (
"309 646 OFFCURVE",
"289 624 OFFCURVE",
"289 597 CURVE SMOOTH",
"289 570 OFFCURVE",
"309 548 OFFCURVE",
"338 548 CURVE SMOOTH",
"367 548 OFFCURVE",
"387 570 OFFCURVE",
"387 597 CURVE SMOOTH",
"387 624 OFFCURVE",
"367 646 OFFCURVE",
"338 646 CURVE SMOOTH"
);
}
);
width = 500;
}
);
leftKerningGroup = a;
note = adieresis;
unicode = 00E4;
},
{
glyphname = agrave;
lastChange = "2017-06-09 11:42:18 +0000";
layers = (
{
layerId = "167B0F81-32A7-4481-94FC-A22177A24047";
paths = (
{
closed = 1;
nodes = (
"486 92 OFFCURVE",
"479 46 OFFCURVE",
"447 46 CURVE SMOOTH",
"428 46 OFFCURVE",
"416 52 OFFCURVE",
"416 102 CURVE SMOOTH",
"416 344 LINE SMOOTH",
"416 450 OFFCURVE",
"352 482 OFFCURVE",
"222 482 CURVE SMOOTH",
"131 482 OFFCURVE",
"52 431 OFFCURVE",
"52 370 CURVE SMOOTH",
"52 340 OFFCURVE",
"76 312 OFFCURVE",
"110 312 CURVE SMOOTH",
"144 312 OFFCURVE",
"168 340 OFFCURVE",
"168 370 CURVE SMOOTH",
"168 398 OFFCURVE",
"152 418 OFFCURVE",
"125 423 CURVE",
"155 442 OFFCURVE",
"184 448 OFFCURVE",
"219 448 CURVE SMOOTH",
"257 448 OFFCURVE",
"322 436 OFFCURVE",
"322 386 CURVE SMOOTH",
"322 293 LINE",
"237 264 OFFCURVE",
"26 218 OFFCURVE",
"26 103 CURVE SMOOTH",
"26 25 OFFCURVE",
"96 -12 OFFCURVE",
"167 -12 CURVE SMOOTH",
"241 -12 OFFCURVE",
"300 10 OFFCURVE",
"328 84 CURVE",
"330 84 LINE",
"338 32 OFFCURVE",
"352 -6 OFFCURVE",
"411 -6 CURVE SMOOTH",
"482 -6 OFFCURVE",
"514 51 OFFCURVE",
"514 116 CURVE",
"486 116 LINE"
);
},
{
closed = 1;
nodes = (
"322 89 OFFCURVE",
"267 30 OFFCURVE",
"204 30 CURVE SMOOTH",
"157 30 OFFCURVE",
"134 62 OFFCURVE",
"134 107 CURVE SMOOTH",
"134 194 OFFCURVE",
"252 244 OFFCURVE",
"322 261 CURVE",
"322 174 LINE SMOOTH"
);
},
{
closed = 1;
nodes = (
"166 679 LINE SMOOTH",
"154 692 OFFCURVE",
"142 702 OFFCURVE",
"123 702 CURVE SMOOTH",
"99 702 OFFCURVE",
"89 688 OFFCURVE",
"89 669 CURVE SMOOTH",
"89 655 OFFCURVE",
"101 639 OFFCURVE",
"119 628 CURVE SMOOTH",
"273 530 LINE",
"313 530 LINE"
);
}
);
width = 500;
}
);
leftKerningGroup = a;
note = agrave;
unicode = 00E0;
},
